<svg width="3098" height="142" viewBox="0 0 3098 142" fill="none" xmlns="http://www.w3.org/2000/svg">
<ellipse cx="81.7659" cy="70.7487" rx="81.7659" ry="70.7487" transform="matrix(1 0 0 -1 0.117188 141.588)" fill="white"/>
<ellipse cx="81.7659" cy="70.7487" rx="81.7659" ry="70.7487" transform="matrix(1 0 0 -1 146.789 141.588)" fill="white"/>
<ellipse cx="81.7659" cy="70.7487" rx="81.7659" ry="70.7487" transform="matrix(1 0 0 -1 293.465 141.588)" fill="white"/>
<ellipse cx="81.7659" cy="70.7487" rx="81.7659" ry="70.7487" transform="matrix(1 0 0 -1 440.137 141.588)" fill="white"/>
<ellipse cx="81.7659" cy="70.7487" rx="81.7659" ry="70.7487" transform="matrix(1 0 0 -1 586.811 141.588)" fill="white"/>
<ellipse cx="81.7659" cy="70.7487" rx="81.7659" ry="70.7487" transform="matrix(1 0 0 -1 733.482 141.588)" fill="white"/>
<ellipse cx="81.7659" cy="70.7487" rx="81.7659" ry="70.7487" transform="matrix(1 0 0 -1 880.156 141.588)" fill="white"/>
<ellipse cx="81.7659" cy="70.7487" rx="81.7659" ry="70.7487" transform="matrix(1 0 0 -1 1026.83 141.588)" fill="white"/>
<ellipse cx="81.7659" cy="70.7487" rx="81.7659" ry="70.7487" transform="matrix(1 0 0 -1 1173.5 141.588)" fill="white"/>
<ellipse cx="81.7659" cy="70.7487" rx="81.7659" ry="70.7487" transform="matrix(1 0 0 -1 1320.17 141.588)" fill="white"/>
<ellipse cx="81.7659" cy="70.7487" rx="81.7659" ry="70.7487" transform="matrix(1 0 0 -1 1466.85 141.588)" fill="white"/>
<ellipse cx="81.7659" cy="70.7487" rx="81.7659" ry="70.7487" transform="matrix(1 0 0 -1 1613.52 141.588)" fill="white"/>
<ellipse cx="81.7659" cy="70.7487" rx="81.7659" ry="70.7487" transform="matrix(1 0 0 -1 1760.19 141.588)" fill="white"/>
<ellipse cx="81.7659" cy="70.7487" rx="81.7659" ry="70.7487" transform="matrix(1 0 0 -1 1906.87 141.588)" fill="white"/>
<ellipse cx="81.7659" cy="70.7487" rx="81.7659" ry="70.7487" transform="matrix(1 0 0 -1 2053.54 141.588)" fill="white"/>
<ellipse cx="81.7659" cy="70.7487" rx="81.7659" ry="70.7487" transform="matrix(1 0 0 -1 2200.21 141.588)" fill="white"/>
<ellipse cx="81.7659" cy="70.7487" rx="81.7659" ry="70.7487" transform="matrix(1 0 0 -1 2346.89 141.588)" fill="white"/>
<ellipse cx="81.7659" cy="70.7487" rx="81.7659" ry="70.7487" transform="matrix(1 0 0 -1 2493.56 141.588)" fill="white"/>
<ellipse cx="81.7659" cy="70.7487" rx="81.7659" ry="70.7487" transform="matrix(1 0 0 -1 2640.23 141.588)" fill="white"/>
<ellipse cx="81.7659" cy="70.7487" rx="81.7659" ry="70.7487" transform="matrix(1 0 0 -1 2786.91 141.588)" fill="white"/>
<ellipse cx="81.7659" cy="70.7487" rx="81.7659" ry="70.7487" transform="matrix(1 0 0 -1 2933.58 141.588)" fill="white"/>
</svg>
