<svg style="paint-order: stroke;" viewBox="0 0 1981 356" fill="none"
    xmlns="http://www.w3.org/2000/svg">
    <text transform="translate(138.445 126.088) rotate(-16.0676)" fill="#F4A22B" stroke="white"
        stroke-width="18.96014" xml:space="preserve" style="white-space: pre" font-family="Recoleta"
        font-size="169.322" font-weight="bold" letter-spacing="0.095em"><tspan x="0" y="169.183">b</tspan></text>
    <text transform="translate(264.316 90.3418) rotate(-13.5481)" fill="#F4A22B" stroke="white"
        stroke-width="18.96014" xml:space="preserve" style="white-space: pre" font-family="Recoleta"
        font-size="169.322" font-weight="bold" letter-spacing="0.095em"><tspan x="0" y="169.183">r</tspan></text>
    <text transform="translate(346.707 70.0156) rotate(-11.3653)" fill="#F4A22B" stroke="white"
        stroke-width="18.96014" xml:space="preserve" style="white-space: pre" font-family="Recoleta"
        font-size="169.322" font-weight="bold" letter-spacing="0.095em"><tspan x="0" y="169.183">o</tspan></text>
    <text transform="translate(469.41 45.3633) rotate(-8.82716)" fill="#F4A22B" stroke="white"
        stroke-width="18.96014" xml:space="preserve" style="white-space: pre" font-family="Recoleta"
        font-size="169.322" font-weight="bold" letter-spacing="0.095em"><tspan x="0" y="169.183">u</tspan></text>
    <text transform="translate(592.068 26.416) rotate(-6.46258)" fill="#F4A22B" stroke="white"
        stroke-width="18.96014" xml:space="preserve" style="white-space: pre" font-family="Recoleta"
        font-size="169.322" font-weight="bold" letter-spacing="0.095em"><tspan x="0" y="169.183">g</tspan></text>
    <text transform="translate(710.877 13.0029) rotate(-4.12445)" fill="#F4A22B" stroke="white"
        stroke-width="18.96014" xml:space="preserve" style="white-space: pre" font-family="Recoleta"
        font-size="169.322" font-weight="bold" letter-spacing="0.095em"><tspan x="0" y="169.183">h</tspan></text>
    <text transform="translate(828.416 4.7334) rotate(-2.18832)" fill="#F4A22B" stroke="white"
        stroke-width="18.96014" xml:space="preserve" style="white-space: pre" font-family="Recoleta"
        font-size="169.322" font-weight="bold" letter-spacing="0.095em"><tspan x="0" y="169.183">t</tspan></text>
    <text transform="translate(979.955 0.394531) rotate(0.643387)" fill="#F4A22B" stroke="white"
        stroke-width="18.96014" xml:space="preserve" style="white-space: pre" font-family="Recoleta"
        font-size="169.322" font-weight="bold" letter-spacing="0.095em"><tspan x="0" y="169.183">t</tspan></text>
    <text transform="translate(1069.2 1.03516) rotate(2.57496)" fill="#F4A22B" stroke="white"
        stroke-width="18.96014" xml:space="preserve" style="white-space: pre" font-family="Recoleta"
        font-size="169.322" font-weight="bold" letter-spacing="0.095em"><tspan x="0" y="169.183">o</tspan></text>
    <text transform="translate(1250.71 10.9502) rotate(5.94112)" fill="#F4A22B" stroke="white"
        stroke-width="18.96014" xml:space="preserve" style="white-space: pre" font-family="Recoleta"
        font-size="169.322" font-weight="bold" letter-spacing="0.095em"><tspan x="0" y="169.183">y</tspan></text>
    <text transform="translate(1370.19 23.4414) rotate(8.29881)" fill="#F4A22B" stroke="white"
        stroke-width="18.96014" xml:space="preserve" style="white-space: pre" font-family="Recoleta"
        font-size="169.322" font-weight="bold" letter-spacing="0.095em"><tspan x="0" y="169.183">o</tspan></text>
    <text transform="translate(1482.71 39.6738) rotate(10.6923)" fill="#F4A22B" stroke="white"
        stroke-width="18.96014" xml:space="preserve" style="white-space: pre" font-family="Recoleta"
        font-size="169.322" font-weight="bold" letter-spacing="0.095em"><tspan x="0" y="169.183">u</tspan></text>
    <text transform="translate(1665.19 76.2129) rotate(14.6586)" fill="#F4A22B" stroke="white"
        stroke-width="18.96014" xml:space="preserve" style="white-space: pre" font-family="Recoleta"
        font-size="169.322" font-weight="bold" letter-spacing="0.095em"><tspan x="0" y="169.183">b</tspan></text>
    <text transform="translate(1784.07 107.377) rotate(17.3579)" fill="#F4A22B" stroke="white"
        stroke-width="18.96014" xml:space="preserve" style="white-space: pre" font-family="Recoleta"
        font-size="169.322" font-weight="bold" letter-spacing="0.095em"><tspan x="0" y="169.183">y</tspan></text>
    <path
        d="M43.4846 311.202C47.1164 320.085 59.3576 320.948 64.1992 312.662L66.8791 308.076C68.8017 304.785 72.2203 302.652 76.0207 302.37L81.3181 301.978C90.8887 301.269 95.4918 289.893 89.1075 282.728L85.5738 278.762C83.0386 275.917 82.0658 272.006 82.9724 268.305L84.2362 263.145C86.5193 253.824 77.123 245.931 68.3357 249.789L63.4718 251.924C59.9823 253.456 55.9626 253.173 52.7224 251.166L48.206 248.37C40.0466 243.318 29.6362 249.816 30.5896 259.365L31.1173 264.651C31.4959 268.443 29.9844 272.178 27.0752 274.64L23.0202 278.071C15.6942 284.27 18.6566 296.179 28.0331 298.223L33.2232 299.354C36.9466 300.166 40.0322 302.758 41.4744 306.286L43.4846 311.202Z"
        fill="#F4A22B" />
    <path
        d="M1937.14 311.202C1933.51 320.085 1921.27 320.948 1916.43 312.662L1913.75 308.076C1911.83 304.785 1908.41 302.652 1904.61 302.37L1899.31 301.978C1889.74 301.269 1885.14 289.893 1891.52 282.728L1895.06 278.762C1897.59 275.917 1898.56 272.006 1897.66 268.305L1896.39 263.145C1894.11 253.824 1903.51 245.931 1912.29 249.789L1917.16 251.924C1920.65 253.456 1924.67 253.173 1927.91 251.166L1932.42 248.37C1940.58 243.318 1950.99 249.816 1950.04 259.365L1949.51 264.651C1949.13 268.443 1950.64 272.178 1953.55 274.64L1957.61 278.071C1964.93 284.27 1961.97 296.179 1952.6 298.223L1947.41 299.354C1943.68 300.166 1940.6 302.758 1939.15 306.286L1937.14 311.202Z"
        fill="#F4A22B" />
</svg>