<svg width="2022" height="919" viewBox="0 0 2022 919" fill="none" xmlns="http://www.w3.org/2000/svg">
<ellipse cx="1019.5" cy="786.5" rx="451.5" ry="132.5" fill="black" fill-opacity="0.07"/>
<ellipse cx="1746.5" cy="501.5" rx="275.5" ry="93.5" fill="black" fill-opacity="0.07"/>
<ellipse cx="275.5" cy="502.5" rx="275.5" ry="93.5" fill="black" fill-opacity="0.07"/>
<ellipse cx="629.265" cy="689.131" rx="48.2652" ry="44.1314" fill="#FFD698"/>
<ellipse cx="1400.27" cy="689.131" rx="48.2652" ry="44.1314" fill="#FFD698"/>
<ellipse cx="660.531" cy="273.961" rx="48.2652" ry="44.1314" fill="#FFD698"/>
<ellipse cx="725.89" cy="257.412" rx="48.2652" ry="44.1314" fill="#FFD698"/>
<ellipse cx="796.277" cy="244.54" rx="48.2652" ry="44.1314" fill="#FFD698"/>
<ellipse cx="877.724" cy="235.346" rx="48.2652" ry="44.1314" fill="#FFD698"/>
<ellipse cx="945.095" cy="229.83" rx="48.2652" ry="44.1314" fill="#FFD698"/>
<ellipse cx="48.2652" cy="44.1314" rx="48.2652" ry="44.1314" transform="matrix(-1 0 0 1 1429.76 230.749)" fill="#FFD698"/>
<ellipse cx="48.2652" cy="44.1314" rx="48.2652" ry="44.1314" transform="matrix(-1 0 0 1 1364.4 214.2)" fill="#FFD698"/>
<ellipse cx="48.2652" cy="44.1314" rx="48.2652" ry="44.1314" transform="matrix(-1 0 0 1 1294.01 201.328)" fill="#FFD698"/>
<ellipse cx="48.2652" cy="44.1314" rx="48.2652" ry="44.1314" transform="matrix(-1 0 0 1 1212.56 192.135)" fill="#FFD698"/>
<ellipse cx="48.2652" cy="44.1314" rx="48.2652" ry="44.1314" transform="matrix(-1 0 0 1 1145.19 186.618)" fill="#FFD698"/>
<ellipse cx="48.2652" cy="44.1314" rx="48.2652" ry="44.1314" transform="matrix(-1 0 0 1 1069.78 185.698)" fill="#FFD698"/>
<ellipse cx="1013.97" cy="734.583" rx="410.757" ry="102.973" fill="#FFFAF3"/>
<rect x="603.215" y="315.334" width="821.514" height="419.248" fill="#FFFAF3"/>
<ellipse cx="1013.97" cy="315.335" rx="410.757" ry="102.973" fill="#FFFCF9"/>
<path d="M1094.92 186.158C1106.85 231.07 1063.44 257.412 1024.6 257.412C985.772 257.412 945.344 230.206 957.275 186.158C969.207 142.111 1002.87 114.905 1027.59 114.905C1052.3 114.905 1082.98 141.247 1094.92 186.158Z" fill="#CC4C44"/>
<path d="M825.365 291C822.165 291 820.565 289.733 820.565 287.2V286.4C820.565 284.933 821.499 283.267 823.365 281.4C825.365 279.533 827.299 277.4 829.165 275C831.165 272.6 832.165 270 832.165 267.2V187.6C832.165 184.667 831.432 182.4 829.965 180.8C828.499 179.067 826.832 177.933 824.965 177.4C823.232 176.867 821.632 176.133 820.165 175.2C818.699 174.133 817.965 172.8 817.965 171.2V170.2C817.965 167.8 819.965 165.667 823.965 163.8L855.565 150.2C860.632 148.333 864.632 148.133 867.565 149.6C870.632 150.933 872.165 153.067 872.165 156C872.165 157.733 871.432 160.2 869.965 163.4C868.499 166.6 867.765 170.333 867.765 174.6V267.2C867.765 270 868.765 272.6 870.765 275C872.899 277.4 874.965 279.533 876.965 281.4C878.965 283.267 879.965 284.933 879.965 286.4V287.2C879.965 289.733 878.365 291 875.165 291H825.365ZM954.85 293C936.583 293 921.25 286.4 908.85 273.2C896.45 259.867 890.25 242.333 890.25 220.6C890.25 198.333 896.05 180.533 907.65 167.2C919.383 153.733 935.05 147 954.65 147C973.05 147 988.45 153.867 1000.85 167.6C1013.25 181.333 1019.45 199.067 1019.45 220.8C1019.45 242.533 1013.18 260 1000.65 273.2C988.116 286.4 972.85 293 954.85 293ZM943.85 268.8C948.65 276 954.116 279.6 960.25 279.6C966.383 279.6 971.183 276.067 974.65 269C978.25 261.8 980.05 251.2 980.05 237.2C980.05 225.333 978.85 213.667 976.45 202.2C974.183 190.733 970.65 181 965.85 173C961.183 165 955.783 161 949.65 161C943.25 161 938.25 164.933 934.65 172.8C931.183 180.533 929.45 192 929.45 207.2C929.45 219.2 930.65 230.667 933.05 241.6C935.45 252.533 939.05 261.6 943.85 268.8ZM1063.35 288.2C1059.49 291.4 1054.49 293 1048.35 293C1042.22 293 1037.15 291.4 1033.15 288.2C1029.15 285 1027.15 280.267 1027.15 274C1027.15 267.867 1029.15 263.2 1033.15 260C1037.15 256.8 1042.22 255.2 1048.35 255.2C1054.49 255.2 1059.49 256.8 1063.35 260C1067.35 263.2 1069.35 267.867 1069.35 274C1069.35 280.133 1067.35 284.867 1063.35 288.2ZM1141.96 293C1123.69 293 1108.36 286.4 1095.96 273.2C1083.56 259.867 1077.36 242.333 1077.36 220.6C1077.36 198.333 1083.16 180.533 1094.76 167.2C1106.49 153.733 1122.16 147 1141.76 147C1160.16 147 1175.56 153.867 1187.96 167.6C1200.36 181.333 1206.56 199.067 1206.56 220.8C1206.56 242.533 1200.29 260 1187.76 273.2C1175.23 286.4 1159.96 293 1141.96 293ZM1130.96 268.8C1135.76 276 1141.23 279.6 1147.36 279.6C1153.49 279.6 1158.29 276.067 1161.76 269C1165.36 261.8 1167.16 251.2 1167.16 237.2C1167.16 225.333 1165.96 213.667 1163.56 202.2C1161.29 190.733 1157.76 181 1152.96 173C1148.29 165 1142.89 161 1136.76 161C1130.36 161 1125.36 164.933 1121.76 172.8C1118.29 180.533 1116.56 192 1116.56 207.2C1116.56 219.2 1117.76 230.667 1120.16 241.6C1122.56 252.533 1126.16 261.6 1130.96 268.8Z" fill="#FFFAF3"/>
<path d="M823.365 281.4L816.542 274.089L816.416 274.207L816.294 274.329L823.365 281.4ZM829.165 275L821.483 268.598L821.375 268.728L821.272 268.861L829.165 275ZM829.965 180.8L822.331 187.259L822.46 187.411L822.594 187.557L829.965 180.8ZM824.965 177.4L822.024 186.958L822.121 186.987L822.218 187.015L824.965 177.4ZM820.165 175.2L814.284 183.287L814.535 183.47L814.796 183.637L820.165 175.2ZM823.965 163.8L820.012 154.615L819.873 154.674L819.736 154.738L823.965 163.8ZM855.565 150.2L852.108 140.817L851.857 140.909L851.612 141.015L855.565 150.2ZM867.565 149.6L863.093 158.544L863.333 158.664L863.578 158.771L867.565 149.6ZM869.965 163.4L879.056 167.567V167.567L869.965 163.4ZM870.765 275L863.083 281.402L863.185 281.524L863.291 281.644L870.765 275ZM876.965 281.4L870.142 288.711H870.142L876.965 281.4ZM825.365 281C824.815 281 826.25 280.846 827.972 282.21C828.907 282.949 829.635 283.921 830.082 284.982C830.503 285.982 830.565 286.797 830.565 287.2H810.565C810.565 290.71 811.791 294.908 815.558 297.89C818.88 300.521 822.715 301 825.365 301V281ZM830.565 287.2V286.4H810.565V287.2H830.565ZM830.565 286.4C830.565 287.819 830.114 288.715 829.99 288.936C829.874 289.143 829.924 288.983 830.436 288.471L816.294 274.329C813.922 276.701 810.565 280.827 810.565 286.4H830.565ZM830.188 288.711C832.616 286.445 834.902 283.912 837.059 281.139L821.272 268.861C819.695 270.888 818.115 272.622 816.542 274.089L830.188 288.711ZM836.847 281.402C840.16 277.426 842.165 272.613 842.165 267.2H822.165C822.165 267.387 822.17 267.774 821.483 268.598L836.847 281.402ZM842.165 267.2V187.6H822.165V267.2H842.165ZM842.165 187.6C842.165 183.057 841.013 178.053 837.337 174.043L822.594 187.557C822.441 187.391 822.323 187.222 822.236 187.07C822.151 186.921 822.113 186.815 822.101 186.778C822.081 186.718 822.165 186.946 822.165 187.6H842.165ZM837.599 174.341C835.074 171.357 831.791 168.95 827.712 167.785L822.218 187.015C822.161 186.999 822.107 186.978 822.062 186.957C822.04 186.947 822.023 186.937 822.01 186.93C821.998 186.923 821.992 186.919 821.992 186.919C821.992 186.919 821.999 186.924 822.013 186.935C822.028 186.947 822.049 186.964 822.078 186.991C822.135 187.043 822.221 187.129 822.331 187.259L837.599 174.341ZM827.906 167.842C826.992 167.561 826.213 167.196 825.534 166.763L814.796 183.637C817.051 185.071 819.472 186.173 822.024 186.958L827.906 167.842ZM826.047 167.113C826.277 167.28 826.813 167.736 827.277 168.581C827.765 169.467 827.965 170.405 827.965 171.2H807.965C807.965 176.461 810.627 180.628 814.284 183.287L826.047 167.113ZM827.965 171.2V170.2H807.965V171.2H827.965ZM827.965 170.2C827.965 171.035 827.782 171.823 827.489 172.486C827.21 173.119 826.896 173.495 826.761 173.639C826.632 173.777 826.633 173.74 826.887 173.57C827.136 173.404 827.554 173.16 828.194 172.862L819.736 154.738C815.254 156.83 807.965 161.419 807.965 170.2H827.965ZM827.918 172.985L859.518 159.385L851.612 141.015L820.012 154.615L827.918 172.985ZM859.022 159.583C860.914 158.887 862.158 158.673 862.865 158.638C863.523 158.605 863.472 158.734 863.093 158.544L872.037 140.656C865.436 137.355 858.158 138.588 852.108 140.817L859.022 159.583ZM863.578 158.771C863.903 158.912 863.431 158.782 862.895 158.036C862.631 157.67 862.431 157.258 862.306 156.847C862.185 156.445 862.165 156.143 862.165 156H882.165C882.165 152.694 881.265 149.327 879.135 146.364C877.066 143.485 874.295 141.622 871.552 140.429L863.578 158.771ZM862.165 156C862.165 155.557 862.241 155.59 862.03 156.3C861.835 156.954 861.478 157.917 860.875 159.233L879.056 167.567C880.629 164.134 882.165 160.01 882.165 156H862.165ZM860.875 159.233C858.695 163.988 857.765 169.194 857.765 174.6H877.765C877.765 171.472 878.302 169.212 879.056 167.567L860.875 159.233ZM857.765 174.6V267.2H877.765V174.6H857.765ZM857.765 267.2C857.765 272.613 859.77 277.426 863.083 281.402L878.447 268.598C877.76 267.774 877.765 267.387 877.765 267.2H857.765ZM863.291 281.644C865.597 284.237 867.88 286.599 870.142 288.711L883.788 274.089C882.051 272.467 880.201 270.563 878.239 268.356L863.291 281.644ZM870.142 288.711C870.714 289.244 870.771 289.413 870.64 289.195C870.503 288.965 869.965 287.977 869.965 286.4H889.965C889.965 280.554 886.224 276.363 883.788 274.089L870.142 288.711ZM869.965 286.4V287.2H889.965V286.4H869.965ZM869.965 287.2C869.965 286.797 870.028 285.982 870.449 284.982C870.896 283.921 871.624 282.949 872.558 282.21C874.28 280.846 875.715 281 875.165 281V301C877.815 301 881.65 300.521 884.972 297.89C888.74 294.908 889.965 290.71 889.965 287.2H869.965ZM875.165 281H825.365V301H875.165V281ZM908.85 273.2L901.527 280.01L901.544 280.028L901.561 280.047L908.85 273.2ZM907.65 167.2L900.11 160.631L900.105 160.636L907.65 167.2ZM1000.85 167.6L1008.27 160.898V160.898L1000.85 167.6ZM1000.65 273.2L1007.9 280.086L1000.65 273.2ZM943.85 268.8L952.17 263.253L943.85 268.8ZM974.65 269L965.705 264.528L965.688 264.562L965.672 264.596L974.65 269ZM976.45 202.2L966.639 204.139L966.65 204.194L966.662 204.249L976.45 202.2ZM965.85 173L957.212 178.039L957.243 178.092L957.275 178.145L965.85 173ZM934.65 172.8L925.557 168.639L925.54 168.674L925.525 168.709L934.65 172.8ZM933.05 241.6L923.282 243.744L933.05 241.6ZM954.85 283C939.317 283 926.63 277.522 916.138 266.353L901.561 280.047C915.87 295.278 933.849 303 954.85 303V283ZM916.172 266.39C905.816 255.255 900.25 240.325 900.25 220.6H880.25C880.25 244.341 887.083 264.479 901.527 280.01L916.172 266.39ZM900.25 220.6C900.25 200.099 905.556 184.842 915.194 173.764L900.105 160.636C886.543 176.225 880.25 196.568 880.25 220.6H900.25ZM915.189 173.769C924.825 162.71 937.624 157 954.65 157V137C932.475 137 913.941 144.757 900.11 160.631L915.189 173.769ZM954.65 157C970.202 157 982.911 162.655 993.427 174.302L1008.27 160.898C993.988 145.079 975.897 137 954.65 137V157ZM993.427 174.302C1003.88 185.883 1009.45 201.084 1009.45 220.8H1029.45C1029.45 197.049 1022.61 176.784 1008.27 160.898L993.427 174.302ZM1009.45 220.8C1009.45 240.499 1003.83 255.324 993.398 266.314L1007.9 280.086C1022.53 264.676 1029.45 244.567 1029.45 220.8H1009.45ZM993.398 266.314C982.728 277.551 970.073 283 954.85 283V303C975.626 303 993.504 295.249 1007.9 280.086L993.398 266.314ZM935.529 274.347C941.357 283.089 949.516 289.6 960.25 289.6V269.6C958.717 269.6 955.942 268.911 952.17 263.253L935.529 274.347ZM960.25 289.6C971.334 289.6 979.047 282.741 983.628 273.404L965.672 264.596C963.319 269.392 961.431 269.6 960.25 269.6V289.6ZM983.594 273.472C988.225 264.21 990.05 251.764 990.05 237.2H970.05C970.05 250.636 968.274 259.39 965.705 264.528L983.594 273.472ZM990.05 237.2C990.05 224.654 988.78 212.3 986.238 200.151L966.662 204.249C968.919 215.033 970.05 226.013 970.05 237.2H990.05ZM986.26 200.261C983.824 187.937 979.947 177.059 974.425 167.855L957.275 178.145C961.352 184.941 964.542 193.53 966.639 204.139L986.26 200.261ZM974.487 167.961C969.018 158.585 960.942 151 949.65 151V171C950.624 171 953.348 171.415 957.212 178.039L974.487 167.961ZM949.65 151C937.936 151 930.107 158.695 925.557 168.639L943.743 176.961C946.392 171.172 948.564 171 949.65 171V151ZM925.525 168.709C921.191 178.377 919.45 191.534 919.45 207.2H939.45C939.45 192.466 941.175 182.69 943.775 176.891L925.525 168.709ZM919.45 207.2C919.45 219.87 920.717 232.058 923.282 243.744L942.817 239.456C940.582 229.275 939.45 218.53 939.45 207.2H919.45ZM923.282 243.744C925.874 255.552 929.87 265.858 935.529 274.347L952.17 263.253C948.229 257.342 945.025 249.514 942.817 239.456L923.282 243.744ZM1063.35 288.2L1069.73 295.904L1069.74 295.893L1069.76 295.882L1063.35 288.2ZM1033.15 288.2L1026.91 296.009L1033.15 288.2ZM1033.15 260L1039.4 267.809L1033.15 260ZM1063.35 260L1056.98 267.704L1057.04 267.757L1057.11 267.809L1063.35 260ZM1056.98 280.496C1055.28 281.903 1052.69 283 1048.35 283V303C1056.28 303 1063.7 300.897 1069.73 295.904L1056.98 280.496ZM1048.35 283C1044.03 283 1041.3 281.907 1039.4 280.391L1026.91 296.009C1033.01 300.893 1040.42 303 1048.35 303V283ZM1039.4 280.391C1038.3 279.512 1037.15 277.978 1037.15 274H1017.15C1017.15 282.555 1020.01 290.488 1026.91 296.009L1039.4 280.391ZM1037.15 274C1037.15 270.238 1038.25 268.73 1039.4 267.809L1026.91 252.191C1020.06 257.67 1017.15 265.495 1017.15 274H1037.15ZM1039.4 267.809C1041.3 266.293 1044.03 265.2 1048.35 265.2V245.2C1040.42 245.2 1033.01 247.307 1026.91 252.191L1039.4 267.809ZM1048.35 265.2C1052.69 265.2 1055.28 266.297 1056.98 267.704L1069.73 252.296C1063.7 247.303 1056.28 245.2 1048.35 245.2V265.2ZM1057.11 267.809C1058.26 268.73 1059.35 270.238 1059.35 274H1079.35C1079.35 265.495 1076.45 257.67 1069.6 252.191L1057.11 267.809ZM1059.35 274C1059.35 277.752 1058.26 279.43 1056.95 280.518L1069.76 295.882C1076.45 290.303 1079.35 282.515 1079.35 274H1059.35ZM1095.96 273.2L1088.64 280.01L1088.65 280.028L1088.67 280.047L1095.96 273.2ZM1094.76 167.2L1087.22 160.631L1087.21 160.636L1094.76 167.2ZM1187.96 167.6L1195.38 160.898V160.898L1187.96 167.6ZM1187.76 273.2L1195.01 280.086L1187.76 273.2ZM1130.96 268.8L1139.28 263.253L1130.96 268.8ZM1161.76 269L1152.81 264.528L1152.8 264.562L1152.78 264.596L1161.76 269ZM1163.56 202.2L1153.75 204.139L1153.76 204.194L1153.77 204.249L1163.56 202.2ZM1152.96 173L1144.32 178.039L1144.35 178.092L1144.38 178.145L1152.96 173ZM1121.76 172.8L1112.67 168.639L1112.65 168.674L1112.63 168.709L1121.76 172.8ZM1120.16 241.6L1110.39 243.744L1120.16 241.6ZM1141.96 283C1126.43 283 1113.74 277.522 1103.25 266.353L1088.67 280.047C1102.98 295.278 1120.96 303 1141.96 303V283ZM1103.28 266.39C1092.93 255.255 1087.36 240.325 1087.36 220.6H1067.36C1067.36 244.341 1074.19 264.479 1088.64 280.01L1103.28 266.39ZM1087.36 220.6C1087.36 200.099 1092.67 184.842 1102.3 173.764L1087.21 160.636C1073.65 176.225 1067.36 196.568 1067.36 220.6H1087.36ZM1102.3 173.769C1111.93 162.71 1124.73 157 1141.76 157V137C1119.58 137 1101.05 144.757 1087.22 160.631L1102.3 173.769ZM1141.76 157C1157.31 157 1170.02 162.655 1180.54 174.302L1195.38 160.898C1181.1 145.079 1163.01 137 1141.76 137V157ZM1180.54 174.302C1190.99 185.883 1196.56 201.084 1196.56 220.8H1216.56C1216.56 197.049 1209.72 176.784 1195.38 160.898L1180.54 174.302ZM1196.56 220.8C1196.56 240.499 1190.94 255.324 1180.51 266.314L1195.01 280.086C1209.64 264.676 1216.56 244.567 1216.56 220.8H1196.56ZM1180.51 266.314C1169.84 277.551 1157.18 283 1141.96 283V303C1162.74 303 1180.61 295.249 1195.01 280.086L1180.51 266.314ZM1122.64 274.347C1128.47 283.089 1136.63 289.6 1147.36 289.6V269.6C1145.83 269.6 1143.05 268.911 1139.28 263.253L1122.64 274.347ZM1147.36 289.6C1158.44 289.6 1166.16 282.741 1170.74 273.404L1152.78 264.596C1150.43 269.392 1148.54 269.6 1147.36 269.6V289.6ZM1170.7 273.472C1175.33 264.21 1177.16 251.764 1177.16 237.2H1157.16C1157.16 250.636 1155.38 259.39 1152.81 264.528L1170.7 273.472ZM1177.16 237.2C1177.16 224.654 1175.89 212.3 1173.35 200.151L1153.77 204.249C1156.03 215.033 1157.16 226.013 1157.16 237.2H1177.16ZM1173.37 200.261C1170.93 187.937 1167.06 177.059 1161.53 167.855L1144.38 178.145C1148.46 184.941 1151.65 193.53 1153.75 204.139L1173.37 200.261ZM1161.6 167.961C1156.13 158.585 1148.05 151 1136.76 151V171C1137.73 171 1140.46 171.415 1144.32 178.039L1161.6 167.961ZM1136.76 151C1125.04 151 1117.22 158.695 1112.67 168.639L1130.85 176.961C1133.5 171.172 1135.67 171 1136.76 171V151ZM1112.63 168.709C1108.3 178.377 1106.56 191.534 1106.56 207.2H1126.56C1126.56 192.466 1128.28 182.69 1130.88 176.891L1112.63 168.709ZM1106.56 207.2C1106.56 219.87 1107.83 232.058 1110.39 243.744L1129.93 239.456C1127.69 229.275 1126.56 218.53 1126.56 207.2H1106.56ZM1110.39 243.744C1112.98 255.552 1116.98 265.858 1122.64 274.347L1139.28 263.253C1135.34 257.342 1132.13 249.514 1129.93 239.456L1110.39 243.744Z" fill="#FCF3E7"/>
<path d="M826.371 291C823.171 291 821.571 289.733 821.571 287.2V286.4C821.571 284.933 822.504 283.267 824.371 281.4C826.371 279.533 828.304 277.4 830.171 275C832.171 272.6 833.171 270 833.171 267.2V187.6C833.171 184.667 832.438 182.4 830.971 180.8C829.504 179.067 827.838 177.933 825.971 177.4C824.238 176.867 822.638 176.133 821.171 175.2C819.704 174.133 818.971 172.8 818.971 171.2V170.2C818.971 167.8 820.971 165.667 824.971 163.8L856.571 150.2C861.638 148.333 865.638 148.133 868.571 149.6C871.638 150.933 873.171 153.067 873.171 156C873.171 157.733 872.438 160.2 870.971 163.4C869.504 166.6 868.771 170.333 868.771 174.6V267.2C868.771 270 869.771 272.6 871.771 275C873.904 277.4 875.971 279.533 877.971 281.4C879.971 283.267 880.971 284.933 880.971 286.4V287.2C880.971 289.733 879.371 291 876.171 291H826.371ZM955.855 293C937.589 293 922.255 286.4 909.855 273.2C897.455 259.867 891.255 242.333 891.255 220.6C891.255 198.333 897.055 180.533 908.655 167.2C920.389 153.733 936.055 147 955.655 147C974.055 147 989.455 153.867 1001.86 167.6C1014.26 181.333 1020.46 199.067 1020.46 220.8C1020.46 242.533 1014.19 260 1001.66 273.2C989.122 286.4 973.855 293 955.855 293ZM944.855 268.8C949.655 276 955.122 279.6 961.255 279.6C967.389 279.6 972.189 276.067 975.655 269C979.255 261.8 981.055 251.2 981.055 237.2C981.055 225.333 979.855 213.667 977.455 202.2C975.189 190.733 971.655 181 966.855 173C962.189 165 956.789 161 950.655 161C944.255 161 939.255 164.933 935.655 172.8C932.189 180.533 930.455 192 930.455 207.2C930.455 219.2 931.655 230.667 934.055 241.6C936.455 252.533 940.055 261.6 944.855 268.8ZM1064.36 288.2C1060.49 291.4 1055.49 293 1049.36 293C1043.23 293 1038.16 291.4 1034.16 288.2C1030.16 285 1028.16 280.267 1028.16 274C1028.16 267.867 1030.16 263.2 1034.16 260C1038.16 256.8 1043.23 255.2 1049.36 255.2C1055.49 255.2 1060.49 256.8 1064.36 260C1068.36 263.2 1070.36 267.867 1070.36 274C1070.36 280.133 1068.36 284.867 1064.36 288.2ZM1142.96 293C1124.7 293 1109.36 286.4 1096.96 273.2C1084.56 259.867 1078.36 242.333 1078.36 220.6C1078.36 198.333 1084.16 180.533 1095.76 167.2C1107.5 153.733 1123.16 147 1142.76 147C1161.16 147 1176.56 153.867 1188.96 167.6C1201.36 181.333 1207.56 199.067 1207.56 220.8C1207.56 242.533 1201.3 260 1188.76 273.2C1176.23 286.4 1160.96 293 1142.96 293ZM1131.96 268.8C1136.76 276 1142.23 279.6 1148.36 279.6C1154.5 279.6 1159.3 276.067 1162.76 269C1166.36 261.8 1168.16 251.2 1168.16 237.2C1168.16 225.333 1166.96 213.667 1164.56 202.2C1162.3 190.733 1158.76 181 1153.96 173C1149.3 165 1143.9 161 1137.76 161C1131.36 161 1126.36 164.933 1122.76 172.8C1119.3 180.533 1117.56 192 1117.56 207.2C1117.56 219.2 1118.76 230.667 1121.16 241.6C1123.56 252.533 1127.16 261.6 1131.96 268.8Z" fill="#FFFAF3"/>
<path d="M824.371 281.4L820.96 277.745L820.896 277.804L820.836 277.864L824.371 281.4ZM830.171 275L826.33 271.799L826.276 271.864L826.224 271.93L830.171 275ZM830.971 180.8L827.154 184.03L827.218 184.105L827.285 184.179L830.971 180.8ZM825.971 177.4L824.501 182.179L824.549 182.194L824.597 182.208L825.971 177.4ZM821.171 175.2L818.23 179.244L818.356 179.335L818.487 179.418L821.171 175.2ZM824.971 163.8L822.994 159.207L822.925 159.237L822.857 159.269L824.971 163.8ZM856.571 150.2L854.843 145.508L854.717 145.554L854.594 145.607L856.571 150.2ZM868.571 149.6L866.335 154.072L866.455 154.132L866.577 154.185L868.571 149.6ZM870.971 163.4L875.516 165.483V165.483L870.971 163.4ZM871.771 275L867.93 278.201L867.981 278.262L868.034 278.322L871.771 275ZM877.971 281.4L874.56 285.055L874.56 285.055L877.971 281.4ZM826.371 286C825.885 286 825.631 285.95 825.547 285.928C825.472 285.908 825.631 285.937 825.875 286.13C826.142 286.341 826.356 286.629 826.479 286.922C826.59 287.185 826.571 287.315 826.571 287.2H816.571C816.571 289.588 817.384 292.162 819.668 293.97C821.729 295.602 824.246 296 826.371 296V286ZM826.571 287.2V286.4H816.571V287.2H826.571ZM826.571 286.4C826.571 286.743 826.462 286.799 826.634 286.493C826.809 286.18 827.184 285.658 827.907 284.936L820.836 277.864C818.716 279.984 816.571 282.88 816.571 286.4H826.571ZM827.783 285.055C829.996 282.989 832.106 280.656 834.118 278.07L826.224 271.93C824.503 274.144 822.746 276.077 820.96 277.745L827.783 285.055ZM834.012 278.201C836.669 275.013 838.171 271.306 838.171 267.2H828.171C828.171 268.694 827.674 270.187 826.33 271.799L834.012 278.201ZM838.171 267.2V187.6H828.171V267.2H838.171ZM838.171 187.6C838.171 183.862 837.228 180.227 834.657 177.421L827.285 184.179C827.647 184.573 828.171 185.471 828.171 187.6H838.171ZM834.788 177.57C832.792 175.212 830.317 173.442 827.345 172.592L824.597 182.208C825.358 182.425 826.216 182.922 827.154 184.03L834.788 177.57ZM827.442 172.621C826.118 172.214 824.928 171.664 823.855 170.982L818.487 179.418C820.347 180.602 822.358 181.52 824.501 182.179L827.442 172.621ZM824.112 171.156C823.985 171.064 823.92 170.999 823.894 170.971C823.87 170.945 823.88 170.951 823.902 170.99C823.925 171.032 823.946 171.084 823.959 171.137C823.972 171.19 823.971 171.215 823.971 171.2H813.971C813.971 174.63 815.669 177.381 818.23 179.244L824.112 171.156ZM823.971 171.2V170.2H813.971V171.2H823.971ZM823.971 170.2C823.971 170.535 823.787 170.573 824.119 170.22C824.52 169.792 825.398 169.119 827.086 168.331L822.857 159.269C818.615 161.248 813.971 164.609 813.971 170.2H823.971ZM826.948 168.393L858.548 154.793L854.594 145.607L822.994 159.207L826.948 168.393ZM858.3 154.892C862.875 153.206 865.236 153.523 866.335 154.072L870.807 145.128C866.04 142.744 860.401 143.46 854.843 145.508L858.3 154.892ZM866.577 154.185C867.506 154.589 867.846 154.958 867.961 155.118C868.046 155.236 868.171 155.453 868.171 156H878.171C878.171 153.614 877.529 151.297 876.081 149.282C874.663 147.309 872.702 145.944 870.565 145.015L866.577 154.185ZM868.171 156C868.171 156.595 867.839 158.233 866.426 161.317L875.516 165.483C877.036 162.167 878.171 158.872 878.171 156H868.171ZM866.426 161.317C864.603 165.294 863.771 169.764 863.771 174.6H873.771C873.771 170.903 874.406 167.906 875.516 165.483L866.426 161.317ZM863.771 174.6V267.2H873.771V174.6H863.771ZM863.771 267.2C863.771 271.306 865.274 275.013 867.93 278.201L875.612 271.799C874.269 270.187 873.771 268.694 873.771 267.2H863.771ZM868.034 278.322C870.253 280.819 872.428 283.066 874.56 285.055L881.383 277.745C879.514 276 877.555 273.981 875.508 271.678L868.034 278.322ZM874.56 285.055C875.346 285.789 875.749 286.315 875.934 286.622C876.115 286.924 875.971 286.822 875.971 286.4H885.971C885.971 282.744 883.6 279.815 881.383 277.745L874.56 285.055ZM875.971 286.4V287.2H885.971V286.4H875.971ZM875.971 287.2C875.971 287.315 875.952 287.185 876.063 286.922C876.186 286.629 876.4 286.341 876.668 286.13C876.911 285.937 877.07 285.908 876.995 285.928C876.911 285.95 876.658 286 876.171 286V296C878.296 296 880.814 295.602 882.875 293.97C885.158 292.162 885.971 289.588 885.971 287.2H875.971ZM876.171 286H826.371V296H876.171V286ZM909.855 273.2L906.194 276.605L906.203 276.614L906.211 276.623L909.855 273.2ZM908.655 167.2L904.886 163.915L904.883 163.918L908.655 167.2ZM1001.86 167.6L1005.57 164.249L1001.86 167.6ZM1001.66 273.2L1005.28 276.643V276.643L1001.66 273.2ZM944.855 268.8L949.016 266.026L944.855 268.8ZM975.655 269L971.183 266.764L971.175 266.781L971.167 266.798L975.655 269ZM977.455 202.2L972.55 203.17L972.556 203.197L972.562 203.224L977.455 202.2ZM966.855 173L962.537 175.519L962.552 175.546L962.568 175.572L966.855 173ZM935.655 172.8L931.109 170.719L931.101 170.737L931.093 170.755L935.655 172.8ZM934.055 241.6L929.172 242.672L934.055 241.6ZM955.855 288C938.956 288 924.945 281.961 913.5 269.777L906.211 276.623C919.565 290.839 936.222 298 955.855 298V288ZM913.517 269.795C902.139 257.561 896.255 241.329 896.255 220.6H886.255C886.255 243.337 892.772 262.173 906.194 276.605L913.517 269.795ZM896.255 220.6C896.255 199.216 901.809 182.688 912.428 170.482L904.883 163.918C892.302 178.379 886.255 197.451 886.255 220.6H896.255ZM912.425 170.485C923.11 158.222 937.343 152 955.655 152V142C934.768 142 917.668 149.245 904.886 163.915L912.425 170.485ZM955.655 152C972.632 152 986.686 158.261 998.144 170.951L1005.57 164.249C992.225 149.473 975.479 142 955.655 142V152ZM998.144 170.951C1009.57 183.608 1015.46 200.075 1015.46 220.8H1025.46C1025.46 198.058 1018.94 179.058 1005.57 164.249L998.144 170.951ZM1015.46 220.8C1015.46 241.516 1009.51 257.662 998.03 269.757L1005.28 276.643C1018.86 262.338 1025.46 243.55 1025.46 220.8H1015.46ZM998.03 269.757C986.428 281.976 972.467 288 955.855 288V298C975.244 298 991.816 290.824 1005.28 276.643L998.03 269.757ZM940.695 271.574C946.009 279.544 952.822 284.6 961.255 284.6V274.6C957.422 274.6 953.302 272.456 949.016 266.026L940.695 271.574ZM961.255 284.6C969.865 284.6 976.121 279.404 980.144 271.202L971.167 266.798C968.257 272.73 964.913 274.6 961.255 274.6V284.6ZM980.128 271.236C984.243 263.005 986.055 251.482 986.055 237.2H976.055C976.055 250.918 974.268 260.595 971.183 266.764L980.128 271.236ZM986.055 237.2C986.055 224.994 984.821 212.984 982.349 201.176L972.562 203.224C974.89 214.35 976.055 225.673 976.055 237.2H986.055ZM982.361 201.23C980.009 189.335 976.304 179.029 971.143 170.428L962.568 175.572C967.007 182.971 970.368 192.132 972.55 203.17L982.361 201.23ZM971.174 170.481C966.106 161.792 959.368 156 950.655 156V166C954.209 166 958.271 168.208 962.537 175.519L971.174 170.481ZM950.655 156C941.598 156 935.184 161.814 931.109 170.719L940.202 174.881C943.327 168.053 946.912 166 950.655 166V156ZM931.093 170.755C927.193 179.455 925.455 191.767 925.455 207.2H935.455C935.455 192.233 937.185 181.612 940.218 174.845L931.093 170.755ZM925.455 207.2C925.455 219.535 926.689 231.362 929.172 242.672L938.939 240.528C936.622 229.971 935.455 218.865 935.455 207.2H925.455ZM929.172 242.672C931.668 254.043 935.466 263.729 940.695 271.574L949.016 266.026C944.645 259.471 941.243 251.024 938.939 240.528L929.172 242.672ZM1064.36 288.2L1067.55 292.052L1067.55 292.047L1067.56 292.041L1064.36 288.2ZM1034.16 288.2L1031.04 292.104L1034.16 288.2ZM1034.16 260L1037.28 263.904L1034.16 260ZM1064.36 260L1061.17 263.852L1061.2 263.878L1061.24 263.904L1064.36 260ZM1061.17 284.348C1058.39 286.652 1054.6 288 1049.36 288V298C1056.39 298 1062.6 296.148 1067.55 292.052L1061.17 284.348ZM1049.36 288C1044.13 288 1040.23 286.654 1037.28 284.296L1031.04 292.104C1036.09 296.146 1042.32 298 1049.36 298V288ZM1037.28 284.296C1034.73 282.256 1033.16 279.122 1033.16 274H1023.16C1023.16 281.411 1025.59 287.744 1031.04 292.104L1037.28 284.296ZM1033.16 274C1033.16 269.052 1034.71 265.965 1037.28 263.904L1031.04 256.096C1025.61 260.435 1023.16 266.681 1023.16 274H1033.16ZM1037.28 263.904C1040.23 261.546 1044.13 260.2 1049.36 260.2V250.2C1042.32 250.2 1036.09 252.054 1031.04 256.096L1037.28 263.904ZM1049.36 260.2C1054.6 260.2 1058.39 261.548 1061.17 263.852L1067.55 256.148C1062.6 252.052 1056.39 250.2 1049.36 250.2V260.2ZM1061.24 263.904C1063.81 265.965 1065.36 269.052 1065.36 274H1075.36C1075.36 266.681 1072.91 260.435 1067.48 256.096L1061.24 263.904ZM1065.36 274C1065.36 278.942 1063.81 282.148 1061.16 284.359L1067.56 292.041C1072.91 287.585 1075.36 281.324 1075.36 274H1065.36ZM1096.96 273.2L1093.3 276.605L1093.31 276.614L1093.32 276.623L1096.96 273.2ZM1095.76 167.2L1092 163.915L1091.99 163.918L1095.76 167.2ZM1188.96 167.6L1192.68 164.249L1188.96 167.6ZM1188.76 273.2L1192.39 276.643V276.643L1188.76 273.2ZM1131.96 268.8L1136.13 266.026L1131.96 268.8ZM1162.76 269L1158.29 266.764L1158.28 266.781L1158.28 266.798L1162.76 269ZM1164.56 202.2L1159.66 203.17L1159.67 203.197L1159.67 203.224L1164.56 202.2ZM1153.96 173L1149.65 175.519L1149.66 175.546L1149.68 175.572L1153.96 173ZM1122.76 172.8L1118.22 170.719L1118.21 170.737L1118.2 170.755L1122.76 172.8ZM1121.16 241.6L1116.28 242.672L1121.16 241.6ZM1142.96 288C1126.06 288 1112.05 281.961 1100.61 269.777L1093.32 276.623C1106.67 290.839 1123.33 298 1142.96 298V288ZM1100.63 269.795C1089.25 257.561 1083.36 241.329 1083.36 220.6H1073.36C1073.36 243.337 1079.88 262.173 1093.3 276.605L1100.63 269.795ZM1083.36 220.6C1083.36 199.216 1088.92 182.688 1099.54 170.482L1091.99 163.918C1079.41 178.379 1073.36 197.451 1073.36 220.6H1083.36ZM1099.53 170.485C1110.22 158.222 1124.45 152 1142.76 152V142C1121.88 142 1104.78 149.245 1092 163.915L1099.53 170.485ZM1142.76 152C1159.74 152 1173.8 158.261 1185.25 170.951L1192.68 164.249C1179.33 149.473 1162.59 142 1142.76 142V152ZM1185.25 170.951C1196.68 183.608 1202.56 200.075 1202.56 220.8H1212.56C1212.56 198.058 1206.05 179.058 1192.68 164.249L1185.25 170.951ZM1202.56 220.8C1202.56 241.516 1196.62 257.662 1185.14 269.757L1192.39 276.643C1205.97 262.338 1212.56 243.55 1212.56 220.8H1202.56ZM1185.14 269.757C1173.54 281.976 1159.58 288 1142.96 288V298C1162.35 298 1178.93 290.824 1192.39 276.643L1185.14 269.757ZM1127.8 271.574C1133.12 279.544 1139.93 284.6 1148.36 284.6V274.6C1144.53 274.6 1140.41 272.456 1136.13 266.026L1127.8 271.574ZM1148.36 284.6C1156.97 284.6 1163.23 279.404 1167.25 271.202L1158.28 266.798C1155.37 272.73 1152.02 274.6 1148.36 274.6V284.6ZM1167.24 271.236C1171.35 263.005 1173.16 251.482 1173.16 237.2H1163.16C1163.16 250.918 1161.38 260.595 1158.29 266.764L1167.24 271.236ZM1173.16 237.2C1173.16 224.994 1171.93 212.984 1169.46 201.176L1159.67 203.224C1162 214.35 1163.16 225.673 1163.16 237.2H1173.16ZM1169.47 201.23C1167.12 189.335 1163.41 179.029 1158.25 170.428L1149.68 175.572C1154.12 182.971 1157.48 192.132 1159.66 203.17L1169.47 201.23ZM1158.28 170.481C1153.22 161.792 1146.48 156 1137.76 156V166C1141.32 166 1145.38 168.208 1149.65 175.519L1158.28 170.481ZM1137.76 156C1128.71 156 1122.29 161.814 1118.22 170.719L1127.31 174.881C1130.44 168.053 1134.02 166 1137.76 166V156ZM1118.2 170.755C1114.3 179.455 1112.56 191.767 1112.56 207.2H1122.56C1122.56 192.233 1124.29 181.612 1127.33 174.845L1118.2 170.755ZM1112.56 207.2C1112.56 219.535 1113.8 231.362 1116.28 242.672L1126.05 240.528C1123.73 229.971 1122.56 218.865 1122.56 207.2H1112.56ZM1116.28 242.672C1118.78 254.043 1122.57 263.729 1127.8 271.574L1136.13 266.026C1131.75 259.471 1128.35 251.024 1126.05 240.528L1116.28 242.672Z" fill="#69A4CC"/>
<path d="M824.371 281.4L820.96 277.745L820.896 277.804L820.836 277.864L824.371 281.4ZM830.171 275L826.33 271.799L826.276 271.864L826.224 271.93L830.171 275ZM830.971 180.8L827.154 184.03L827.218 184.105L827.285 184.179L830.971 180.8ZM825.971 177.4L824.501 182.179L824.549 182.194L824.597 182.208L825.971 177.4ZM821.171 175.2L818.23 179.244L818.356 179.335L818.487 179.418L821.171 175.2ZM824.971 163.8L822.994 159.207L822.925 159.237L822.857 159.269L824.971 163.8ZM856.571 150.2L854.843 145.508L854.717 145.554L854.594 145.607L856.571 150.2ZM868.571 149.6L866.335 154.072L866.455 154.132L866.577 154.185L868.571 149.6ZM870.971 163.4L875.516 165.483V165.483L870.971 163.4ZM871.771 275L867.93 278.201L867.981 278.262L868.034 278.322L871.771 275ZM877.971 281.4L874.56 285.055L874.56 285.055L877.971 281.4ZM826.371 286C825.885 286 825.631 285.95 825.547 285.928C825.472 285.908 825.631 285.937 825.875 286.13C826.142 286.341 826.356 286.629 826.479 286.922C826.59 287.185 826.571 287.315 826.571 287.2H816.571C816.571 289.588 817.384 292.162 819.668 293.97C821.729 295.602 824.246 296 826.371 296V286ZM826.571 287.2V286.4H816.571V287.2H826.571ZM826.571 286.4C826.571 286.743 826.462 286.799 826.634 286.493C826.809 286.18 827.184 285.658 827.907 284.936L820.836 277.864C818.716 279.984 816.571 282.88 816.571 286.4H826.571ZM827.783 285.055C829.996 282.989 832.106 280.656 834.118 278.07L826.224 271.93C824.503 274.144 822.746 276.077 820.96 277.745L827.783 285.055ZM834.012 278.201C836.669 275.013 838.171 271.306 838.171 267.2H828.171C828.171 268.694 827.674 270.187 826.33 271.799L834.012 278.201ZM838.171 267.2V187.6H828.171V267.2H838.171ZM838.171 187.6C838.171 183.862 837.228 180.227 834.657 177.421L827.285 184.179C827.647 184.573 828.171 185.471 828.171 187.6H838.171ZM834.788 177.57C832.792 175.212 830.317 173.442 827.345 172.592L824.597 182.208C825.358 182.425 826.216 182.922 827.154 184.03L834.788 177.57ZM827.442 172.621C826.118 172.214 824.928 171.664 823.855 170.982L818.487 179.418C820.347 180.602 822.358 181.52 824.501 182.179L827.442 172.621ZM824.112 171.156C823.985 171.064 823.92 170.999 823.894 170.971C823.87 170.945 823.88 170.951 823.902 170.99C823.925 171.032 823.946 171.084 823.959 171.137C823.972 171.19 823.971 171.215 823.971 171.2H813.971C813.971 174.63 815.669 177.381 818.23 179.244L824.112 171.156ZM823.971 171.2V170.2H813.971V171.2H823.971ZM823.971 170.2C823.971 170.535 823.787 170.573 824.119 170.22C824.52 169.792 825.398 169.119 827.086 168.331L822.857 159.269C818.615 161.248 813.971 164.609 813.971 170.2H823.971ZM826.948 168.393L858.548 154.793L854.594 145.607L822.994 159.207L826.948 168.393ZM858.3 154.892C862.875 153.206 865.236 153.523 866.335 154.072L870.807 145.128C866.04 142.744 860.401 143.46 854.843 145.508L858.3 154.892ZM866.577 154.185C867.506 154.589 867.846 154.958 867.961 155.118C868.046 155.236 868.171 155.453 868.171 156H878.171C878.171 153.614 877.529 151.297 876.081 149.282C874.663 147.309 872.702 145.944 870.565 145.015L866.577 154.185ZM868.171 156C868.171 156.595 867.839 158.233 866.426 161.317L875.516 165.483C877.036 162.167 878.171 158.872 878.171 156H868.171ZM866.426 161.317C864.603 165.294 863.771 169.764 863.771 174.6H873.771C873.771 170.903 874.406 167.906 875.516 165.483L866.426 161.317ZM863.771 174.6V267.2H873.771V174.6H863.771ZM863.771 267.2C863.771 271.306 865.274 275.013 867.93 278.201L875.612 271.799C874.269 270.187 873.771 268.694 873.771 267.2H863.771ZM868.034 278.322C870.253 280.819 872.428 283.066 874.56 285.055L881.383 277.745C879.514 276 877.555 273.981 875.508 271.678L868.034 278.322ZM874.56 285.055C875.346 285.789 875.749 286.315 875.934 286.622C876.115 286.924 875.971 286.822 875.971 286.4H885.971C885.971 282.744 883.6 279.815 881.383 277.745L874.56 285.055ZM875.971 286.4V287.2H885.971V286.4H875.971ZM875.971 287.2C875.971 287.315 875.952 287.185 876.063 286.922C876.186 286.629 876.4 286.341 876.668 286.13C876.911 285.937 877.07 285.908 876.995 285.928C876.911 285.95 876.658 286 876.171 286V296C878.296 296 880.814 295.602 882.875 293.97C885.158 292.162 885.971 289.588 885.971 287.2H875.971ZM876.171 286H826.371V296H876.171V286ZM909.855 273.2L906.194 276.605L906.203 276.614L906.211 276.623L909.855 273.2ZM908.655 167.2L904.886 163.915L904.883 163.918L908.655 167.2ZM1001.86 167.6L1005.57 164.249L1001.86 167.6ZM1001.66 273.2L1005.28 276.643V276.643L1001.66 273.2ZM944.855 268.8L949.016 266.026L944.855 268.8ZM975.655 269L971.183 266.764L971.175 266.781L971.167 266.798L975.655 269ZM977.455 202.2L972.55 203.17L972.556 203.197L972.562 203.224L977.455 202.2ZM966.855 173L962.537 175.519L962.552 175.546L962.568 175.572L966.855 173ZM935.655 172.8L931.109 170.719L931.101 170.737L931.093 170.755L935.655 172.8ZM934.055 241.6L929.172 242.672L934.055 241.6ZM955.855 288C938.956 288 924.945 281.961 913.5 269.777L906.211 276.623C919.565 290.839 936.222 298 955.855 298V288ZM913.517 269.795C902.139 257.561 896.255 241.329 896.255 220.6H886.255C886.255 243.337 892.772 262.173 906.194 276.605L913.517 269.795ZM896.255 220.6C896.255 199.216 901.809 182.688 912.428 170.482L904.883 163.918C892.302 178.379 886.255 197.451 886.255 220.6H896.255ZM912.425 170.485C923.11 158.222 937.343 152 955.655 152V142C934.768 142 917.668 149.245 904.886 163.915L912.425 170.485ZM955.655 152C972.632 152 986.686 158.261 998.144 170.951L1005.57 164.249C992.225 149.473 975.479 142 955.655 142V152ZM998.144 170.951C1009.57 183.608 1015.46 200.075 1015.46 220.8H1025.46C1025.46 198.058 1018.94 179.058 1005.57 164.249L998.144 170.951ZM1015.46 220.8C1015.46 241.516 1009.51 257.662 998.03 269.757L1005.28 276.643C1018.86 262.338 1025.46 243.55 1025.46 220.8H1015.46ZM998.03 269.757C986.428 281.976 972.467 288 955.855 288V298C975.244 298 991.816 290.824 1005.28 276.643L998.03 269.757ZM940.695 271.574C946.009 279.544 952.822 284.6 961.255 284.6V274.6C957.422 274.6 953.302 272.456 949.016 266.026L940.695 271.574ZM961.255 284.6C969.865 284.6 976.121 279.404 980.144 271.202L971.167 266.798C968.257 272.73 964.913 274.6 961.255 274.6V284.6ZM980.128 271.236C984.243 263.005 986.055 251.482 986.055 237.2H976.055C976.055 250.918 974.268 260.595 971.183 266.764L980.128 271.236ZM986.055 237.2C986.055 224.994 984.821 212.984 982.349 201.176L972.562 203.224C974.89 214.35 976.055 225.673 976.055 237.2H986.055ZM982.361 201.23C980.009 189.335 976.304 179.029 971.143 170.428L962.568 175.572C967.007 182.971 970.368 192.132 972.55 203.17L982.361 201.23ZM971.174 170.481C966.106 161.792 959.368 156 950.655 156V166C954.209 166 958.271 168.208 962.537 175.519L971.174 170.481ZM950.655 156C941.598 156 935.184 161.814 931.109 170.719L940.202 174.881C943.327 168.053 946.912 166 950.655 166V156ZM931.093 170.755C927.193 179.455 925.455 191.767 925.455 207.2H935.455C935.455 192.233 937.185 181.612 940.218 174.845L931.093 170.755ZM925.455 207.2C925.455 219.535 926.689 231.362 929.172 242.672L938.939 240.528C936.622 229.971 935.455 218.865 935.455 207.2H925.455ZM929.172 242.672C931.668 254.043 935.466 263.729 940.695 271.574L949.016 266.026C944.645 259.471 941.243 251.024 938.939 240.528L929.172 242.672ZM1064.36 288.2L1067.55 292.052L1067.55 292.047L1067.56 292.041L1064.36 288.2ZM1034.16 288.2L1031.04 292.104L1034.16 288.2ZM1034.16 260L1037.28 263.904L1034.16 260ZM1064.36 260L1061.17 263.852L1061.2 263.878L1061.24 263.904L1064.36 260ZM1061.17 284.348C1058.39 286.652 1054.6 288 1049.36 288V298C1056.39 298 1062.6 296.148 1067.55 292.052L1061.17 284.348ZM1049.36 288C1044.13 288 1040.23 286.654 1037.28 284.296L1031.04 292.104C1036.09 296.146 1042.32 298 1049.36 298V288ZM1037.28 284.296C1034.73 282.256 1033.16 279.122 1033.16 274H1023.16C1023.16 281.411 1025.59 287.744 1031.04 292.104L1037.28 284.296ZM1033.16 274C1033.16 269.052 1034.71 265.965 1037.28 263.904L1031.04 256.096C1025.61 260.435 1023.16 266.681 1023.16 274H1033.16ZM1037.28 263.904C1040.23 261.546 1044.13 260.2 1049.36 260.2V250.2C1042.32 250.2 1036.09 252.054 1031.04 256.096L1037.28 263.904ZM1049.36 260.2C1054.6 260.2 1058.39 261.548 1061.17 263.852L1067.55 256.148C1062.6 252.052 1056.39 250.2 1049.36 250.2V260.2ZM1061.24 263.904C1063.81 265.965 1065.36 269.052 1065.36 274H1075.36C1075.36 266.681 1072.91 260.435 1067.48 256.096L1061.24 263.904ZM1065.36 274C1065.36 278.942 1063.81 282.148 1061.16 284.359L1067.56 292.041C1072.91 287.585 1075.36 281.324 1075.36 274H1065.36ZM1096.96 273.2L1093.3 276.605L1093.31 276.614L1093.32 276.623L1096.96 273.2ZM1095.76 167.2L1092 163.915L1091.99 163.918L1095.76 167.2ZM1188.96 167.6L1192.68 164.249L1188.96 167.6ZM1188.76 273.2L1192.39 276.643V276.643L1188.76 273.2ZM1131.96 268.8L1136.13 266.026L1131.96 268.8ZM1162.76 269L1158.29 266.764L1158.28 266.781L1158.28 266.798L1162.76 269ZM1164.56 202.2L1159.66 203.17L1159.67 203.197L1159.67 203.224L1164.56 202.2ZM1153.96 173L1149.65 175.519L1149.66 175.546L1149.68 175.572L1153.96 173ZM1122.76 172.8L1118.22 170.719L1118.21 170.737L1118.2 170.755L1122.76 172.8ZM1121.16 241.6L1116.28 242.672L1121.16 241.6ZM1142.96 288C1126.06 288 1112.05 281.961 1100.61 269.777L1093.32 276.623C1106.67 290.839 1123.33 298 1142.96 298V288ZM1100.63 269.795C1089.25 257.561 1083.36 241.329 1083.36 220.6H1073.36C1073.36 243.337 1079.88 262.173 1093.3 276.605L1100.63 269.795ZM1083.36 220.6C1083.36 199.216 1088.92 182.688 1099.54 170.482L1091.99 163.918C1079.41 178.379 1073.36 197.451 1073.36 220.6H1083.36ZM1099.53 170.485C1110.22 158.222 1124.45 152 1142.76 152V142C1121.88 142 1104.78 149.245 1092 163.915L1099.53 170.485ZM1142.76 152C1159.74 152 1173.8 158.261 1185.25 170.951L1192.68 164.249C1179.33 149.473 1162.59 142 1142.76 142V152ZM1185.25 170.951C1196.68 183.608 1202.56 200.075 1202.56 220.8H1212.56C1212.56 198.058 1206.05 179.058 1192.68 164.249L1185.25 170.951ZM1202.56 220.8C1202.56 241.516 1196.62 257.662 1185.14 269.757L1192.39 276.643C1205.97 262.338 1212.56 243.55 1212.56 220.8H1202.56ZM1185.14 269.757C1173.54 281.976 1159.58 288 1142.96 288V298C1162.35 298 1178.93 290.824 1192.39 276.643L1185.14 269.757ZM1127.8 271.574C1133.12 279.544 1139.93 284.6 1148.36 284.6V274.6C1144.53 274.6 1140.41 272.456 1136.13 266.026L1127.8 271.574ZM1148.36 284.6C1156.97 284.6 1163.23 279.404 1167.25 271.202L1158.28 266.798C1155.37 272.73 1152.02 274.6 1148.36 274.6V284.6ZM1167.24 271.236C1171.35 263.005 1173.16 251.482 1173.16 237.2H1163.16C1163.16 250.918 1161.38 260.595 1158.29 266.764L1167.24 271.236ZM1173.16 237.2C1173.16 224.994 1171.93 212.984 1169.46 201.176L1159.67 203.224C1162 214.35 1163.16 225.673 1163.16 237.2H1173.16ZM1169.47 201.23C1167.12 189.335 1163.41 179.029 1158.25 170.428L1149.68 175.572C1154.12 182.971 1157.48 192.132 1159.66 203.17L1169.47 201.23ZM1158.28 170.481C1153.22 161.792 1146.48 156 1137.76 156V166C1141.32 166 1145.38 168.208 1149.65 175.519L1158.28 170.481ZM1137.76 156C1128.71 156 1122.29 161.814 1118.22 170.719L1127.31 174.881C1130.44 168.053 1134.02 166 1137.76 166V156ZM1118.2 170.755C1114.3 179.455 1112.56 191.767 1112.56 207.2H1122.56C1122.56 192.233 1124.29 181.612 1127.33 174.845L1118.2 170.755ZM1112.56 207.2C1112.56 219.535 1113.8 231.362 1116.28 242.672L1126.05 240.528C1123.73 229.971 1122.56 218.865 1122.56 207.2H1112.56ZM1116.28 242.672C1118.78 254.043 1122.57 263.729 1127.8 271.574L1136.13 266.026C1131.75 259.471 1128.35 251.024 1126.05 240.528L1116.28 242.672Z" fill="#69A4CC"/>
<path d="M824.371 281.4L820.96 277.745L820.896 277.804L820.836 277.864L824.371 281.4ZM830.171 275L826.33 271.799L826.276 271.864L826.224 271.93L830.171 275ZM830.971 180.8L827.154 184.03L827.218 184.105L827.285 184.179L830.971 180.8ZM825.971 177.4L824.501 182.179L824.549 182.194L824.597 182.208L825.971 177.4ZM821.171 175.2L818.23 179.244L818.356 179.335L818.487 179.418L821.171 175.2ZM824.971 163.8L822.994 159.207L822.925 159.237L822.857 159.269L824.971 163.8ZM856.571 150.2L854.843 145.508L854.717 145.554L854.594 145.607L856.571 150.2ZM868.571 149.6L866.335 154.072L866.455 154.132L866.577 154.185L868.571 149.6ZM870.971 163.4L875.516 165.483V165.483L870.971 163.4ZM871.771 275L867.93 278.201L867.981 278.262L868.034 278.322L871.771 275ZM877.971 281.4L874.56 285.055L874.56 285.055L877.971 281.4ZM826.371 286C825.885 286 825.631 285.95 825.547 285.928C825.472 285.908 825.631 285.937 825.875 286.13C826.142 286.341 826.356 286.629 826.479 286.922C826.59 287.185 826.571 287.315 826.571 287.2H816.571C816.571 289.588 817.384 292.162 819.668 293.97C821.729 295.602 824.246 296 826.371 296V286ZM826.571 287.2V286.4H816.571V287.2H826.571ZM826.571 286.4C826.571 286.743 826.462 286.799 826.634 286.493C826.809 286.18 827.184 285.658 827.907 284.936L820.836 277.864C818.716 279.984 816.571 282.88 816.571 286.4H826.571ZM827.783 285.055C829.996 282.989 832.106 280.656 834.118 278.07L826.224 271.93C824.503 274.144 822.746 276.077 820.96 277.745L827.783 285.055ZM834.012 278.201C836.669 275.013 838.171 271.306 838.171 267.2H828.171C828.171 268.694 827.674 270.187 826.33 271.799L834.012 278.201ZM838.171 267.2V187.6H828.171V267.2H838.171ZM838.171 187.6C838.171 183.862 837.228 180.227 834.657 177.421L827.285 184.179C827.647 184.573 828.171 185.471 828.171 187.6H838.171ZM834.788 177.57C832.792 175.212 830.317 173.442 827.345 172.592L824.597 182.208C825.358 182.425 826.216 182.922 827.154 184.03L834.788 177.57ZM827.442 172.621C826.118 172.214 824.928 171.664 823.855 170.982L818.487 179.418C820.347 180.602 822.358 181.52 824.501 182.179L827.442 172.621ZM824.112 171.156C823.985 171.064 823.92 170.999 823.894 170.971C823.87 170.945 823.88 170.951 823.902 170.99C823.925 171.032 823.946 171.084 823.959 171.137C823.972 171.19 823.971 171.215 823.971 171.2H813.971C813.971 174.63 815.669 177.381 818.23 179.244L824.112 171.156ZM823.971 171.2V170.2H813.971V171.2H823.971ZM823.971 170.2C823.971 170.535 823.787 170.573 824.119 170.22C824.52 169.792 825.398 169.119 827.086 168.331L822.857 159.269C818.615 161.248 813.971 164.609 813.971 170.2H823.971ZM826.948 168.393L858.548 154.793L854.594 145.607L822.994 159.207L826.948 168.393ZM858.3 154.892C862.875 153.206 865.236 153.523 866.335 154.072L870.807 145.128C866.04 142.744 860.401 143.46 854.843 145.508L858.3 154.892ZM866.577 154.185C867.506 154.589 867.846 154.958 867.961 155.118C868.046 155.236 868.171 155.453 868.171 156H878.171C878.171 153.614 877.529 151.297 876.081 149.282C874.663 147.309 872.702 145.944 870.565 145.015L866.577 154.185ZM868.171 156C868.171 156.595 867.839 158.233 866.426 161.317L875.516 165.483C877.036 162.167 878.171 158.872 878.171 156H868.171ZM866.426 161.317C864.603 165.294 863.771 169.764 863.771 174.6H873.771C873.771 170.903 874.406 167.906 875.516 165.483L866.426 161.317ZM863.771 174.6V267.2H873.771V174.6H863.771ZM863.771 267.2C863.771 271.306 865.274 275.013 867.93 278.201L875.612 271.799C874.269 270.187 873.771 268.694 873.771 267.2H863.771ZM868.034 278.322C870.253 280.819 872.428 283.066 874.56 285.055L881.383 277.745C879.514 276 877.555 273.981 875.508 271.678L868.034 278.322ZM874.56 285.055C875.346 285.789 875.749 286.315 875.934 286.622C876.115 286.924 875.971 286.822 875.971 286.4H885.971C885.971 282.744 883.6 279.815 881.383 277.745L874.56 285.055ZM875.971 286.4V287.2H885.971V286.4H875.971ZM875.971 287.2C875.971 287.315 875.952 287.185 876.063 286.922C876.186 286.629 876.4 286.341 876.668 286.13C876.911 285.937 877.07 285.908 876.995 285.928C876.911 285.95 876.658 286 876.171 286V296C878.296 296 880.814 295.602 882.875 293.97C885.158 292.162 885.971 289.588 885.971 287.2H875.971ZM876.171 286H826.371V296H876.171V286ZM909.855 273.2L906.194 276.605L906.203 276.614L906.211 276.623L909.855 273.2ZM908.655 167.2L904.886 163.915L904.883 163.918L908.655 167.2ZM1001.86 167.6L1005.57 164.249L1001.86 167.6ZM1001.66 273.2L1005.28 276.643V276.643L1001.66 273.2ZM944.855 268.8L949.016 266.026L944.855 268.8ZM975.655 269L971.183 266.764L971.175 266.781L971.167 266.798L975.655 269ZM977.455 202.2L972.55 203.17L972.556 203.197L972.562 203.224L977.455 202.2ZM966.855 173L962.537 175.519L962.552 175.546L962.568 175.572L966.855 173ZM935.655 172.8L931.109 170.719L931.101 170.737L931.093 170.755L935.655 172.8ZM934.055 241.6L929.172 242.672L934.055 241.6ZM955.855 288C938.956 288 924.945 281.961 913.5 269.777L906.211 276.623C919.565 290.839 936.222 298 955.855 298V288ZM913.517 269.795C902.139 257.561 896.255 241.329 896.255 220.6H886.255C886.255 243.337 892.772 262.173 906.194 276.605L913.517 269.795ZM896.255 220.6C896.255 199.216 901.809 182.688 912.428 170.482L904.883 163.918C892.302 178.379 886.255 197.451 886.255 220.6H896.255ZM912.425 170.485C923.11 158.222 937.343 152 955.655 152V142C934.768 142 917.668 149.245 904.886 163.915L912.425 170.485ZM955.655 152C972.632 152 986.686 158.261 998.144 170.951L1005.57 164.249C992.225 149.473 975.479 142 955.655 142V152ZM998.144 170.951C1009.57 183.608 1015.46 200.075 1015.46 220.8H1025.46C1025.46 198.058 1018.94 179.058 1005.57 164.249L998.144 170.951ZM1015.46 220.8C1015.46 241.516 1009.51 257.662 998.03 269.757L1005.28 276.643C1018.86 262.338 1025.46 243.55 1025.46 220.8H1015.46ZM998.03 269.757C986.428 281.976 972.467 288 955.855 288V298C975.244 298 991.816 290.824 1005.28 276.643L998.03 269.757ZM940.695 271.574C946.009 279.544 952.822 284.6 961.255 284.6V274.6C957.422 274.6 953.302 272.456 949.016 266.026L940.695 271.574ZM961.255 284.6C969.865 284.6 976.121 279.404 980.144 271.202L971.167 266.798C968.257 272.73 964.913 274.6 961.255 274.6V284.6ZM980.128 271.236C984.243 263.005 986.055 251.482 986.055 237.2H976.055C976.055 250.918 974.268 260.595 971.183 266.764L980.128 271.236ZM986.055 237.2C986.055 224.994 984.821 212.984 982.349 201.176L972.562 203.224C974.89 214.35 976.055 225.673 976.055 237.2H986.055ZM982.361 201.23C980.009 189.335 976.304 179.029 971.143 170.428L962.568 175.572C967.007 182.971 970.368 192.132 972.55 203.17L982.361 201.23ZM971.174 170.481C966.106 161.792 959.368 156 950.655 156V166C954.209 166 958.271 168.208 962.537 175.519L971.174 170.481ZM950.655 156C941.598 156 935.184 161.814 931.109 170.719L940.202 174.881C943.327 168.053 946.912 166 950.655 166V156ZM931.093 170.755C927.193 179.455 925.455 191.767 925.455 207.2H935.455C935.455 192.233 937.185 181.612 940.218 174.845L931.093 170.755ZM925.455 207.2C925.455 219.535 926.689 231.362 929.172 242.672L938.939 240.528C936.622 229.971 935.455 218.865 935.455 207.2H925.455ZM929.172 242.672C931.668 254.043 935.466 263.729 940.695 271.574L949.016 266.026C944.645 259.471 941.243 251.024 938.939 240.528L929.172 242.672ZM1064.36 288.2L1067.55 292.052L1067.55 292.047L1067.56 292.041L1064.36 288.2ZM1034.16 288.2L1031.04 292.104L1034.16 288.2ZM1034.16 260L1037.28 263.904L1034.16 260ZM1064.36 260L1061.17 263.852L1061.2 263.878L1061.24 263.904L1064.36 260ZM1061.17 284.348C1058.39 286.652 1054.6 288 1049.36 288V298C1056.39 298 1062.6 296.148 1067.55 292.052L1061.17 284.348ZM1049.36 288C1044.13 288 1040.23 286.654 1037.28 284.296L1031.04 292.104C1036.09 296.146 1042.32 298 1049.36 298V288ZM1037.28 284.296C1034.73 282.256 1033.16 279.122 1033.16 274H1023.16C1023.16 281.411 1025.59 287.744 1031.04 292.104L1037.28 284.296ZM1033.16 274C1033.16 269.052 1034.71 265.965 1037.28 263.904L1031.04 256.096C1025.61 260.435 1023.16 266.681 1023.16 274H1033.16ZM1037.28 263.904C1040.23 261.546 1044.13 260.2 1049.36 260.2V250.2C1042.32 250.2 1036.09 252.054 1031.04 256.096L1037.28 263.904ZM1049.36 260.2C1054.6 260.2 1058.39 261.548 1061.17 263.852L1067.55 256.148C1062.6 252.052 1056.39 250.2 1049.36 250.2V260.2ZM1061.24 263.904C1063.81 265.965 1065.36 269.052 1065.36 274H1075.36C1075.36 266.681 1072.91 260.435 1067.48 256.096L1061.24 263.904ZM1065.36 274C1065.36 278.942 1063.81 282.148 1061.16 284.359L1067.56 292.041C1072.91 287.585 1075.36 281.324 1075.36 274H1065.36ZM1096.96 273.2L1093.3 276.605L1093.31 276.614L1093.32 276.623L1096.96 273.2ZM1095.76 167.2L1092 163.915L1091.99 163.918L1095.76 167.2ZM1188.96 167.6L1192.68 164.249L1188.96 167.6ZM1188.76 273.2L1192.39 276.643V276.643L1188.76 273.2ZM1131.96 268.8L1136.13 266.026L1131.96 268.8ZM1162.76 269L1158.29 266.764L1158.28 266.781L1158.28 266.798L1162.76 269ZM1164.56 202.2L1159.66 203.17L1159.67 203.197L1159.67 203.224L1164.56 202.2ZM1153.96 173L1149.65 175.519L1149.66 175.546L1149.68 175.572L1153.96 173ZM1122.76 172.8L1118.22 170.719L1118.21 170.737L1118.2 170.755L1122.76 172.8ZM1121.16 241.6L1116.28 242.672L1121.16 241.6ZM1142.96 288C1126.06 288 1112.05 281.961 1100.61 269.777L1093.32 276.623C1106.67 290.839 1123.33 298 1142.96 298V288ZM1100.63 269.795C1089.25 257.561 1083.36 241.329 1083.36 220.6H1073.36C1073.36 243.337 1079.88 262.173 1093.3 276.605L1100.63 269.795ZM1083.36 220.6C1083.36 199.216 1088.92 182.688 1099.54 170.482L1091.99 163.918C1079.41 178.379 1073.36 197.451 1073.36 220.6H1083.36ZM1099.53 170.485C1110.22 158.222 1124.45 152 1142.76 152V142C1121.88 142 1104.78 149.245 1092 163.915L1099.53 170.485ZM1142.76 152C1159.74 152 1173.8 158.261 1185.25 170.951L1192.68 164.249C1179.33 149.473 1162.59 142 1142.76 142V152ZM1185.25 170.951C1196.68 183.608 1202.56 200.075 1202.56 220.8H1212.56C1212.56 198.058 1206.05 179.058 1192.68 164.249L1185.25 170.951ZM1202.56 220.8C1202.56 241.516 1196.62 257.662 1185.14 269.757L1192.39 276.643C1205.97 262.338 1212.56 243.55 1212.56 220.8H1202.56ZM1185.14 269.757C1173.54 281.976 1159.58 288 1142.96 288V298C1162.35 298 1178.93 290.824 1192.39 276.643L1185.14 269.757ZM1127.8 271.574C1133.12 279.544 1139.93 284.6 1148.36 284.6V274.6C1144.53 274.6 1140.41 272.456 1136.13 266.026L1127.8 271.574ZM1148.36 284.6C1156.97 284.6 1163.23 279.404 1167.25 271.202L1158.28 266.798C1155.37 272.73 1152.02 274.6 1148.36 274.6V284.6ZM1167.24 271.236C1171.35 263.005 1173.16 251.482 1173.16 237.2H1163.16C1163.16 250.918 1161.38 260.595 1158.29 266.764L1167.24 271.236ZM1173.16 237.2C1173.16 224.994 1171.93 212.984 1169.46 201.176L1159.67 203.224C1162 214.35 1163.16 225.673 1163.16 237.2H1173.16ZM1169.47 201.23C1167.12 189.335 1163.41 179.029 1158.25 170.428L1149.68 175.572C1154.12 182.971 1157.48 192.132 1159.66 203.17L1169.47 201.23ZM1158.28 170.481C1153.22 161.792 1146.48 156 1137.76 156V166C1141.32 166 1145.38 168.208 1149.65 175.519L1158.28 170.481ZM1137.76 156C1128.71 156 1122.29 161.814 1118.22 170.719L1127.31 174.881C1130.44 168.053 1134.02 166 1137.76 166V156ZM1118.2 170.755C1114.3 179.455 1112.56 191.767 1112.56 207.2H1122.56C1122.56 192.233 1124.29 181.612 1127.33 174.845L1118.2 170.755ZM1112.56 207.2C1112.56 219.535 1113.8 231.362 1116.28 242.672L1126.05 240.528C1123.73 229.971 1122.56 218.865 1122.56 207.2H1112.56ZM1116.28 242.672C1118.78 254.043 1122.57 263.729 1127.8 271.574L1136.13 266.026C1131.75 259.471 1128.35 251.024 1126.05 240.528L1116.28 242.672Z" fill="#69A4CC"/>
<path d="M824.371 281.4L820.96 277.745L820.896 277.804L820.836 277.864L824.371 281.4ZM830.171 275L826.33 271.799L826.276 271.864L826.224 271.93L830.171 275ZM830.971 180.8L827.154 184.03L827.218 184.105L827.285 184.179L830.971 180.8ZM825.971 177.4L824.501 182.179L824.549 182.194L824.597 182.208L825.971 177.4ZM821.171 175.2L818.23 179.244L818.356 179.335L818.487 179.418L821.171 175.2ZM824.971 163.8L822.994 159.207L822.925 159.237L822.857 159.269L824.971 163.8ZM856.571 150.2L854.843 145.508L854.717 145.554L854.594 145.607L856.571 150.2ZM868.571 149.6L866.335 154.072L866.455 154.132L866.577 154.185L868.571 149.6ZM870.971 163.4L875.516 165.483V165.483L870.971 163.4ZM871.771 275L867.93 278.201L867.981 278.262L868.034 278.322L871.771 275ZM877.971 281.4L874.56 285.055L874.56 285.055L877.971 281.4ZM826.371 286C825.885 286 825.631 285.95 825.547 285.928C825.472 285.908 825.631 285.937 825.875 286.13C826.142 286.341 826.356 286.629 826.479 286.922C826.59 287.185 826.571 287.315 826.571 287.2H816.571C816.571 289.588 817.384 292.162 819.668 293.97C821.729 295.602 824.246 296 826.371 296V286ZM826.571 287.2V286.4H816.571V287.2H826.571ZM826.571 286.4C826.571 286.743 826.462 286.799 826.634 286.493C826.809 286.18 827.184 285.658 827.907 284.936L820.836 277.864C818.716 279.984 816.571 282.88 816.571 286.4H826.571ZM827.783 285.055C829.996 282.989 832.106 280.656 834.118 278.07L826.224 271.93C824.503 274.144 822.746 276.077 820.96 277.745L827.783 285.055ZM834.012 278.201C836.669 275.013 838.171 271.306 838.171 267.2H828.171C828.171 268.694 827.674 270.187 826.33 271.799L834.012 278.201ZM838.171 267.2V187.6H828.171V267.2H838.171ZM838.171 187.6C838.171 183.862 837.228 180.227 834.657 177.421L827.285 184.179C827.647 184.573 828.171 185.471 828.171 187.6H838.171ZM834.788 177.57C832.792 175.212 830.317 173.442 827.345 172.592L824.597 182.208C825.358 182.425 826.216 182.922 827.154 184.03L834.788 177.57ZM827.442 172.621C826.118 172.214 824.928 171.664 823.855 170.982L818.487 179.418C820.347 180.602 822.358 181.52 824.501 182.179L827.442 172.621ZM824.112 171.156C823.985 171.064 823.92 170.999 823.894 170.971C823.87 170.945 823.88 170.951 823.902 170.99C823.925 171.032 823.946 171.084 823.959 171.137C823.972 171.19 823.971 171.215 823.971 171.2H813.971C813.971 174.63 815.669 177.381 818.23 179.244L824.112 171.156ZM823.971 171.2V170.2H813.971V171.2H823.971ZM823.971 170.2C823.971 170.535 823.787 170.573 824.119 170.22C824.52 169.792 825.398 169.119 827.086 168.331L822.857 159.269C818.615 161.248 813.971 164.609 813.971 170.2H823.971ZM826.948 168.393L858.548 154.793L854.594 145.607L822.994 159.207L826.948 168.393ZM858.3 154.892C862.875 153.206 865.236 153.523 866.335 154.072L870.807 145.128C866.04 142.744 860.401 143.46 854.843 145.508L858.3 154.892ZM866.577 154.185C867.506 154.589 867.846 154.958 867.961 155.118C868.046 155.236 868.171 155.453 868.171 156H878.171C878.171 153.614 877.529 151.297 876.081 149.282C874.663 147.309 872.702 145.944 870.565 145.015L866.577 154.185ZM868.171 156C868.171 156.595 867.839 158.233 866.426 161.317L875.516 165.483C877.036 162.167 878.171 158.872 878.171 156H868.171ZM866.426 161.317C864.603 165.294 863.771 169.764 863.771 174.6H873.771C873.771 170.903 874.406 167.906 875.516 165.483L866.426 161.317ZM863.771 174.6V267.2H873.771V174.6H863.771ZM863.771 267.2C863.771 271.306 865.274 275.013 867.93 278.201L875.612 271.799C874.269 270.187 873.771 268.694 873.771 267.2H863.771ZM868.034 278.322C870.253 280.819 872.428 283.066 874.56 285.055L881.383 277.745C879.514 276 877.555 273.981 875.508 271.678L868.034 278.322ZM874.56 285.055C875.346 285.789 875.749 286.315 875.934 286.622C876.115 286.924 875.971 286.822 875.971 286.4H885.971C885.971 282.744 883.6 279.815 881.383 277.745L874.56 285.055ZM875.971 286.4V287.2H885.971V286.4H875.971ZM875.971 287.2C875.971 287.315 875.952 287.185 876.063 286.922C876.186 286.629 876.4 286.341 876.668 286.13C876.911 285.937 877.07 285.908 876.995 285.928C876.911 285.95 876.658 286 876.171 286V296C878.296 296 880.814 295.602 882.875 293.97C885.158 292.162 885.971 289.588 885.971 287.2H875.971ZM876.171 286H826.371V296H876.171V286ZM909.855 273.2L906.194 276.605L906.203 276.614L906.211 276.623L909.855 273.2ZM908.655 167.2L904.886 163.915L904.883 163.918L908.655 167.2ZM1001.86 167.6L1005.57 164.249L1001.86 167.6ZM1001.66 273.2L1005.28 276.643V276.643L1001.66 273.2ZM944.855 268.8L949.016 266.026L944.855 268.8ZM975.655 269L971.183 266.764L971.175 266.781L971.167 266.798L975.655 269ZM977.455 202.2L972.55 203.17L972.556 203.197L972.562 203.224L977.455 202.2ZM966.855 173L962.537 175.519L962.552 175.546L962.568 175.572L966.855 173ZM935.655 172.8L931.109 170.719L931.101 170.737L931.093 170.755L935.655 172.8ZM934.055 241.6L929.172 242.672L934.055 241.6ZM955.855 288C938.956 288 924.945 281.961 913.5 269.777L906.211 276.623C919.565 290.839 936.222 298 955.855 298V288ZM913.517 269.795C902.139 257.561 896.255 241.329 896.255 220.6H886.255C886.255 243.337 892.772 262.173 906.194 276.605L913.517 269.795ZM896.255 220.6C896.255 199.216 901.809 182.688 912.428 170.482L904.883 163.918C892.302 178.379 886.255 197.451 886.255 220.6H896.255ZM912.425 170.485C923.11 158.222 937.343 152 955.655 152V142C934.768 142 917.668 149.245 904.886 163.915L912.425 170.485ZM955.655 152C972.632 152 986.686 158.261 998.144 170.951L1005.57 164.249C992.225 149.473 975.479 142 955.655 142V152ZM998.144 170.951C1009.57 183.608 1015.46 200.075 1015.46 220.8H1025.46C1025.46 198.058 1018.94 179.058 1005.57 164.249L998.144 170.951ZM1015.46 220.8C1015.46 241.516 1009.51 257.662 998.03 269.757L1005.28 276.643C1018.86 262.338 1025.46 243.55 1025.46 220.8H1015.46ZM998.03 269.757C986.428 281.976 972.467 288 955.855 288V298C975.244 298 991.816 290.824 1005.28 276.643L998.03 269.757ZM940.695 271.574C946.009 279.544 952.822 284.6 961.255 284.6V274.6C957.422 274.6 953.302 272.456 949.016 266.026L940.695 271.574ZM961.255 284.6C969.865 284.6 976.121 279.404 980.144 271.202L971.167 266.798C968.257 272.73 964.913 274.6 961.255 274.6V284.6ZM980.128 271.236C984.243 263.005 986.055 251.482 986.055 237.2H976.055C976.055 250.918 974.268 260.595 971.183 266.764L980.128 271.236ZM986.055 237.2C986.055 224.994 984.821 212.984 982.349 201.176L972.562 203.224C974.89 214.35 976.055 225.673 976.055 237.2H986.055ZM982.361 201.23C980.009 189.335 976.304 179.029 971.143 170.428L962.568 175.572C967.007 182.971 970.368 192.132 972.55 203.17L982.361 201.23ZM971.174 170.481C966.106 161.792 959.368 156 950.655 156V166C954.209 166 958.271 168.208 962.537 175.519L971.174 170.481ZM950.655 156C941.598 156 935.184 161.814 931.109 170.719L940.202 174.881C943.327 168.053 946.912 166 950.655 166V156ZM931.093 170.755C927.193 179.455 925.455 191.767 925.455 207.2H935.455C935.455 192.233 937.185 181.612 940.218 174.845L931.093 170.755ZM925.455 207.2C925.455 219.535 926.689 231.362 929.172 242.672L938.939 240.528C936.622 229.971 935.455 218.865 935.455 207.2H925.455ZM929.172 242.672C931.668 254.043 935.466 263.729 940.695 271.574L949.016 266.026C944.645 259.471 941.243 251.024 938.939 240.528L929.172 242.672ZM1064.36 288.2L1067.55 292.052L1067.55 292.047L1067.56 292.041L1064.36 288.2ZM1034.16 288.2L1031.04 292.104L1034.16 288.2ZM1034.16 260L1037.28 263.904L1034.16 260ZM1064.36 260L1061.17 263.852L1061.2 263.878L1061.24 263.904L1064.36 260ZM1061.17 284.348C1058.39 286.652 1054.6 288 1049.36 288V298C1056.39 298 1062.6 296.148 1067.55 292.052L1061.17 284.348ZM1049.36 288C1044.13 288 1040.23 286.654 1037.28 284.296L1031.04 292.104C1036.09 296.146 1042.32 298 1049.36 298V288ZM1037.28 284.296C1034.73 282.256 1033.16 279.122 1033.16 274H1023.16C1023.16 281.411 1025.59 287.744 1031.04 292.104L1037.28 284.296ZM1033.16 274C1033.16 269.052 1034.71 265.965 1037.28 263.904L1031.04 256.096C1025.61 260.435 1023.16 266.681 1023.16 274H1033.16ZM1037.28 263.904C1040.23 261.546 1044.13 260.2 1049.36 260.2V250.2C1042.32 250.2 1036.09 252.054 1031.04 256.096L1037.28 263.904ZM1049.36 260.2C1054.6 260.2 1058.39 261.548 1061.17 263.852L1067.55 256.148C1062.6 252.052 1056.39 250.2 1049.36 250.2V260.2ZM1061.24 263.904C1063.81 265.965 1065.36 269.052 1065.36 274H1075.36C1075.36 266.681 1072.91 260.435 1067.48 256.096L1061.24 263.904ZM1065.36 274C1065.36 278.942 1063.81 282.148 1061.16 284.359L1067.56 292.041C1072.91 287.585 1075.36 281.324 1075.36 274H1065.36ZM1096.96 273.2L1093.3 276.605L1093.31 276.614L1093.32 276.623L1096.96 273.2ZM1095.76 167.2L1092 163.915L1091.99 163.918L1095.76 167.2ZM1188.96 167.6L1192.68 164.249L1188.96 167.6ZM1188.76 273.2L1192.39 276.643V276.643L1188.76 273.2ZM1131.96 268.8L1136.13 266.026L1131.96 268.8ZM1162.76 269L1158.29 266.764L1158.28 266.781L1158.28 266.798L1162.76 269ZM1164.56 202.2L1159.66 203.17L1159.67 203.197L1159.67 203.224L1164.56 202.2ZM1153.96 173L1149.65 175.519L1149.66 175.546L1149.68 175.572L1153.96 173ZM1122.76 172.8L1118.22 170.719L1118.21 170.737L1118.2 170.755L1122.76 172.8ZM1121.16 241.6L1116.28 242.672L1121.16 241.6ZM1142.96 288C1126.06 288 1112.05 281.961 1100.61 269.777L1093.32 276.623C1106.67 290.839 1123.33 298 1142.96 298V288ZM1100.63 269.795C1089.25 257.561 1083.36 241.329 1083.36 220.6H1073.36C1073.36 243.337 1079.88 262.173 1093.3 276.605L1100.63 269.795ZM1083.36 220.6C1083.36 199.216 1088.92 182.688 1099.54 170.482L1091.99 163.918C1079.41 178.379 1073.36 197.451 1073.36 220.6H1083.36ZM1099.53 170.485C1110.22 158.222 1124.45 152 1142.76 152V142C1121.88 142 1104.78 149.245 1092 163.915L1099.53 170.485ZM1142.76 152C1159.74 152 1173.8 158.261 1185.25 170.951L1192.68 164.249C1179.33 149.473 1162.59 142 1142.76 142V152ZM1185.25 170.951C1196.68 183.608 1202.56 200.075 1202.56 220.8H1212.56C1212.56 198.058 1206.05 179.058 1192.68 164.249L1185.25 170.951ZM1202.56 220.8C1202.56 241.516 1196.62 257.662 1185.14 269.757L1192.39 276.643C1205.97 262.338 1212.56 243.55 1212.56 220.8H1202.56ZM1185.14 269.757C1173.54 281.976 1159.58 288 1142.96 288V298C1162.35 298 1178.93 290.824 1192.39 276.643L1185.14 269.757ZM1127.8 271.574C1133.12 279.544 1139.93 284.6 1148.36 284.6V274.6C1144.53 274.6 1140.41 272.456 1136.13 266.026L1127.8 271.574ZM1148.36 284.6C1156.97 284.6 1163.23 279.404 1167.25 271.202L1158.28 266.798C1155.37 272.73 1152.02 274.6 1148.36 274.6V284.6ZM1167.24 271.236C1171.35 263.005 1173.16 251.482 1173.16 237.2H1163.16C1163.16 250.918 1161.38 260.595 1158.29 266.764L1167.24 271.236ZM1173.16 237.2C1173.16 224.994 1171.93 212.984 1169.46 201.176L1159.67 203.224C1162 214.35 1163.16 225.673 1163.16 237.2H1173.16ZM1169.47 201.23C1167.12 189.335 1163.41 179.029 1158.25 170.428L1149.68 175.572C1154.12 182.971 1157.48 192.132 1159.66 203.17L1169.47 201.23ZM1158.28 170.481C1153.22 161.792 1146.48 156 1137.76 156V166C1141.32 166 1145.38 168.208 1149.65 175.519L1158.28 170.481ZM1137.76 156C1128.71 156 1122.29 161.814 1118.22 170.719L1127.31 174.881C1130.44 168.053 1134.02 166 1137.76 166V156ZM1118.2 170.755C1114.3 179.455 1112.56 191.767 1112.56 207.2H1122.56C1122.56 192.233 1124.29 181.612 1127.33 174.845L1118.2 170.755ZM1112.56 207.2C1112.56 219.535 1113.8 231.362 1116.28 242.672L1126.05 240.528C1123.73 229.971 1122.56 218.865 1122.56 207.2H1112.56ZM1116.28 242.672C1118.78 254.043 1122.57 263.729 1127.8 271.574L1136.13 266.026C1131.75 259.471 1128.35 251.024 1126.05 240.528L1116.28 242.672Z" fill="#69A4CC"/>
<path d="M1397.85 258.331C1408.18 297.158 1370.61 319.932 1337.01 319.932C1303.41 319.932 1268.43 296.411 1278.76 258.331C1289.08 220.251 1318.21 196.731 1339.6 196.731C1360.98 196.731 1387.53 219.505 1397.85 258.331Z" fill="#CC4C44"/>
<path d="M781.093 267.066C793.617 314.295 748.05 341.997 707.29 341.997C666.53 341.997 624.095 313.387 636.619 267.066C649.143 220.745 684.479 192.135 710.422 192.135C736.364 192.135 768.569 219.836 781.093 267.066Z" fill="#D96058"/>
<path d="M1117.04 350.732C1128.97 395.643 1085.56 421.985 1046.73 421.985C1007.89 421.985 967.467 394.779 979.398 350.732C991.33 306.684 1024.99 279.478 1049.71 279.478C1074.43 279.478 1105.11 305.82 1117.04 350.732Z" fill="#EA645C"/>
<ellipse cx="612.265" cy="309.818" rx="48.2652" ry="44.1314" fill="#FFD698"/>
<ellipse cx="660.531" cy="353.949" rx="48.2652" ry="44.1314" fill="#FFD698"/>
<ellipse cx="729.912" cy="380.612" rx="48.2652" ry="44.1314" fill="#FFD698"/>
<ellipse cx="796.277" cy="398.081" rx="48.2652" ry="44.1314" fill="#FFD698"/>
<ellipse cx="861.636" cy="408.194" rx="48.2652" ry="44.1314" fill="#FFD698"/>
<ellipse cx="945.093" cy="414.63" rx="48.2652" ry="44.1314" fill="#FFD698"/>
<ellipse cx="1012.46" cy="418.307" rx="48.2652" ry="44.1314" fill="#FFD698"/>
<ellipse cx="796.277" cy="398.081" rx="48.2652" ry="44.1314" fill="#FFD698"/>
<ellipse cx="48.2652" cy="44.1314" rx="48.2652" ry="44.1314" transform="matrix(-1 0 0 1 1469.98 265.687)" fill="#FFD698"/>
<ellipse cx="48.2652" cy="44.1314" rx="48.2652" ry="44.1314" transform="matrix(-1 0 0 1 1412.66 309.818)" fill="#FFD698"/>
<ellipse cx="48.2652" cy="44.1314" rx="48.2652" ry="44.1314" transform="matrix(-1 0 0 1 1343.28 336.481)" fill="#FFD698"/>
<ellipse cx="48.2652" cy="44.1314" rx="48.2652" ry="44.1314" transform="matrix(-1 0 0 1 1211.56 364.063)" fill="#FFD698"/>
<ellipse cx="48.2652" cy="44.1314" rx="48.2652" ry="44.1314" transform="matrix(-1 0 0 1 1137.15 374.176)" fill="#FFD698"/>
<ellipse cx="48.2652" cy="44.1314" rx="48.2652" ry="44.1314" transform="matrix(-1 0 0 1 1276.92 353.949)" fill="#FFD698"/>
<ellipse cx="616.287" cy="732.744" rx="48.2652" ry="44.1314" fill="#FFD698"/>
<ellipse cx="664.552" cy="776.875" rx="48.2652" ry="44.1314" fill="#FFD698"/>
<ellipse cx="733.933" cy="803.538" rx="48.2652" ry="44.1314" fill="#FFD698"/>
<ellipse cx="800.298" cy="821.006" rx="48.2652" ry="44.1314" fill="#FFD698"/>
<ellipse cx="865.658" cy="831.12" rx="48.2652" ry="44.1314" fill="#FFD698"/>
<ellipse cx="949.115" cy="837.556" rx="48.2652" ry="44.1314" fill="#FFD698"/>
<ellipse cx="1016.49" cy="841.233" rx="48.2652" ry="44.1314" fill="#FFD698"/>
<ellipse cx="800.298" cy="821.006" rx="48.2652" ry="44.1314" fill="#FFD698"/>
<ellipse cx="48.2652" cy="44.1314" rx="48.2652" ry="44.1314" transform="matrix(-1 0 0 1 1474 688.612)" fill="#FFD698"/>
<ellipse cx="48.2652" cy="44.1314" rx="48.2652" ry="44.1314" transform="matrix(-1 0 0 1 1416.68 732.744)" fill="#FFD698"/>
<ellipse cx="48.2652" cy="44.1314" rx="48.2652" ry="44.1314" transform="matrix(-1 0 0 1 1347.3 759.406)" fill="#FFD698"/>
<ellipse cx="48.2652" cy="44.1314" rx="48.2652" ry="44.1314" transform="matrix(-1 0 0 1 1215.58 786.989)" fill="#FFD698"/>
<ellipse cx="48.2652" cy="44.1314" rx="48.2652" ry="44.1314" transform="matrix(-1 0 0 1 1141.17 797.102)" fill="#FFD698"/>
<ellipse cx="48.2652" cy="44.1314" rx="48.2652" ry="44.1314" transform="matrix(-1 0 0 1 1280.94 776.875)" fill="#FFD698"/>
<path d="M859.429 142.5C852.596 134.167 846.729 112.2 877.929 91C883.596 104.167 887.83 132.9 859.429 142.5Z" fill="#FFDC99"/>
<path d="M860.29 142C856.149 136.984 852.595 123.761 871.499 111C874.933 118.926 877.498 136.221 860.29 142Z" fill="#F7B17F"/>
<path d="M954.429 142.5C947.596 134.167 941.729 112.2 972.929 91C978.596 104.167 982.83 132.9 954.429 142.5Z" fill="#FFDC99"/>
<path d="M955.29 142C951.149 136.984 947.595 123.761 966.499 111C969.933 118.926 972.498 136.221 955.29 142Z" fill="#F7B17F"/>
<path d="M1141.43 142.5C1134.6 134.167 1128.73 112.2 1159.93 91C1165.6 104.167 1169.83 132.9 1141.43 142.5Z" fill="#FFDC99"/>
<path d="M1142.29 142C1138.15 136.984 1134.59 123.761 1153.5 111C1156.93 118.926 1159.5 136.221 1142.29 142Z" fill="#F7B17F"/>
<ellipse cx="1545.18" cy="199.4" rx="27.5918" ry="25.2286" fill="#F4D0D8"/>
<ellipse cx="1521.08" cy="210.62" rx="27.5918" ry="25.2286" fill="#F4D0D8"/>
<ellipse cx="1582.55" cy="189.94" rx="27.5918" ry="25.2286" fill="#F4D0D8"/>
<ellipse cx="1622.79" cy="182.581" rx="27.5918" ry="25.2286" fill="#F4D0D8"/>
<ellipse cx="1669.35" cy="177.325" rx="27.5918" ry="25.2286" fill="#F4D0D8"/>
<ellipse cx="1707.86" cy="174.171" rx="27.5918" ry="25.2286" fill="#F4D0D8"/>
<ellipse cx="27.5918" cy="25.2286" rx="27.5918" ry="25.2286" transform="matrix(-1 0 0 1 1984.93 174.697)" fill="#F4D0D8"/>
<ellipse cx="27.5918" cy="25.2286" rx="27.5918" ry="25.2286" transform="matrix(-1 0 0 1 1947.56 165.236)" fill="#F4D0D8"/>
<ellipse cx="27.5918" cy="25.2286" rx="27.5918" ry="25.2286" transform="matrix(-1 0 0 1 1907.33 157.878)" fill="#F4D0D8"/>
<ellipse cx="27.5918" cy="25.2286" rx="27.5918" ry="25.2286" transform="matrix(-1 0 0 1 1860.76 152.622)" fill="#F4D0D8"/>
<ellipse cx="27.5918" cy="25.2286" rx="27.5918" ry="25.2286" transform="matrix(-1 0 0 1 1822.25 149.469)" fill="#F4D0D8"/>
<ellipse cx="27.5918" cy="25.2286" rx="27.5918" ry="25.2286" transform="matrix(-1 0 0 1 1779.14 148.943)" fill="#F4D0D8"/>
<ellipse cx="1520.21" cy="447.536" rx="27.5918" ry="25.2286" fill="#F4D0D8"/>
<ellipse cx="1747.24" cy="473.176" rx="234.818" ry="58.8667" fill="#D7758B"/>
<rect x="1512.42" y="233.504" width="469.635" height="239.672" fill="#D7758B"/>
<ellipse cx="1747.24" cy="233.504" rx="234.818" ry="58.8667" fill="#E89BAC"/>
<ellipse cx="1517.59" cy="230.35" rx="27.5918" ry="25.2286" fill="#F4D0D8"/>
<ellipse cx="1545.18" cy="255.579" rx="27.5918" ry="25.2286" fill="#F4D0D8"/>
<ellipse cx="1584.85" cy="270.821" rx="27.5918" ry="25.2286" fill="#F4D0D8"/>
<ellipse cx="1622.79" cy="280.808" rx="27.5918" ry="25.2286" fill="#F4D0D8"/>
<ellipse cx="1660.15" cy="286.589" rx="27.5918" ry="25.2286" fill="#F4D0D8"/>
<ellipse cx="1707.86" cy="290.268" rx="27.5918" ry="25.2286" fill="#F4D0D8"/>
<ellipse cx="1746.37" cy="292.371" rx="27.5918" ry="25.2286" fill="#F4D0D8"/>
<ellipse cx="1622.79" cy="280.808" rx="27.5918" ry="25.2286" fill="#F4D0D8"/>
<ellipse cx="27.5918" cy="25.2286" rx="27.5918" ry="25.2286" transform="matrix(-1 0 0 1 2007.92 205.122)" fill="#F4D0D8"/>
<ellipse cx="27.5918" cy="25.2286" rx="27.5918" ry="25.2286" transform="matrix(-1 0 0 1 1975.16 230.35)" fill="#F4D0D8"/>
<ellipse cx="27.5918" cy="25.2286" rx="27.5918" ry="25.2286" transform="matrix(-1 0 0 1 1935.49 245.593)" fill="#F4D0D8"/>
<ellipse cx="27.5918" cy="25.2286" rx="27.5918" ry="25.2286" transform="matrix(-1 0 0 1 1860.19 261.361)" fill="#F4D0D8"/>
<ellipse cx="27.5918" cy="25.2286" rx="27.5918" ry="25.2286" transform="matrix(-1 0 0 1 1817.65 267.142)" fill="#F4D0D8"/>
<ellipse cx="27.5918" cy="25.2286" rx="27.5918" ry="25.2286" transform="matrix(-1 0 0 1 1897.55 255.579)" fill="#F4D0D8"/>
<ellipse cx="1519.89" cy="472.125" rx="27.5918" ry="25.2286" fill="#F4D0D8"/>
<ellipse cx="1547.48" cy="497.353" rx="27.5918" ry="25.2286" fill="#F4D0D8"/>
<ellipse cx="1587.15" cy="512.596" rx="27.5918" ry="25.2286" fill="#F4D0D8"/>
<ellipse cx="1625.08" cy="522.582" rx="27.5918" ry="25.2286" fill="#F4D0D8"/>
<ellipse cx="1662.45" cy="528.364" rx="27.5918" ry="25.2286" fill="#F4D0D8"/>
<ellipse cx="1710.16" cy="532.043" rx="27.5918" ry="25.2286" fill="#F4D0D8"/>
<ellipse cx="1748.67" cy="534.145" rx="27.5918" ry="25.2286" fill="#F4D0D8"/>
<ellipse cx="1625.08" cy="522.582" rx="27.5918" ry="25.2286" fill="#F4D0D8"/>
<ellipse cx="27.5918" cy="25.2286" rx="27.5918" ry="25.2286" transform="matrix(-1 0 0 1 2010.22 446.896)" fill="#F4D0D8"/>
<ellipse cx="27.5918" cy="25.2286" rx="27.5918" ry="25.2286" transform="matrix(-1 0 0 1 1977.46 472.125)" fill="#F4D0D8"/>
<ellipse cx="27.5918" cy="25.2286" rx="27.5918" ry="25.2286" transform="matrix(-1 0 0 1 1937.79 487.367)" fill="#F4D0D8"/>
<ellipse cx="27.5918" cy="25.2286" rx="27.5918" ry="25.2286" transform="matrix(-1 0 0 1 1862.49 503.135)" fill="#F4D0D8"/>
<ellipse cx="27.5918" cy="25.2286" rx="27.5918" ry="25.2286" transform="matrix(-1 0 0 1 1819.95 508.917)" fill="#F4D0D8"/>
<ellipse cx="27.5918" cy="25.2286" rx="27.5918" ry="25.2286" transform="matrix(-1 0 0 1 1899.85 497.353)" fill="#F4D0D8"/>
<ellipse cx="83.1836" cy="199.4" rx="27.5918" ry="25.2286" fill="#DDF0DD"/>
<ellipse cx="59.0762" cy="210.62" rx="27.5918" ry="25.2286" fill="#DDF0DD"/>
<ellipse cx="120.547" cy="189.94" rx="27.5918" ry="25.2286" fill="#DDF0DD"/>
<ellipse cx="160.785" cy="182.581" rx="27.5918" ry="25.2286" fill="#DDF0DD"/>
<ellipse cx="207.348" cy="177.325" rx="27.5918" ry="25.2286" fill="#DDF0DD"/>
<ellipse cx="245.859" cy="174.171" rx="27.5918" ry="25.2286" fill="#DDF0DD"/>
<ellipse cx="27.5918" cy="25.2286" rx="27.5918" ry="25.2286" transform="matrix(-1 0 0 1 522.928 174.697)" fill="#DDF0DD"/>
<ellipse cx="27.5918" cy="25.2286" rx="27.5918" ry="25.2286" transform="matrix(-1 0 0 1 485.564 165.236)" fill="#DDF0DD"/>
<ellipse cx="27.5918" cy="25.2286" rx="27.5918" ry="25.2286" transform="matrix(-1 0 0 1 445.326 157.878)" fill="#DDF0DD"/>
<ellipse cx="27.5918" cy="25.2286" rx="27.5918" ry="25.2286" transform="matrix(-1 0 0 1 398.764 152.622)" fill="#DDF0DD"/>
<ellipse cx="27.5918" cy="25.2286" rx="27.5918" ry="25.2286" transform="matrix(-1 0 0 1 360.252 149.469)" fill="#DDF0DD"/>
<ellipse cx="27.5918" cy="25.2286" rx="27.5918" ry="25.2286" transform="matrix(-1 0 0 1 317.139 148.943)" fill="#DDF0DD"/>
<ellipse cx="58.2051" cy="447.536" rx="27.5918" ry="25.2286" fill="#DDF0DD"/>
<ellipse cx="285.236" cy="473.176" rx="234.818" ry="58.8667" fill="#509871"/>
<rect x="50.418" y="233.504" width="469.635" height="239.672" fill="#509871"/>
<ellipse cx="285.236" cy="233.504" rx="234.818" ry="58.8667" fill="#6CB08B"/>
<ellipse cx="55.5918" cy="230.35" rx="27.5918" ry="25.2286" fill="#DDF0DD"/>
<ellipse cx="83.1836" cy="255.579" rx="27.5918" ry="25.2286" fill="#DDF0DD"/>
<ellipse cx="122.848" cy="270.821" rx="27.5918" ry="25.2286" fill="#DDF0DD"/>
<ellipse cx="160.785" cy="280.808" rx="27.5918" ry="25.2286" fill="#DDF0DD"/>
<ellipse cx="198.148" cy="286.589" rx="27.5918" ry="25.2286" fill="#DDF0DD"/>
<ellipse cx="245.859" cy="290.268" rx="27.5918" ry="25.2286" fill="#DDF0DD"/>
<ellipse cx="284.373" cy="292.371" rx="27.5918" ry="25.2286" fill="#DDF0DD"/>
<ellipse cx="160.785" cy="280.808" rx="27.5918" ry="25.2286" fill="#DDF0DD"/>
<ellipse cx="27.5918" cy="25.2286" rx="27.5918" ry="25.2286" transform="matrix(-1 0 0 1 545.922 205.122)" fill="#DDF0DD"/>
<ellipse cx="27.5918" cy="25.2286" rx="27.5918" ry="25.2286" transform="matrix(-1 0 0 1 513.156 230.35)" fill="#DDF0DD"/>
<ellipse cx="27.5918" cy="25.2286" rx="27.5918" ry="25.2286" transform="matrix(-1 0 0 1 473.492 245.593)" fill="#DDF0DD"/>
<ellipse cx="27.5918" cy="25.2286" rx="27.5918" ry="25.2286" transform="matrix(-1 0 0 1 398.189 261.361)" fill="#DDF0DD"/>
<ellipse cx="27.5918" cy="25.2286" rx="27.5918" ry="25.2286" transform="matrix(-1 0 0 1 355.652 267.142)" fill="#DDF0DD"/>
<ellipse cx="27.5918" cy="25.2286" rx="27.5918" ry="25.2286" transform="matrix(-1 0 0 1 435.553 255.579)" fill="#DDF0DD"/>
<ellipse cx="57.8906" cy="472.125" rx="27.5918" ry="25.2286" fill="#DDF0DD"/>
<ellipse cx="85.4824" cy="497.353" rx="27.5918" ry="25.2286" fill="#DDF0DD"/>
<ellipse cx="125.146" cy="512.596" rx="27.5918" ry="25.2286" fill="#DDF0DD"/>
<ellipse cx="163.084" cy="522.582" rx="27.5918" ry="25.2286" fill="#DDF0DD"/>
<ellipse cx="200.449" cy="528.364" rx="27.5918" ry="25.2286" fill="#DDF0DD"/>
<ellipse cx="248.158" cy="532.043" rx="27.5918" ry="25.2286" fill="#DDF0DD"/>
<ellipse cx="286.672" cy="534.145" rx="27.5918" ry="25.2286" fill="#DDF0DD"/>
<ellipse cx="163.084" cy="522.582" rx="27.5918" ry="25.2286" fill="#DDF0DD"/>
<ellipse cx="27.5918" cy="25.2286" rx="27.5918" ry="25.2286" transform="matrix(-1 0 0 1 548.219 446.896)" fill="#DDF0DD"/>
<ellipse cx="27.5918" cy="25.2286" rx="27.5918" ry="25.2286" transform="matrix(-1 0 0 1 515.455 472.125)" fill="#DDF0DD"/>
<ellipse cx="27.5918" cy="25.2286" rx="27.5918" ry="25.2286" transform="matrix(-1 0 0 1 475.791 487.367)" fill="#DDF0DD"/>
<ellipse cx="27.5918" cy="25.2286" rx="27.5918" ry="25.2286" transform="matrix(-1 0 0 1 400.488 503.135)" fill="#DDF0DD"/>
<ellipse cx="27.5918" cy="25.2286" rx="27.5918" ry="25.2286" transform="matrix(-1 0 0 1 357.951 508.917)" fill="#DDF0DD"/>
<ellipse cx="27.5918" cy="25.2286" rx="27.5918" ry="25.2286" transform="matrix(-1 0 0 1 437.854 497.353)" fill="#DDF0DD"/>
<ellipse cx="1753.5" cy="215.5" rx="75.5" ry="19.5" fill="black" fill-opacity="0.08"/>
<path d="M1773.26 164.098C1762.75 164.098 1754.24 177.208 1754.24 193.381C1754.24 209.553 1751.23 222.664 1773.26 222.664C1795.29 222.664 1792.28 209.553 1792.28 193.381C1792.28 177.208 1783.77 164.098 1773.26 164.098Z" fill="#D08572"/>
<path d="M1777.72 140.468C1772.84 134.656 1778.87 121.569 1791.18 111.238C1803.49 100.907 1812.08 90.8699 1822.3 103.055C1832.53 115.241 1821.15 121.954 1808.84 132.285C1796.53 142.617 1782.59 146.28 1777.72 140.468Z" fill="#A15148"/>
<path d="M1730.6 164.098C1720.09 164.098 1711.58 177.208 1711.58 193.381C1711.58 209.553 1708.57 222.664 1730.6 222.664C1752.63 222.664 1749.62 209.553 1749.62 193.381C1749.62 177.208 1741.11 164.098 1730.6 164.098Z" fill="#D08572"/>
<path d="M1798.93 154.101C1798.93 183.321 1784.32 196.634 1751.93 196.634C1717.15 196.634 1704.93 183.321 1704.93 154.101C1704.93 124.881 1725.97 101.193 1751.93 101.193C1777.89 101.193 1798.93 124.881 1798.93 154.101Z" fill="#D08572"/>
<path d="M1806.84 73.5719C1811.15 103.814 1793.43 120.402 1749.77 126.632C1702.89 133.321 1684.46 121.891 1680.14 91.6495C1675.83 61.4075 1700.69 32.8448 1735.68 27.8528C1770.66 22.8608 1802.52 43.3299 1806.84 73.5719Z" fill="#D08572"/>
<circle cx="1690.32" cy="40.1667" r="23.8603" transform="rotate(-8.12052 1690.32 40.1667)" fill="#D08572"/>
<circle cx="1690.02" cy="40.5756" r="9.76103" transform="rotate(-8.12052 1690.02 40.5756)" fill="#A15148"/>
<circle cx="1782.66" cy="26.9916" r="23.8603" transform="rotate(-8.12052 1782.66 26.9916)" fill="#D08572"/>
<circle cx="1782.35" cy="27.4008" r="9.76103" transform="rotate(-8.12052 1782.35 27.4008)" fill="#A15148"/>
<circle cx="1720.99" cy="86.1857" r="6.50735" transform="rotate(-8.12052 1720.99 86.1857)" fill="black"/>
<circle cx="1766.09" cy="79.7512" r="6.50735" transform="rotate(-8.12052 1766.09 79.7512)" fill="black"/>
<ellipse cx="1744" cy="86.1896" rx="11.9302" ry="9.76103" transform="rotate(-8.12052 1744 86.1896)" fill="#FFE7E2"/>
<path d="M1746.45 80.3615C1746.62 81.5474 1745.47 83.7883 1743.69 84.0421C1741.91 84.296 1740.18 82.4666 1740.01 81.2807C1739.84 80.0947 1741.15 78.9275 1742.93 78.6737C1744.71 78.4199 1746.28 79.1755 1746.45 80.3615Z" fill="black"/>
<path d="M1749.49 84.9138C1748.26 86.5471 1745.39 86.9496 1743.67 82.4465C1743.25 87.2513 1740.38 87.6538 1738.75 86.4232" stroke="black" stroke-width="3" stroke-linecap="round"/>
<ellipse cx="1781.73" cy="89.5702" rx="9.76103" ry="5.4228" transform="rotate(-8.12052 1781.73 89.5702)" fill="#A15148"/>
<ellipse cx="1708.72" cy="99.9879" rx="9.76103" ry="5.4228" transform="rotate(-8.12052 1708.72 99.9879)" fill="#A15148"/>
<path d="M1723.7 126.49C1729.07 131.855 1724.2 145.417 1712.84 156.782C1701.47 168.147 1693.79 178.894 1682.54 167.646C1671.3 156.398 1682.04 148.719 1693.41 137.354C1704.77 125.989 1718.34 121.125 1723.7 126.49Z" fill="#D08572"/>
<ellipse cx="1751.93" cy="157.229" rx="27.4755" ry="24.2218" fill="#FFE7E2"/>
<ellipse cx="281.5" cy="216.5" rx="75.5" ry="19.5" fill="black" fill-opacity="0.08"/>
<path d="M326.81 172.565C326.81 201.785 312.206 215.098 279.812 215.098C245.029 215.098 232.814 201.785 232.814 172.565C232.814 143.345 253.856 119.657 279.812 119.657C305.768 119.657 326.81 143.345 326.81 172.565Z" fill="#D08572"/>
<path d="M250.916 144.309C256.449 149.5 252.019 163.21 241.022 174.932C230.025 186.653 222.691 197.639 211.091 186.755C199.491 175.871 209.988 167.853 220.985 156.132C231.983 144.411 245.383 139.117 250.916 144.309Z" fill="#A15148"/>
<path d="M305.81 142.863C300.277 148.054 304.707 161.764 315.705 173.485C326.702 185.207 334.035 196.193 345.636 185.309C357.236 174.425 346.739 166.407 335.741 154.686C324.744 142.965 311.343 137.671 305.81 142.863Z" fill="#A15148"/>
<path d="M326.81 172.565C326.81 201.785 312.206 215.098 279.812 215.098C245.029 215.098 232.814 201.785 232.814 172.565C232.814 143.345 253.856 119.657 279.812 119.657C305.768 119.657 326.81 143.345 326.81 172.565Z" fill="#D08572"/>
<path d="M343.439 103.388C343.439 133.937 323.555 147.855 279.45 147.855C232.091 147.855 215.461 133.937 215.461 103.388C215.461 72.8402 244.11 48.0759 279.45 48.0759C314.79 48.0759 343.439 72.8402 343.439 103.388Z" fill="#D08572"/>
<circle cx="232.813" cy="53.8603" r="23.8603" fill="#D08572"/>
<circle cx="232.452" cy="54.2217" r="9.76103" fill="#A15148"/>
<circle cx="326.085" cy="53.8603" r="23.8603" fill="#D08572"/>
<circle cx="325.724" cy="54.2217" r="9.76103" fill="#A15148"/>
<circle cx="256.675" cy="103.75" r="6.50735" fill="black"/>
<circle cx="302.226" cy="103.75" r="6.50735" fill="black"/>
<ellipse cx="279.45" cy="107.004" rx="11.9302" ry="9.76103" fill="#FFE7E2"/>
<path d="M282.705 101.581C282.705 102.779 281.248 104.835 279.451 104.835C277.654 104.835 276.197 102.779 276.197 101.581C276.197 100.383 277.654 99.4119 279.451 99.4119C281.248 99.4119 282.705 100.383 282.705 101.581Z" fill="black"/>
<path d="M284.873 107.004C283.426 108.45 280.534 108.45 279.45 103.75C278.366 108.45 275.474 108.45 274.027 107.004" stroke="black" stroke-width="3" stroke-linecap="round"/>
<ellipse cx="316.325" cy="115.68" rx="9.76103" ry="5.4228" fill="#A15148"/>
<ellipse cx="242.575" cy="115.68" rx="9.76103" ry="5.4228" fill="#A15148"/>
<ellipse cx="279.811" cy="175.693" rx="27.4755" ry="24.2218" fill="#FFE7E2"/>
<path d="M301.14 178.223C290.634 178.223 282.118 188.906 282.118 202.083C282.118 215.261 279.114 225.944 301.14 225.944C323.166 225.944 320.163 215.261 320.163 202.083C320.163 188.906 311.646 178.223 301.14 178.223Z" fill="#D08572"/>
<path d="M258.482 178.223C247.976 178.223 239.459 188.906 239.459 202.083C239.459 215.261 236.456 225.944 258.482 225.944C280.508 225.944 277.505 215.261 277.505 202.083C277.505 188.906 268.988 178.223 258.482 178.223Z" fill="#D08572"/>
</svg>
