<svg width="294" height="980" viewBox="0 0 294 980" fill="none" xmlns="http://www.w3.org/2000/svg">
<path d="M112.738 12.2744L145.738 29.2744" stroke="#F9C543" stroke-width="15" stroke-linecap="round"/>
<path d="M76.7383 857.274L233.738 805.274" stroke="#F9C543" stroke-width="15" stroke-linecap="round"/>
<path d="M181.738 86.6336C195.338 75.5192 208.938 93.5802 225.258 86.6336C241.578 79.6871 233.418 58.8472 245.658 53.29C257.898 47.7327 268.778 67.183 283.738 58.8472" stroke="#F9C543" stroke-width="15" stroke-linecap="round"/>
<path d="M7.73828 8.27441C25.563 21.8666 2.25375 50.4103 20.0785 72.1579C33.7898 88.8868 59.8414 68.0802 74.9238 81.6725C90.0063 95.2647 63.9548 127.886 83.1507 140.119C102.347 152.352 124.285 130.605 140.738 148.274" stroke="#D7758B" stroke-width="15" stroke-linecap="round"/>
<rect x="267.287" y="286.944" width="21.817" height="21.817" transform="rotate(-4.71506 267.287 286.944)" fill="#D96058"/>
<path d="M228.528 170.274C231.254 190.714 206.724 181.176 195.822 196.165C184.92 211.154 216.263 220.692 209.45 235.681C202.636 250.67 180.831 237.044 175.38 252.033C169.929 267.022 201.273 273.835 191.733 294.274" stroke="#50985E" stroke-width="15" stroke-linecap="round"/>
<rect x="233.43" y="931.274" width="35.4526" height="35.4526" transform="rotate(28.0887 233.43 931.274)" fill="#50985E"/>
<path d="M137.738 411.274L180.738 395.274" stroke="#F9C543" stroke-width="15" stroke-linecap="round"/>
<path d="M242.738 490.274L285.738 525.274" stroke="#F9C543" stroke-width="15" stroke-linecap="round"/>
<path d="M69.2383 563.775C84.7383 554.275 92.7383 573.275 110.238 563.775C127.738 554.275 118.738 538.274 133.738 532.274C148.738 526.274 158.238 544.774 173.238 536.274" stroke="#D7758B" stroke-width="15" stroke-linecap="round"/>
<path d="M224.738 624.774L227.738 655.274" stroke="#50985E" stroke-width="15" stroke-linecap="round"/>
<path d="M120.238 680.774L142.238 709.774" stroke="#D7758B" stroke-width="15" stroke-linecap="round"/>
<rect x="260.104" y="701.065" width="27" height="27" transform="rotate(23.0561 260.104 701.065)" fill="#D96058"/>
</svg>
