<svg width="1545" height="301" viewBox="0 0 1545 301" fill="none" xmlns="http://www.w3.org/2000/svg">
<path d="M304.738 213.274C326.621 214.621 312.944 250.989 330.724 256.376C348.503 261.764 355.341 236.172 374.488 240.213C393.635 244.254 378.591 269.846 397.738 279.274" stroke="#F9C543" stroke-width="15" stroke-linecap="round"/>
<path d="M433.738 144.274L488.738 217.274" stroke="#F9C543" stroke-width="15" stroke-linecap="round"/>
<ellipse cx="758.738" cy="238.774" rx="12" ry="12.5" fill="#D96058"/>
<ellipse cx="228.238" cy="279.274" rx="17.5" ry="18" fill="#D96058"/>
<ellipse cx="167.738" cy="36.7744" rx="18" ry="17.5" fill="#50985E"/>
<path d="M293.738 62.2744L304.738 41.2744" stroke="#D7758B" stroke-width="15" stroke-linecap="round"/>
<path d="M378.738 51.2744L456.738 57.2744" stroke="#D7758B" stroke-width="15" stroke-linecap="round"/>
<path d="M511.738 33.2744C535.085 33.2744 524.098 65.4562 544.698 69.479C561.178 72.6971 568.045 55.0642 583.152 58.7517C602.378 63.4449 591.392 84.229 614.738 92.2744" stroke="#50985E" stroke-width="15" stroke-linecap="round"/>
<path d="M693.009 66.2744C698.439 74.5447 679.435 91.0852 686.222 106.247C693.009 121.41 707.941 113.139 713.37 126.923C719.007 141.232 705.226 147.599 707.941 168.274" stroke="#F9C543" stroke-width="15" stroke-linecap="round"/>
<path d="M749.738 17.2744L755.738 36.2744" stroke="#D7758B" stroke-width="15" stroke-linecap="round"/>
<ellipse cx="579.738" cy="205.274" rx="17" ry="18" fill="#D96058"/>
<rect x="325.979" y="142.125" width="24.5441" height="24.5441" transform="rotate(-60.3219 325.979 142.125)" fill="#50985E"/>
<rect x="0.714844" y="57.4834" width="24.5441" height="24.5441" transform="rotate(-13.1867 0.714844 57.4834)" fill="#D96058"/>
<path d="M39.7383 124.274L66.7383 174.274" stroke="#50985E" stroke-width="15" stroke-linecap="round"/>
<path d="M98.7383 271.274L130.738 283.274" stroke="#50985E" stroke-width="15" stroke-linecap="round"/>
<path d="M151.738 126.274L238.738 165.274" stroke="#F9C543" stroke-width="15" stroke-linecap="round"/>
<path d="M865.601 8.27441C868.294 27.3236 830.587 28.6843 827.894 49.0941C825.2 69.5039 860.214 73.5859 856.174 92.6351C852.134 111.684 814.427 103.52 815.773 129.373C817.12 155.225 844.054 144.34 841.361 174.274" stroke="#50985E" stroke-width="15" stroke-linecap="round"/>
<path d="M931.738 205.274L949.738 178.274" stroke="#D7758B" stroke-width="15" stroke-linecap="round"/>
<path d="M978.738 109.274L1020.74 169.274" stroke="#F9C543" stroke-width="15" stroke-linecap="round"/>
<path d="M1128.74 140.274L1143.74 213.274" stroke="#50985E" stroke-width="15" stroke-linecap="round"/>
<path d="M1181.74 70.2744L1247.74 108.274" stroke="#D7758B" stroke-width="15" stroke-linecap="round"/>
<path d="M1452.74 22.2744C1463.68 33.1744 1450 49.9786 1458.21 59.0619C1470.52 72.6869 1484.19 46.7994 1496.5 59.0619C1508.81 71.3244 1489.66 80.8619 1496.5 93.1244C1503.34 105.387 1522.49 82.2244 1533.43 93.1244C1544.37 104.024 1523.86 119.012 1533.43 131.274" stroke="#F9C543" stroke-width="15" stroke-linecap="round"/>
<rect x="911.662" y="57.5845" width="27.2712" height="27.2712" transform="rotate(29.6219 911.662 57.5845)" fill="#D96058"/>
<rect x="1058.27" y="8" width="29.9984" height="29.9984" transform="rotate(32.3465 1058.27 8)" fill="#D96058"/>
<ellipse cx="1359.74" cy="85.7744" rx="15" ry="14.5" fill="#D96058"/>
<path d="M1236.74 204.538C1249.04 187.931 1273.64 219.762 1291.4 207.306C1309.17 194.85 1291.4 169.939 1305.07 161.635C1318.74 153.331 1340.6 186.546 1359.74 167.171" stroke="#50985E" stroke-width="15" stroke-linecap="round"/>
<path d="M1433.74 184.274L1475.74 178.274" stroke="#D7758B" stroke-width="15" stroke-linecap="round"/>
<rect x="1482.11" y="247.986" width="38.1797" height="38.1797" transform="rotate(31.4339 1482.11 247.986)" fill="#50985E"/>
</svg>
