<svg width="242" height="941" viewBox="0 0 242 941" fill="none" xmlns="http://www.w3.org/2000/svg">
<path d="M104.738 816.079C122.704 808.642 139.431 829.713 159.255 822.896C179.08 816.079 161.733 790.67 179.08 782.613C196.426 774.557 216.87 806.163 231.738 790.05" stroke="#F9C543" stroke-width="15" stroke-linecap="round"/>
<path d="M185.237 513.774C196.737 526.274 174.737 550.774 185.237 572.274C195.737 593.774 211.737 585.774 219.237 599.774C230.487 620.774 207.237 629.274 224.237 651.774" stroke="#50985E" stroke-width="15" stroke-linecap="round"/>
<ellipse cx="26.2383" cy="15.2744" rx="14.5" ry="15" fill="#50985E"/>
<path d="M77.7383 102.598C95.3731 97.0918 114.364 125.999 136.069 121.869C157.773 117.739 156.417 84.7035 179.477 83.327C202.538 81.9505 201.182 108.104 233.738 102.598" stroke="#F9C543" stroke-width="15" stroke-linecap="round"/>
<rect x="39.4902" y="173.843" width="21.817" height="21.817" transform="rotate(-11.5985 39.4902 173.843)" fill="#D96058"/>
<path d="M127.463 241.182L170.145 330.643" stroke="#D7758B" stroke-width="15" stroke-linecap="round"/>
<path d="M11.7383 736.274H88.7383" stroke="#50985E" stroke-width="15" stroke-linecap="round"/>
<path d="M22.7383 318.274L35.7383 341.274" stroke="#F9C543" stroke-width="15" stroke-linecap="round"/>
<path d="M11.7383 479.934C28.1645 473.131 48.6973 503.064 63.7547 496.261C78.8121 489.458 62.3858 454.083 77.4432 450.001C92.5006 445.919 106.189 479.934 122.615 471.771C139.042 463.607 118.509 430.952 132.197 424.149C145.886 417.346 163.681 452.722 178.738 444.558" stroke="#F9C543" stroke-width="15" stroke-linecap="round"/>
<circle cx="66.2383" cy="571.774" r="19.5" fill="#50985E"/>
<rect x="124.689" y="638.274" width="38" height="38" transform="rotate(28.1913 124.689 638.274)" fill="#D96058"/>
<rect y="903.249" width="38" height="38" transform="rotate(-11.7107 0 903.249)" fill="#D96058"/>
</svg>
