<svg width="1728" height="226" viewBox="0 0 1728 226" fill="none" xmlns="http://www.w3.org/2000/svg">
<g filter="url(#filter0_d_2232_4175)">
<path d="M-15 6.23438C183.381 77.6982 643.212 105.14 856.5 105.14C1069.79 105.14 1529.62 77.6982 1728 6.23438" stroke="#502201" stroke-width="11.4342" stroke-linecap="round"/>
<path d="M121.861 47.6405C123.5 44.7518 127.877 45.6399 128.254 48.9376L131.868 80.5784C132.037 82.0534 133.136 83.2516 134.591 83.5469L165.868 89.8929C169.127 90.5541 169.628 94.9994 166.599 96.3757L137.573 109.565C136.217 110.181 135.412 111.601 135.581 113.079L139.192 144.694C139.569 147.993 135.502 149.852 133.255 147.407L111.677 123.925C110.674 122.833 109.082 122.51 107.732 123.124L78.6657 136.331C75.6395 137.706 72.6245 134.41 74.2646 131.52L89.9788 103.827C90.7137 102.531 90.5295 100.911 89.5228 99.8156L67.9733 76.3645C65.7246 73.9174 67.9283 70.0209 71.1871 70.6821L102.464 77.0282C103.919 77.3235 105.4 76.6489 106.134 75.3569L121.861 47.6405Z" fill="#D96058"/>
<path d="M248.999 69.3282C250.46 66.3457 254.882 66.9673 255.459 70.2362L260.992 101.601C261.249 103.063 262.419 104.192 263.89 104.399L295.495 108.841C298.788 109.304 299.559 113.711 296.619 115.268L268.449 130.189C267.133 130.886 266.416 132.352 266.675 133.818L272.203 165.155C272.78 168.426 268.834 170.528 266.442 168.223L243.474 146.088C242.407 145.06 240.799 144.834 239.488 145.528L211.278 160.469C208.342 162.025 205.132 158.917 206.593 155.933L220.593 127.34C221.248 126.003 220.966 124.397 219.894 123.364L196.958 101.26C194.565 98.9536 196.528 94.9306 199.82 95.3934L231.426 99.8358C232.896 100.043 234.333 99.2796 234.987 97.9455L248.999 69.3282Z" fill="#50985E"/>
<path d="M382.121 85.5354C383.468 82.5001 387.911 82.9553 388.61 86.2002L395.324 117.335C395.637 118.787 396.848 119.871 398.326 120.023L430.076 123.275C433.384 123.614 434.321 127.989 431.442 129.656L403.856 145.623C402.567 146.369 401.906 147.861 402.22 149.316L408.927 180.423C409.627 183.67 405.763 185.919 403.287 183.706L379.499 162.449C378.393 161.461 376.778 161.296 375.495 162.039L347.869 178.029C344.993 179.693 341.668 176.708 343.016 173.671L355.926 144.573C356.53 143.212 356.187 141.618 355.077 140.626L331.323 119.399C328.845 117.184 330.654 113.09 333.962 113.429L365.712 116.682C367.189 116.833 368.597 116.016 369.199 114.659L382.121 85.5354Z" fill="#F9C543"/>
<path d="M516.184 97.4505C517.445 94.3788 521.898 94.7096 522.689 97.9338L530.274 128.869C530.628 130.311 531.869 131.362 533.35 131.472L565.179 133.836C568.496 134.083 569.555 138.43 566.724 140.176L539.597 156.907C538.33 157.689 537.711 159.199 538.066 160.645L545.644 191.552C546.435 194.778 542.636 197.134 540.098 194.992L515.722 174.407C514.59 173.451 512.971 173.33 511.708 174.109L484.542 190.864C481.714 192.609 478.307 189.717 479.569 186.644L491.657 157.197C492.223 155.82 491.835 154.235 490.698 153.275L466.357 132.72C463.817 130.575 465.51 126.432 468.827 126.678L500.656 129.043C502.137 129.153 503.521 128.297 504.085 126.923L516.184 97.4505Z" fill="#D7758B"/>
<path d="M649.086 105.8C650.271 102.698 654.731 102.919 655.601 106.123L663.948 136.863C664.338 138.296 665.605 139.315 667.088 139.389L698.966 140.971C702.287 141.136 703.453 145.456 700.666 147.271L673.962 164.663C672.714 165.476 672.133 167.001 672.523 168.437L680.863 199.149C681.733 202.355 677.993 204.804 675.404 202.724L650.526 182.744C649.37 181.816 647.749 181.735 646.506 182.545L619.762 199.963C616.978 201.776 613.501 198.969 614.686 195.865L626.043 166.131C626.574 164.74 626.148 163.165 624.987 162.233L600.146 142.283C597.554 140.201 599.144 136.017 602.466 136.182L634.343 137.764C635.827 137.838 637.189 136.948 637.719 135.561L649.086 105.8Z" fill="#D96058"/>
<path d="M783.933 110.831C785.029 107.697 789.494 107.793 790.454 110.971L799.666 141.464C800.096 142.886 801.391 143.869 802.876 143.901L834.786 144.587C838.111 144.659 839.398 148.945 836.664 150.837L810.461 168.973C809.237 169.82 808.699 171.36 809.129 172.786L818.333 203.251C819.294 206.431 815.625 208.984 812.978 206.977L787.546 187.704C786.364 186.809 784.741 186.774 783.522 187.618L757.28 205.78C754.549 207.671 750.993 204.963 752.091 201.827L762.603 171.785C763.095 170.38 762.624 168.818 761.437 167.919L736.043 148.674C733.392 146.666 734.864 142.439 738.189 142.511L770.099 143.197C771.583 143.229 772.92 142.302 773.411 140.9L783.933 110.831Z" fill="#50985E"/>
<path d="M921.025 111.004C921.985 107.826 926.45 107.73 927.546 110.864L938.068 140.932C938.559 142.334 939.895 143.261 941.38 143.229L973.29 142.543C976.615 142.472 978.086 146.698 975.436 148.707L950.042 167.952C948.855 168.851 948.384 170.413 948.876 171.818L959.388 201.86C960.486 204.995 956.93 207.704 954.199 205.813L927.957 187.651C926.738 186.807 925.115 186.842 923.933 187.737L898.501 207.01C895.854 209.017 892.185 206.464 893.145 203.284L902.35 172.818C902.78 171.393 902.242 169.853 901.018 169.005L874.815 150.87C872.081 148.977 873.368 144.691 876.693 144.62L908.603 143.934C910.087 143.902 911.383 142.918 911.812 141.497L921.025 111.004Z" fill="#F9C543"/>
<path d="M1051.53 106.412C1052.4 103.209 1056.86 102.989 1058.05 106.091L1069.4 135.857C1069.93 137.245 1071.29 138.134 1072.78 138.061L1104.65 136.492C1107.98 136.329 1109.57 140.513 1106.97 142.594L1082.12 162.534C1080.96 163.466 1080.53 165.041 1081.07 166.432L1092.41 196.171C1093.59 199.275 1090.12 202.08 1087.33 200.266L1060.6 182.837C1059.35 182.028 1057.73 182.107 1056.58 183.035L1031.69 203.005C1029.1 205.084 1025.36 202.633 1026.23 199.428L1034.58 168.72C1034.98 167.283 1034.39 165.758 1033.15 164.945L1006.45 147.542C1003.66 145.726 1004.83 141.406 1008.15 141.242L1040.03 139.673C1041.51 139.6 1042.78 138.581 1043.17 137.148L1051.53 106.412Z" fill="#D7758B"/>
<path d="M1188.8 98.0477C1189.59 94.8236 1194.04 94.4927 1195.3 97.5644L1207.4 127.037C1207.97 128.411 1209.35 129.267 1210.83 129.157L1242.66 126.792C1245.98 126.546 1247.67 130.689 1245.13 132.834L1220.79 153.389C1219.65 154.349 1219.26 155.934 1219.83 157.311L1231.92 186.758C1233.18 189.831 1229.77 192.723 1226.94 190.978L1199.78 174.223C1198.52 173.444 1196.9 173.565 1195.76 174.521L1171.39 195.106C1168.85 197.248 1165.05 194.892 1165.84 191.666L1173.42 160.759C1173.78 159.313 1173.16 157.803 1171.89 157.021L1144.76 140.29C1141.93 138.544 1142.99 134.197 1146.31 133.95L1178.14 131.586C1179.62 131.476 1180.86 130.425 1181.21 128.983L1188.8 98.0477Z" fill="#D96058"/>
<path d="M1318.18 86.832C1318.88 83.5874 1323.33 83.1348 1324.67 86.1708L1337.58 115.301C1338.18 116.659 1339.59 117.476 1341.06 117.326L1372.82 114.091C1376.12 113.754 1377.93 117.849 1375.45 120.063L1351.69 141.276C1350.57 142.267 1350.23 143.862 1350.83 145.223L1363.73 174.328C1365.07 177.366 1361.75 180.349 1358.87 178.683L1331.26 162.678C1329.97 161.934 1328.36 162.098 1327.25 163.086L1303.45 184.33C1300.97 186.541 1297.11 184.29 1297.81 181.044L1304.54 149.94C1304.85 148.485 1304.19 146.993 1302.9 146.246L1275.33 130.264C1272.45 128.596 1273.39 124.221 1276.7 123.884L1308.45 120.649C1309.93 120.498 1311.14 119.414 1311.45 117.963L1318.18 86.832Z" fill="#50985E"/>
<path d="M1451.61 71.066C1452.18 67.7976 1456.61 67.1794 1458.07 70.163L1472.06 98.791C1472.71 100.126 1474.14 100.89 1475.62 100.684L1507.22 96.2659C1510.52 95.8056 1512.48 99.8301 1510.08 102.135L1487.13 124.221C1486.06 125.253 1485.77 126.859 1486.43 128.197L1500.4 156.8C1501.86 159.785 1498.65 162.891 1495.72 161.333L1467.52 146.37C1466.21 145.675 1464.6 145.9 1463.53 146.927L1440.55 169.045C1438.15 171.347 1434.21 169.242 1434.79 165.972L1440.34 134.639C1440.6 133.173 1439.88 131.707 1438.57 131.009L1410.41 116.067C1407.47 114.508 1408.25 110.101 1411.54 109.641L1443.15 105.222C1444.62 105.017 1445.79 103.888 1446.05 102.426L1451.61 71.066Z" fill="#F9C543"/>
<path d="M1583.28 49.235C1583.66 45.9373 1588.04 45.0492 1589.68 47.9379L1605.4 75.6542C1606.14 76.9463 1607.62 77.6209 1609.07 77.3256L1640.35 70.9795C1643.61 70.3183 1645.81 74.2147 1643.56 76.6618L1622.01 100.113C1621.01 101.209 1620.82 102.829 1621.56 104.124L1637.27 131.817C1638.91 134.707 1635.9 138.004 1632.87 136.629L1603.81 123.422C1602.46 122.808 1600.86 123.131 1599.86 124.222L1578.28 147.705C1576.04 150.15 1571.97 148.291 1572.35 144.991L1575.96 113.377C1576.13 111.898 1575.32 110.478 1573.96 109.862L1544.94 96.6731C1541.91 95.2968 1542.41 90.8515 1545.67 90.1903L1576.95 83.8442C1578.4 83.5489 1579.5 82.3508 1579.67 80.8758L1583.28 49.235Z" fill="#D7758B"/>
</g>
<defs>
<filter id="filter0_d_2232_4175" x="-20.7186" y="0.515625" width="1754.44" height="211.78" filterUnits="userSpaceOnUse" color-interpolation-filters="sRGB">
<feFlood flood-opacity="0" result="BackgroundImageFix"/>
<feColorMatrix in="SourceAlpha" type="matrix" values="0 0 0 0 0 0 0 0 0 0 0 0 0 0 0 0 0 0 127 0" result="hardAlpha"/>
<feOffset dy="4.57368"/>
<feComposite in2="hardAlpha" operator="out"/>
<feColorMatrix type="matrix" values="0 0 0 0 0 0 0 0 0 0 0 0 0 0 0 0 0 0 0.25 0"/>
<feBlend mode="normal" in2="BackgroundImageFix" result="effect1_dropShadow_2232_4175"/>
<feBlend mode="normal" in="SourceGraphic" in2="effect1_dropShadow_2232_4175" result="shape"/>
</filter>
</defs>
</svg>
