<svg width="1176" height="287" viewBox="0 0 1176 287" fill="none" xmlns="http://www.w3.org/2000/svg">
<g filter="url(#filter0_d_2232_3717)">
<ellipse cx="76.6292" cy="64.8006" rx="21.0362" ry="8.58621" transform="rotate(-19.1124 76.6292 64.8006)" fill="#F9C2D6"/>
<ellipse cx="44.4049" cy="87.5541" rx="7.32383" ry="7.43127" transform="rotate(-19.1124 44.4049 87.5541)" fill="#F9C2D6"/>
<ellipse cx="302.293" cy="118.267" rx="12.9324" ry="5.27852" transform="rotate(-19.1124 302.293 118.267)" fill="#DFEDBD"/>
<ellipse cx="282.607" cy="133.397" rx="4.24725" ry="4.30956" transform="rotate(-19.1124 282.607 133.397)" fill="#DFEDBD"/>
<ellipse cx="599.529" cy="51.0627" rx="21.0362" ry="8.58621" transform="rotate(-19.1124 599.529 51.0627)" fill="#FEE190"/>
<path d="M571.649 71.4182C572.993 75.2961 570.984 79.5134 567.162 80.8378C563.34 82.1622 559.153 80.0921 557.809 76.2141C556.465 72.3362 558.474 68.1189 562.296 66.7945C566.118 65.4701 570.305 67.5402 571.649 71.4182Z" fill="#FEE190"/>
<path fill-rule="evenodd" clip-rule="evenodd" d="M419.857 141.297C415.178 146.362 408.935 149.632 401.919 150.086C387.509 151.019 374.8 139.745 371.732 124.18C350.399 134.283 336.402 154.783 337.869 177.462C339.859 208.221 369.543 231.339 404.17 229.099C438.068 226.906 453.004 212.01 451.116 172.713C450.98 172.723 450.844 172.733 450.708 172.742C434.856 173.768 421.061 160.022 419.898 142.04C419.882 141.792 419.868 141.544 419.857 141.297Z" fill="#B2D240"/>
<path fill-rule="evenodd" clip-rule="evenodd" d="M420.79 148.074C419.324 146.685 417.739 145.456 416.058 144.409C411.997 147.492 407.166 149.421 401.899 149.761C396.273 150.125 390.907 148.629 386.273 145.744C378.11 151.94 373.058 162.801 373.835 174.808C374.999 192.79 388.793 206.536 404.646 205.511C420.498 204.485 432.406 189.076 431.243 171.094C431.108 169.016 430.805 166.995 430.35 165.046C425.784 160.718 422.37 154.834 420.79 148.074Z" fill="#DFEDBD"/>
<path d="M412.315 197.701C413.12 210.151 429.31 219.238 448.475 217.998C467.64 216.758 483.407 219.312 481.718 193.21C480.029 167.108 464.723 171.673 445.558 172.913C426.393 174.153 411.509 185.251 412.315 197.701Z" fill="#B2D240"/>
<path d="M311.979 103.094C348.18 100.752 366.198 123.247 369.58 175.514C373.212 231.636 357.992 252.41 321.792 254.753C285.591 257.095 254.048 225.044 251.338 183.164C248.628 141.285 275.778 105.436 311.979 103.094Z" fill="#B2D240"/>
<circle cx="261.768" cy="237.986" r="28.3345" transform="rotate(-93.702 261.768 237.986)" fill="#B2D240"/>
<circle cx="262.224" cy="238.387" r="11.5914" transform="rotate(-93.702 262.224 238.387)" fill="#A3CA39"/>
<circle cx="254.617" cy="127.455" r="28.3345" transform="rotate(-93.702 254.617 127.455)" fill="#B2D240"/>
<circle cx="255.073" cy="127.856" r="11.5914" transform="rotate(-93.702 255.073 127.856)" fill="#A3CA39"/>
<circle cx="318.171" cy="192.176" r="7.72758" transform="rotate(-93.702 318.171 192.176)" fill="#69A744"/>
<circle cx="314.679" cy="138.196" r="7.72758" transform="rotate(-93.702 314.679 138.196)" fill="#69A744"/>
<ellipse cx="320.281" cy="164.937" rx="14.1672" ry="11.5914" transform="rotate(-93.702 320.281 164.937)" fill="#DFEDBD"/>
<path d="M313.606 161.497C315.025 161.405 317.573 162.974 317.711 165.103C317.849 167.233 315.524 169.117 314.104 169.208C312.685 169.3 311.422 167.648 311.285 165.519C311.147 163.39 312.186 161.589 313.606 161.497Z" fill="#69A744"/>
<path d="M319.011 158.569C320.836 160.173 321.058 163.6 315.572 165.245C321.224 166.169 321.446 169.596 319.843 171.421" stroke="#69A744" stroke-width="2.57586" stroke-linecap="round"/>
<ellipse cx="327.736" cy="120.573" rx="11.5914" ry="6.43965" transform="rotate(-93.702 327.736 120.573)" fill="#A3CA39"/>
<ellipse cx="333.391" cy="207.97" rx="11.5914" ry="6.43965" transform="rotate(-93.702 333.391 207.97)" fill="#A3CA39"/>
<path d="M367.564 209.599C373.291 202.644 389.878 206.843 404.611 218.976C419.345 231.11 432.926 238.958 420.917 253.539C408.909 268.12 398.602 256.296 383.869 244.162C369.136 232.028 361.836 216.554 367.564 209.599Z" fill="#A3CA39"/>
<path d="M644.243 190.614C631.767 190.614 621.653 206.183 621.653 225.388C621.653 244.593 618.086 260.162 644.243 260.162C670.399 260.162 666.832 244.593 666.832 225.388C666.832 206.183 656.719 190.614 644.243 190.614Z" fill="#FFB818"/>
<path d="M593.584 190.614C581.108 190.614 570.995 206.183 570.995 225.388C570.995 244.593 567.428 260.162 593.584 260.162C619.741 260.162 616.174 244.593 616.174 225.388C616.174 206.183 606.06 190.614 593.584 190.614Z" fill="#FFB818"/>
<path d="M584.6 145.188C591.171 151.353 585.91 167.634 572.851 181.553C559.791 195.472 551.083 208.518 537.307 195.593C523.532 182.668 535.997 173.147 549.057 159.228C562.116 145.309 578.03 139.023 584.6 145.188Z" fill="#FFA217"/>
<path d="M649.787 143.471C643.216 149.636 648.476 165.917 661.536 179.836C674.596 193.755 683.304 206.801 697.08 193.876C710.855 180.951 698.39 171.43 685.33 157.511C672.27 143.592 656.357 137.306 649.787 143.471Z" fill="#FFA217"/>
<path d="M674.724 178.742C674.724 213.442 657.382 229.252 618.914 229.252C577.608 229.252 563.103 213.442 563.103 178.742C563.103 144.043 588.09 115.914 618.914 115.914C649.737 115.914 674.724 144.043 674.724 178.742Z" fill="#FFB818"/>
<path d="M694.472 96.5947C694.472 132.871 670.86 149.4 618.485 149.4C562.245 149.4 542.497 132.871 542.497 96.5947C542.497 60.3182 576.518 30.9103 618.485 30.9103C660.451 30.9103 694.472 60.3182 694.472 96.5947Z" fill="#FFB818"/>
<circle cx="563.104" cy="37.7793" r="28.3345" fill="#FFB818"/>
<circle cx="562.674" cy="38.2086" r="11.5914" fill="#FFA217"/>
<circle cx="673.865" cy="37.7793" r="28.3345" fill="#FFB818"/>
<circle cx="673.436" cy="38.2086" r="11.5914" fill="#FFA217"/>
<circle cx="591.438" cy="97.0241" r="7.72758" fill="#FF7F00"/>
<circle cx="645.531" cy="97.0241" r="7.72758" fill="#FF7F00"/>
<ellipse cx="618.484" cy="100.888" rx="14.1672" ry="11.5914" fill="#FEE190"/>
<path d="M622.348 94.4482C622.348 95.8708 620.618 98.312 618.484 98.312C616.35 98.312 614.62 95.8708 614.62 94.4482C614.62 93.0256 616.35 91.8723 618.484 91.8723C620.618 91.8723 622.348 93.0256 622.348 94.4482Z" fill="#FF7F00"/>
<path d="M624.925 100.888C619.773 100.888 618.485 98.312 618.485 97.024C618.485 98.312 617.196 100.888 612.044 100.888" stroke="#FF7F00" stroke-width="2.57586" stroke-linecap="round"/>
<ellipse cx="662.274" cy="111.191" rx="11.5914" ry="6.43965" fill="#FFA217"/>
<ellipse cx="574.694" cy="111.191" rx="11.5914" ry="6.43965" fill="#FFA217"/>
<ellipse cx="618.484" cy="100.888" rx="14.1672" ry="11.5914" fill="#FEE190"/>
<path d="M622.348 94.4482C622.348 95.8708 620.618 98.312 618.484 98.312C616.35 98.312 614.62 95.8708 614.62 94.4482C614.62 93.0256 616.35 91.8723 618.484 91.8723C620.618 91.8723 622.348 93.0256 622.348 94.4482Z" fill="#FF7F00"/>
<path d="M624.925 100.888C623.206 102.605 619.772 102.605 618.485 97.024C617.198 102.605 613.763 102.605 612.045 100.888" stroke="#FF7F00" stroke-width="2.57586" stroke-linecap="round"/>
<ellipse cx="662.274" cy="111.191" rx="11.5914" ry="6.43965" fill="#FFA217"/>
<ellipse cx="574.694" cy="111.191" rx="11.5914" ry="6.43965" fill="#FFA217"/>
<ellipse cx="618.914" cy="182.457" rx="32.6276" ry="28.7638" fill="#FEE190"/>
<path d="M97.731 231.398C97.731 243.874 113.3 253.988 132.505 253.988C151.71 253.988 167.279 257.555 167.279 231.398C167.279 205.242 151.71 208.808 132.505 208.808C113.3 208.808 97.731 218.922 97.731 231.398Z" fill="#D72348"/>
<path d="M129.463 155.492C122.892 161.656 128.153 177.938 141.212 191.857C154.272 205.776 162.98 218.822 176.756 205.897C190.531 192.972 178.066 183.451 165.006 169.532C151.947 155.613 136.033 149.327 129.463 155.492Z" fill="#D72348"/>
<path d="M154.4 190.763C154.4 225.462 137.058 241.272 98.5896 241.272C57.2837 241.272 42.7793 225.462 42.7793 190.763C42.7793 156.064 67.7664 127.934 98.5896 127.934C129.413 127.934 154.4 156.064 154.4 190.763Z" fill="#E84567"/>
<path d="M174.148 108.615C174.148 144.892 150.536 161.421 98.1599 161.421C41.9202 161.421 22.1719 144.892 22.1719 108.615C22.1719 72.3388 56.1929 42.9309 98.1599 42.9309C140.127 42.9309 174.148 72.3388 174.148 108.615Z" fill="#E84567"/>
<circle cx="42.7783" cy="49.7999" r="28.3345" fill="#E84567"/>
<circle cx="42.349" cy="50.2292" r="11.5914" fill="#D72348"/>
<circle cx="153.541" cy="49.7999" r="28.3345" fill="#E84567"/>
<circle cx="153.111" cy="50.2292" r="11.5914" fill="#D72348"/>
<circle cx="84.8514" cy="109.045" r="7.72758" fill="#B11C35"/>
<circle cx="138.945" cy="109.045" r="7.72758" fill="#B11C35"/>
<ellipse cx="111.898" cy="112.909" rx="14.1672" ry="11.5914" fill="#FFE7E2"/>
<path d="M115.762 106.469C115.762 107.891 114.032 110.333 111.898 110.333C109.764 110.333 108.034 107.891 108.034 106.469C108.034 105.046 109.764 103.893 111.898 103.893C114.032 103.893 115.762 105.046 115.762 106.469Z" fill="#B11C35"/>
<path d="M118.338 112.908C116.62 114.626 113.186 114.626 111.899 109.045C110.612 114.626 107.177 114.626 105.459 112.908" stroke="#B11C35" stroke-width="2.57586" stroke-linecap="round"/>
<ellipse cx="155.688" cy="123.212" rx="11.5914" ry="6.43965" fill="#D72348"/>
<ellipse cx="68.1083" cy="123.212" rx="11.5914" ry="6.43965" fill="#D72348"/>
<path d="M64.2762 157.209C70.8468 163.374 65.5864 179.655 52.5268 193.574C39.4672 207.493 30.7588 220.539 16.9833 207.614C3.20778 194.689 15.6731 185.168 28.7327 171.249C41.7923 157.33 57.7057 151.044 64.2762 157.209Z" fill="#E84567"/>
<ellipse cx="109.752" cy="194.477" rx="32.6276" ry="28.7638" fill="#FFE7E2"/>
<path d="M57.3759 237.409C57.3759 249.884 72.9448 259.998 92.15 259.998C111.355 259.998 126.924 263.565 126.924 237.409C126.924 211.252 111.355 214.819 92.15 214.819C72.9448 214.819 57.3759 224.933 57.3759 237.409Z" fill="#E84567"/>
<path d="M49.6482 247.283C44.153 238.696 43.3516 214.226 43.6378 203.064L86.9982 259.733C76.8378 259.16 55.1433 255.869 49.6482 247.283Z" fill="#E84567"/>
<path d="M896.278 194.868C883.802 194.868 873.688 210.437 873.688 229.643C873.688 248.848 870.121 264.417 896.278 264.417C922.434 264.417 918.868 248.848 918.868 229.643C918.868 210.437 908.754 194.868 896.278 194.868Z" fill="#A162F9"/>
<path d="M901.57 166.808C895.779 159.906 902.936 144.365 917.557 132.097C932.179 119.828 942.375 107.909 954.518 122.38C966.66 136.85 953.151 144.822 938.53 157.091C923.909 169.359 907.361 173.71 901.57 166.808Z" fill="#8D4BF3"/>
<path d="M845.619 194.868C833.143 194.868 823.03 210.437 823.03 229.643C823.03 248.848 819.463 264.417 845.619 264.417C871.776 264.417 868.209 248.848 868.209 229.643C868.209 210.437 858.095 194.868 845.619 194.868Z" fill="#A162F9"/>
<path d="M926.759 182.997C926.759 217.696 909.417 233.506 870.949 233.506C829.643 233.506 815.138 217.696 815.138 182.997C815.138 148.298 840.125 120.168 870.949 120.168C901.772 120.168 926.759 148.298 926.759 182.997Z" fill="#A162F9"/>
<path d="M936.149 87.3677C941.273 123.281 920.233 142.979 868.382 150.377C812.706 158.321 790.821 144.748 785.697 108.835C780.573 72.9224 810.099 39.0037 851.645 33.0756C893.191 27.1475 931.025 51.4549 936.149 87.3677Z" fill="#A162F9"/>
<circle cx="797.789" cy="47.6986" r="28.3345" transform="rotate(-8.12052 797.789 47.6986)" fill="#A162F9"/>
<circle cx="797.424" cy="48.1842" r="11.5914" transform="rotate(-8.12052 797.424 48.1842)" fill="#8D4BF3"/>
<circle cx="907.44" cy="32.0528" r="28.3345" transform="rotate(-8.12052 907.44 32.0528)" fill="#A162F9"/>
<circle cx="907.076" cy="32.5385" r="11.5914" transform="rotate(-8.12052 907.076 32.5385)" fill="#8D4BF3"/>
<ellipse cx="861.53" cy="102.352" rx="14.1672" ry="11.5914" transform="rotate(-8.12052 861.53 102.352)" fill="#AA7BFF"/>
<path d="M864.445 95.4308C864.646 96.8391 863.278 99.5002 861.165 99.8016C859.053 100.103 856.996 97.9307 856.795 96.5223C856.594 95.114 858.143 93.7279 860.256 93.4265C862.368 93.1251 864.244 94.0224 864.445 95.4308Z" fill="#6C2ECC"/>
<path d="M868.05 100.836C866.587 102.776 863.186 103.254 861.135 97.9065C860.637 103.612 857.236 104.09 855.296 102.629" stroke="#6C2ECC" stroke-width="2.57586" stroke-linecap="round"/>
<ellipse cx="906.336" cy="106.366" rx="11.5914" ry="6.43965" transform="rotate(-8.12052 906.336 106.366)" fill="#8D4BF3"/>
<ellipse cx="819.634" cy="118.737" rx="11.5914" ry="6.43965" transform="rotate(-8.12052 819.634 118.737)" fill="#8D4BF3"/>
<path d="M895.618 96.1628L882.684 93.8789L891.951 85.9397" stroke="#6C2ECC" stroke-width="5.15172" stroke-linecap="round" stroke-linejoin="round"/>
<path d="M827.415 104.034L838.796 97.4775L827.377 93.1732" stroke="#6C2ECC" stroke-width="5.15172" stroke-linecap="round" stroke-linejoin="round"/>
<path d="M837.425 150.209C843.796 156.579 838.02 172.685 824.524 186.181C811.028 199.677 801.908 212.439 788.551 199.082C775.194 185.725 787.956 176.606 801.453 163.11C814.949 149.614 831.054 143.838 837.425 150.209Z" fill="#A162F9"/>
<ellipse cx="870.949" cy="186.712" rx="32.6276" ry="28.7638" fill="#C3A3FF"/>
<path fill-rule="evenodd" clip-rule="evenodd" d="M1099.74 47.6534C1099.74 63.5392 1114.35 76.4172 1132.37 76.4172C1132.59 76.4172 1132.8 76.4153 1133.02 76.4116C1125.31 81.6727 1120.35 89.9107 1120.35 99.1707C1120.35 113.173 1131.7 124.838 1146.73 127.408C1137.14 144.137 1115.72 151.976 1076.99 151.976C1024.61 151.976 1001 135.447 1001 99.1707C1001 62.8941 1035.02 33.4862 1076.99 33.4862C1085.75 33.4862 1094.16 34.7679 1101.99 37.1263C1100.54 40.3866 1099.74 43.9377 1099.74 47.6534Z" fill="#6FC2E4"/>
<path d="M1052.08 194.048C1064.56 194.048 1074.67 209.617 1074.67 228.822C1074.67 248.028 1078.24 263.596 1052.08 263.596C1025.92 263.596 1029.49 248.028 1029.49 228.822C1029.49 209.617 1039.61 194.048 1052.08 194.048Z" fill="#60AFCF"/>
<path d="M1102.74 194.048C1115.22 194.048 1125.33 209.617 1125.33 228.822C1125.33 248.028 1128.9 263.596 1102.74 263.596C1076.58 263.596 1080.15 248.028 1080.15 228.822C1080.15 209.617 1090.26 194.048 1102.74 194.048Z" fill="#6FC2E4"/>
<path d="M1046.54 146.905C1053.11 153.07 1047.85 169.351 1034.79 183.27C1021.73 197.189 1013.02 210.235 999.244 197.311C985.469 184.386 997.934 174.865 1010.99 160.946C1024.05 147.027 1039.97 140.741 1046.54 146.905Z" fill="#60AFCF"/>
<path d="M1021.6 182.177C1021.6 216.876 1038.94 232.686 1077.41 232.686C1118.72 232.686 1133.22 216.876 1133.22 182.177C1133.22 147.478 1108.23 119.348 1077.41 119.348C1046.59 119.348 1021.6 147.478 1021.6 182.177Z" fill="#6FC2E4"/>
<circle cx="28.3345" cy="28.3345" r="28.3345" transform="matrix(-1 0 0 1 1050.79 12.8793)" fill="#6FC2E4"/>
<circle cx="11.5914" cy="11.5914" r="11.5914" transform="matrix(-1 0 0 1 1034.48 30.0516)" fill="#60AFCF"/>
<circle cx="7.72758" cy="7.72758" r="7.72758" transform="matrix(-1 0 0 1 1098.88 92.731)" fill="#1C5485"/>
<circle cx="7.72758" cy="7.72758" r="7.72758" transform="matrix(-1 0 0 1 1044.78 92.731)" fill="#1C5485"/>
<ellipse cx="14.1672" cy="11.5914" rx="14.1672" ry="11.5914" transform="matrix(-1 0 0 1 1078.27 92.731)" fill="#60AFCF"/>
<path d="M1060.24 97.8826C1060.24 99.3052 1061.97 101.746 1064.1 101.746C1066.24 101.746 1067.97 99.3052 1067.97 97.8826C1067.97 96.46 1066.24 95.3068 1064.1 95.3068C1061.97 95.3068 1060.24 96.46 1060.24 97.8826Z" fill="#1C5485"/>
<path d="M1070.55 104.322C1068.83 106.04 1065.4 106.04 1064.11 100.458C1062.82 106.04 1059.39 106.04 1057.67 104.322" stroke="#1C5485" stroke-width="2.57586" stroke-linecap="round"/>
<ellipse cx="11.5914" cy="6.43965" rx="11.5914" ry="6.43965" transform="matrix(-1 0 0 1 1031.9 108.186)" fill="#60AFCF"/>
<ellipse cx="11.5914" cy="6.43965" rx="11.5914" ry="6.43965" transform="matrix(-1 0 0 1 1119.48 108.186)" fill="#60AFCF"/>
<path d="M1111.72 148.623C1105.15 154.787 1110.41 171.069 1123.47 184.988C1136.53 198.907 1145.24 211.953 1159.02 199.028C1172.79 186.103 1160.33 176.582 1147.27 162.663C1134.21 148.744 1118.29 142.458 1111.72 148.623Z" fill="#6FC2E4"/>
<ellipse cx="32.6276" cy="28.7638" rx="32.6276" ry="28.7638" transform="matrix(-1 0 0 1 1098.88 157.128)" fill="#CEFDFF"/>
<ellipse cx="838.989" cy="54.558" rx="20.1776" ry="8.1569" transform="rotate(-25 838.989 54.558)" fill="#C3A3FF"/>
<ellipse cx="1050.21" cy="53.6993" rx="20.1776" ry="8.1569" transform="rotate(-25 1050.21 53.6993)" fill="#CEFDFF"/>
<circle cx="806.522" cy="78.5638" r="6.43965" fill="#C3A3FF"/>
<circle cx="1019.46" cy="79.4224" r="6.43965" fill="#CEFDFF"/>
</g>
<defs>
<filter id="filter0_d_2232_3717" x="0.973206" y="3.71472" width="1174.05" height="282.607" filterUnits="userSpaceOnUse" color-interpolation-filters="sRGB">
<feFlood flood-opacity="0" result="BackgroundImageFix"/>
<feColorMatrix in="SourceAlpha" type="matrix" values="0 0 0 0 0 0 0 0 0 0 0 0 0 0 0 0 0 0 127 0" result="hardAlpha"/>
<feOffset dy="10"/>
<feGaussianBlur stdDeviation="5"/>
<feComposite in2="hardAlpha" operator="out"/>
<feColorMatrix type="matrix" values="0 0 0 0 0 0 0 0 0 0 0 0 0 0 0 0 0 0 0.25 0"/>
<feBlend mode="normal" in2="BackgroundImageFix" result="effect1_dropShadow_2232_3717"/>
<feBlend mode="normal" in="SourceGraphic" in2="effect1_dropShadow_2232_3717" result="shape"/>
</filter>
</defs>
</svg>
