<svg width="345" height="194" viewBox="0 0 345 194" fill="none" xmlns="http://www.w3.org/2000/svg">
<mask id="mask0_2903_75" style="mask-type:alpha" maskUnits="userSpaceOnUse" x="0" y="0" width="345" height="194">
<path d="M143.243 43.5898H137.301H126.299V55.4734H137.301V148.488H149.184V43.5898H143.243Z" fill="#F5F5F5"/>
<path d="M233.833 111.96C233.833 86.8724 219.896 71.9082 198.476 71.9082C177.057 71.9082 162.973 86.1394 162.973 111.225C162.973 136.312 176.91 149.957 198.476 149.957C215.494 149.957 228.258 140.127 231.779 126.484H218.575C215.641 132.792 209.625 138.367 198.476 138.367C184.098 138.367 176.763 129.27 175.297 116.215H233.835V111.96H233.833ZM175.442 104.919C177.202 92.3025 184.831 83.3527 198.476 83.3527C212.122 83.3527 219.31 92.1556 221.07 104.919H175.442Z" fill="#F5F5F5"/>
<path d="M280.636 71.9082C259.07 71.9082 245.133 86.1394 245.133 111.225C245.133 136.312 259.07 149.957 280.636 149.957C302.203 149.957 315.993 136.752 315.993 111.225C315.993 85.6986 302.056 71.9082 280.636 71.9082ZM280.636 138.661C265.231 138.661 256.869 126.631 256.869 111.08C256.869 95.5301 265.231 83.0588 280.636 83.0588C296.042 83.0588 304.257 95.2362 304.257 111.08C304.257 126.924 296.188 138.661 280.636 138.661Z" fill="#F5F5F5"/>
<path d="M90.5057 43.5938H78.9429H66.2977L45.2852 104.918H58.0827L75.1006 54.8913H81.2619L98.2799 104.918H74.8211H58.0827L54.1203 116.216H78.6365H102.095L113.099 148.492H126.301L90.5057 43.5938Z" fill="#F5F5F5"/>
<path d="M30.3555 148.495H43.1189L54.1208 116.219H41.4146L30.3555 148.495Z" fill="#F5F5F5"/>
<path d="M32.6034 104.918L28.7324 116.215H41.4152L45.2862 104.918H32.6034Z" fill="#F5F5F5"/>
</mask>
<g mask="url(#mask0_2903_75)">
<rect x="-78.5352" y="-131.184" width="485.127" height="391.22" fill="white"/>
</g>
</svg>
