<svg width="525" height="68" viewBox="0 0 525 68" fill="none" xmlns="http://www.w3.org/2000/svg">
<mask id="mask0_2903_157" style="mask-type:alpha" maskUnits="userSpaceOnUse" x="0" y="3" width="524" height="63">
<path d="M0.320312 63.6226H120.056V46.551H0.320312V63.6226ZM0.320312 21.3767H24.2761V4.31943H0.320312V21.3767ZM48.2175 21.3767H72.1734V4.31943H48.2139L48.2175 21.3767ZM96.1147 21.3767H120.056V4.31943H96.1147V21.3767ZM58.1265 42.4996H0.320312V25.4424H58.1265V42.4996ZM120.056 42.4996H62.2499V25.4424H120.056V42.4996ZM210.625 61.6255C218.546 61.3607 220.295 59.8754 220.295 56.6615V11.5596C220.295 8.34574 218.546 6.78174 210.625 6.51332V4.59859H238.321V6.51332C230.403 6.78174 228.654 8.34574 228.654 11.5596V56.6615C228.654 59.8754 230.403 61.3607 238.321 61.6255V63.6226H210.625V61.6255ZM256.957 61.6255C264.778 61.3607 267.148 59.8754 267.148 56.6615V7.03227H262.754C255.371 7.03227 251.587 7.08595 247.283 17.7977L245.35 17.6152L245.87 4.59859H296.677L297.298 17.6152L295.365 17.7942C291.411 7.77311 287.541 7.03227 279.891 7.03227H275.402V56.6615C275.402 59.8754 277.787 61.3607 285.608 61.6255V63.6226H256.95V61.6255H256.957ZM414.765 61.6255C422.4 61.3607 424.348 59.8754 424.348 56.6615V11.5596C424.348 8.34574 422.397 6.78174 414.765 6.51332V4.59859H463.113L463.366 17.6009L461.433 17.6832C457.747 7.14322 454.755 7.1289 444.734 7.1289H432.693V31.7628H438.055C445.001 31.7628 448.077 30.1988 450.364 20.8721H452.117V45.0872H450.364C448.077 35.7605 445.001 34.2788 438.055 34.2788H432.693V60.6198H444.734C456.518 60.6198 460.472 60.924 464.339 49.7828L466.276 49.8794L465.835 63.6226H414.765V61.6255ZM475.238 61.6255C482.888 61.3607 484.822 59.8754 484.822 56.6615V11.5596C484.822 8.34574 482.888 6.78174 475.238 6.51332V4.59859H502.312V6.51332C494.492 6.78174 493.166 8.26343 493.166 11.5596V60.6163H501.962C513.562 60.6163 517.7 57.1805 521.921 44.4716L523.854 44.554L523.149 63.6226H475.238V61.6255ZM377.467 60.7165H370.962V7.03227H377.383C393.378 7.03227 401.296 13.911 401.296 33.5952C401.296 52.9144 396.186 60.7165 377.467 60.7165ZM378.341 4.59859H354.486V6.59922C360.883 7.01796 362.617 8.56764 362.617 11.5596V56.6615C362.617 59.6535 360.883 61.1352 354.486 61.5289V63.6226H379.147C401.296 63.6226 410.865 48.9024 410.865 33.062C410.865 16.5272 399.883 4.59859 378.341 4.59859ZM310.485 38.7238L320.155 14.09H320.51L329.118 38.7238H310.485ZM343.446 53.6982L324.814 3.19922H321.836L303.539 48.5516C300.027 57.1769 297.569 60.3944 291.668 61.7937V63.6226H311.461V61.7937C303.626 60.491 302.751 58.5763 306.448 49.0849L309.527 41.1575H330.007L334.752 54.7468C336.501 59.6249 335.272 61.3607 327.271 61.7937V63.6226H352.044V61.5253C346.749 60.559 345.297 58.6192 343.446 53.6982ZM183.214 5.5649C172.836 5.5649 163.169 14.6089 163.169 34.4613C163.169 53.3474 174.769 61.1782 184.877 61.1782C187.958 61.1436 190.983 60.3608 193.687 58.8984C196.412 57.4167 198.895 55.391 200.662 52.8321C201.901 51.0426 202.794 49.2245 203.582 47.0306L205.533 47.6175C204.543 50.7634 203.173 53.8377 201.153 56.479C199.216 59.0272 196.728 61.1145 193.871 62.5883C193.055 62.996 192.215 63.3557 191.356 63.6655C190.404 64.0096 189.428 64.2847 188.436 64.4887C186.488 64.8959 184.501 65.1022 182.51 65.1043C165.539 65.1043 153.581 53.0003 153.581 34.8121C153.581 16.7885 167.035 3.2028 184.172 3.2028C190.413 3.2028 195.422 4.86343 199.122 6.86406L202.198 6.82111L202.834 12.526L204.033 22.4396H202.198C198.15 11.6455 192.093 5.5649 183.214 5.5649Z" fill="#002E6C"/>
</mask>
<g mask="url(#mask0_2903_157)">
<rect x="-48.8184" y="-30.8438" width="798.565" height="195.825" fill="white"/>
</g>
</svg>
