<svg width="585" height="292" viewBox="0 0 585 292" fill="none" xmlns="http://www.w3.org/2000/svg">
<mask id="mask0_2903_37" style="mask-type:alpha" maskUnits="userSpaceOnUse" x="0" y="0" width="585" height="292">
<path d="M499.076 146.096L477.489 117.506H502.51L546.666 175.669H521.402L511.586 162.659L501.771 175.669H476.623L499.076 146.096Z" fill="black"/>
<path d="M520.845 117.506H545.749L526.633 142.972L513.986 126.653L520.845 117.506Z" fill="black"/>
<path d="M156.045 169.227C150.033 164.118 147.027 156.567 147.027 146.592C147.027 136.618 150.092 129.066 156.23 123.957C162.359 118.848 170.745 116.289 181.378 116.289C185.794 116.289 189.695 116.591 193.09 117.214C196.486 117.827 199.735 118.868 202.838 120.347V136.53C198.013 134.243 192.536 133.095 186.407 133.095C181.008 133.095 177.019 134.117 174.451 136.16C171.873 138.204 170.589 141.678 170.589 146.592C170.589 151.341 171.854 154.776 174.393 156.897C176.922 159.029 180.93 160.089 186.417 160.089C192.225 160.089 197.741 158.737 202.974 156.041V172.973C197.167 175.591 189.929 176.895 181.261 176.895C170.453 176.895 162.057 174.336 156.045 169.227Z" fill="black"/>
<path d="M208.209 146.582C208.209 136.686 211.03 129.163 216.673 124.006C222.315 118.848 230.817 116.279 242.19 116.279C253.64 116.279 262.201 118.858 267.892 124.006C273.573 129.154 276.414 136.686 276.414 146.582C276.414 166.784 265.002 176.885 242.19 176.885C219.533 176.895 208.209 166.794 208.209 146.582ZM250.352 156.897C252.025 154.766 252.862 151.331 252.862 146.592C252.862 141.931 252.025 138.515 250.352 136.345C248.678 134.175 245.954 133.095 242.19 133.095C238.512 133.095 235.847 134.185 234.213 136.345C232.578 138.515 231.761 141.931 231.761 146.592C231.761 151.341 232.578 154.776 234.213 156.897C235.847 159.028 238.503 160.089 242.19 160.089C245.954 160.089 248.669 159.019 250.352 156.897Z" fill="black"/>
<path d="M281.783 117.505H303.37L303.983 121.923C306.357 120.289 309.382 118.936 313.059 117.875C316.737 116.815 320.54 116.279 324.471 116.279C331.747 116.279 337.059 118.08 340.415 121.68C343.771 125.281 345.445 130.837 345.445 138.369V175.669H322.389V140.695C322.389 138.077 321.795 136.199 320.609 135.051C319.422 133.903 317.437 133.338 314.655 133.338C312.943 133.338 311.182 133.727 309.382 134.506C307.582 135.284 306.075 136.287 304.839 137.513V175.669H281.783V117.505Z" fill="black"/>
<path d="M345.514 117.506H369.552L380.594 151.614L391.635 117.506H415.674L392.734 175.669H368.443L345.514 117.506Z" fill="black"/>
<path d="M422.932 170.667C416.005 165.471 412.766 156.45 412.766 146.709C412.766 137.221 415.344 129.407 421.229 124.006C427.115 118.605 436.084 116.279 447.408 116.279C457.827 116.279 466.018 118.693 472.001 123.519C477.974 128.346 480.97 134.934 480.97 143.274V153.462H437.125C438.215 156.489 439.596 158.678 442.991 160.031C446.386 161.383 451.124 162.055 457.185 162.055C460.804 162.055 464.5 161.773 468.255 161.199C469.578 160.994 471.758 160.673 472.905 160.43V174.569C467.176 176.126 459.539 176.905 450.929 176.905C439.343 176.895 429.858 175.863 422.932 170.667ZM456.747 140.948C456.747 138.067 453.43 131.869 446.766 131.869C440.754 131.869 436.785 137.97 436.785 140.948H456.747Z" fill="black"/>
<path d="M97.9895 170.687C110.733 169.296 122.748 162.62 129.363 151.478C126.231 179.037 95.5769 196.455 70.556 185.761C68.2504 184.778 66.2658 183.143 64.9039 181.041C59.281 172.361 57.4326 161.316 60.0884 151.293C67.6764 164.167 83.1054 172.059 97.9895 170.687Z" fill="#F3B01C"/>
<path d="M59.6229 143.202C54.4572 154.938 54.2335 168.678 60.5666 179.986C38.2792 163.501 38.5224 128.226 60.2942 111.907C62.3079 110.398 64.7011 109.503 67.2109 109.367C77.5326 108.832 88.0196 112.753 95.3741 120.061C80.4316 120.207 65.8782 129.617 59.6229 143.202Z" fill="#8D2676"/>
<path d="M102.581 123.673C95.0416 113.338 83.2413 106.303 70.3125 106.089C95.3043 94.9366 126.045 113.017 129.392 139.749C129.703 142.23 129.295 144.76 128.176 146.999C123.506 156.321 114.848 163.551 104.731 166.227C112.144 152.711 111.229 136.197 102.581 123.673Z" fill="#EE342F"/>
</mask>
<g mask="url(#mask0_2903_37)">
<rect x="18.5957" y="-62.9062" width="552.51" height="401.255" fill="white"/>
</g>
</svg>
