<svg width="372" height="83" viewBox="0 0 372 83" fill="none" xmlns="http://www.w3.org/2000/svg">
<mask id="mask0_2903_163" style="mask-type:alpha" maskUnits="userSpaceOnUse" x="0" y="0" width="372" height="83">
<g clip-path="url(#clip0_2903_163)">
<path d="M256.815 80.3438C260.281 80.3438 263.091 77.5342 263.091 74.0684C263.091 70.6026 260.281 67.793 256.815 67.793C253.349 67.793 250.539 70.6026 250.539 74.0684C250.539 77.5342 253.349 80.3438 256.815 80.3438Z" fill="black"/>
<path d="M54.8255 2.17383V8.52372H8.29361V36.7685H51.8684V43.1184H8.29361V73.9904H55.3733V80.3403H0.847656V2.17383H54.8255Z" fill="black" stroke="black" stroke-width="0.996014"/>
<path d="M72.009 2.17383V73.9904H115.802V80.3403H64.5684V2.17383H72.0143H72.009Z" fill="black" stroke="black" stroke-width="0.996014"/>
<path d="M128.835 2.17383V50.5638C128.835 55.0896 129.346 58.94 130.367 62.1149C131.388 65.2899 132.883 67.8798 134.856 69.8901C136.829 71.9003 139.233 73.3575 142.084 74.2669C144.929 75.1816 148.141 75.6337 151.721 75.6337C155.3 75.6337 158.619 75.1763 161.464 74.2669C164.31 73.3575 166.719 71.895 168.692 69.8901C170.665 67.8851 172.16 65.2899 173.181 62.1149C174.202 58.94 174.713 55.0896 174.713 50.5638V2.17383H182.159V52.2018C182.159 56.2171 181.595 60.0302 180.462 63.6412C179.329 67.2523 177.542 70.4112 175.096 73.1129C172.649 75.8145 169.511 77.9471 165.682 79.516C161.847 81.0848 157.199 81.8719 151.721 81.8719C146.243 81.8719 141.701 81.0848 137.871 79.516C134.042 77.9471 130.899 75.8145 128.458 73.1129C126.011 70.4112 124.224 67.2576 123.091 63.6412C121.958 60.0302 121.395 56.2171 121.395 52.2018V2.17383H128.84H128.835Z" fill="black" stroke="black" stroke-width="0.996014"/>
<path d="M195.288 2.17383L220.69 72.129H220.908L246.091 2.17383H253.973L224.96 80.3403H216.313L187.406 2.17383H195.288Z" fill="black" stroke="black" stroke-width="0.996014"/>
<path d="M286.255 2.17383V80.3403H278.809V2.17383H286.255Z" fill="black" stroke="black" stroke-width="0.996014"/>
<path d="M299.501 25.8211C301.032 20.9337 303.335 16.61 306.399 12.8501C309.462 9.09014 313.313 6.10133 317.951 3.87301C322.583 1.6447 327.971 0.533203 334.098 0.533203C340.225 0.533203 345.591 1.6447 350.192 3.87301C354.792 6.10133 358.622 9.09014 361.685 12.8501C364.749 16.61 367.051 20.9337 368.583 25.8211C370.115 30.7138 370.881 35.8565 370.881 41.2597C370.881 46.663 370.115 51.8057 368.583 56.6984C367.051 61.5911 364.749 65.8935 361.685 69.6162C358.622 73.3389 354.787 76.3118 350.192 78.5401C345.591 80.7631 340.23 81.8799 334.098 81.8799C327.966 81.8799 322.583 80.7684 317.951 78.5401C313.313 76.3171 309.468 73.3389 306.399 69.6162C303.33 65.8935 301.032 61.5911 299.501 56.6984C297.969 51.811 297.203 46.663 297.203 41.2597C297.203 35.8565 297.969 30.7138 299.501 25.8211ZM306.346 53.7947C307.479 57.9162 309.228 61.6071 311.6 64.8511C313.972 68.1005 317.02 70.7064 320.743 72.6795C324.466 74.6525 328.918 75.6364 334.103 75.6364C339.289 75.6364 343.719 74.6525 347.405 72.6795C351.091 70.7064 354.117 68.1005 356.494 64.8511C358.866 61.6071 360.616 57.9162 361.749 53.7947C362.882 49.6731 363.446 45.493 363.446 41.2597C363.446 37.0265 362.882 32.756 361.749 28.6716C360.616 24.5873 358.866 20.9177 356.494 17.6683C354.122 14.4189 351.091 11.813 347.405 9.84C343.719 7.86696 339.283 6.8831 334.103 6.8831C328.923 6.8831 324.466 7.86696 320.743 9.84C317.02 11.813 313.972 14.4189 311.6 17.6683C309.228 20.9177 307.479 24.582 306.346 28.6716C305.213 32.7613 304.649 36.9573 304.649 41.2597C304.649 45.5621 305.213 49.6731 306.346 53.7947Z" fill="black" stroke="black" stroke-width="0.996014"/>
</g>
</mask>
<g mask="url(#mask0_2903_163)">
<rect x="-26.6855" y="-15.0371" width="433.183" height="132.238" fill="white"/>
</g>
<defs>
<clipPath id="clip0_2903_163">
<rect width="371.101" height="82.405" fill="white" transform="translate(0.318359)"/>
</clipPath>
</defs>
</svg>
