<svg width="421" height="140" viewBox="0 0 421 140" fill="none" xmlns="http://www.w3.org/2000/svg">
<g clip-path="url(#clip0_2903_105)">
<mask id="mask0_2903_105" style="mask-type:alpha" maskUnits="userSpaceOnUse" x="0" y="21" width="422" height="97">
<path d="M46.0655 22.2865C37.8636 26.7008 40.913 38.8926 50.1664 38.8926C55.1086 38.8926 59.6301 33.6375 58.7889 29.013C57.6322 22.812 51.2179 19.4488 46.0655 22.2865Z" fill="black"/>
<path d="M126.506 68.8471V106.158H132.815H139.124V89.7623C139.124 76.8348 139.44 72.6308 140.807 69.793C145.959 59.0726 162.153 58.0216 167.095 68.1114C168.672 71.2644 169.093 75.3634 169.408 89.1317L169.829 106.158H175.612H181.396L180.975 85.8736C180.659 67.7961 180.344 65.2736 178.346 61.49C175.612 56.1298 172.878 53.8176 167.831 51.9257C159.524 48.9829 147.642 51.0849 142.174 56.34L139.124 59.2828V45.4094V31.536H132.815H126.506V68.8471Z" fill="black"/>
<path d="M11.4673 39.5214C7.78695 43.305 7.78695 48.1397 11.4673 51.9234C17.2507 57.704 26.6093 53.8152 26.6093 45.7224C26.6093 37.6295 17.2507 33.7408 11.4673 39.5214Z" fill="black"/>
<path d="M77.6107 39.2083C71.617 44.2531 75.5076 54.6582 83.3941 54.6582C88.1259 54.6582 92.2269 50.4541 92.2269 45.7246C92.2269 38.0521 83.3941 34.1634 77.6107 39.2083Z" fill="black"/>
<path d="M282.871 51.6066C280.768 52.2372 277.613 54.129 275.826 55.7055L272.671 58.6484L272.04 55.0749C271.409 51.5015 271.304 51.5015 265.731 51.5015H260.053V78.8279V106.154H266.362H272.671V89.8636C272.671 71.8912 273.512 68.2126 278.454 64.3239C282.24 61.381 287.392 60.4351 292.124 62.0116C298.644 64.2188 300.011 68.633 300.011 89.0228V106.154H306.32H312.629V90.0738C312.629 72.4167 313.996 67.0565 319.359 63.5882C323.46 60.8555 329.559 60.4351 333.554 62.5371C339.022 65.3749 339.969 69.0535 339.969 88.7075C339.969 99.2176 340.389 106.154 341.02 106.365C341.546 106.47 344.49 106.47 347.435 106.259L352.797 105.944L352.377 86.2901C351.956 65.1647 351.115 61.2759 345.542 55.4953C338.391 48.0331 319.043 49.9249 312.629 58.6484L310.211 61.9065L308.002 58.5433C306.74 56.7566 304.217 54.4443 302.324 53.2882C298.328 50.8709 288.444 50.1351 282.871 51.6066Z" fill="black"/>
<path d="M381.293 52.3443C369.306 56.6534 363.102 64.7463 362.26 77.1483C361.84 83.3493 362.26 85.6615 364.153 90.1809C370.778 105.526 390.757 111.832 406.214 103.424C410.946 100.796 417.781 94.3849 417.781 92.388C417.781 91.9676 415.573 90.8115 412.839 89.6554L407.897 87.6584L403.585 92.0727C400.22 95.5411 398.328 96.6972 394.437 97.2227C388.443 98.1686 383.291 96.5921 379.716 92.7033C376.877 89.6554 374.668 85.9768 374.668 84.1901C374.668 83.3493 382.134 83.034 397.907 83.034H421.146L420.41 77.4636C418.832 65.9024 412.628 56.8636 403.375 53.08C396.961 50.3473 387.602 50.032 381.293 52.3443ZM400.641 63.0646C403.375 64.7463 408.317 71.7881 408.317 74.1003C408.317 74.4156 400.746 74.6258 391.493 74.6258C378.769 74.6258 374.668 74.3105 374.668 73.2595C374.668 70.8422 378.874 65.1667 382.239 63.0646C386.866 60.2269 396.014 60.2269 400.641 63.0646Z" fill="black"/>
<path d="M195.065 71.7896C195.381 91.0232 195.486 92.2844 198.01 97.2242C200.008 101.218 201.795 103.11 205.37 104.792C213.362 108.89 225.665 107.524 231.764 101.849L234.813 99.0109L235.444 102.584C236.075 106.158 236.18 106.158 241.753 106.158H247.431V78.8314V51.505H241.122H234.813V67.7957C234.813 85.5579 234.077 88.9212 229.135 93.4405C227.137 95.3324 224.824 96.1732 220.723 96.4885C215.675 96.9089 214.834 96.5936 211.785 93.9661C207.263 89.9722 206.527 85.7681 206.422 66.9549V51.505H200.533H194.75L195.065 71.7896Z" fill="black"/>
<path d="M3.37322 74.5205C0.113495 77.7787 -0.412268 80.7215 1.58563 84.4001C3.37322 87.9735 5.68658 89.2347 9.99784 89.3398C12.9421 89.3398 14.4142 88.6041 16.5173 86.0817C17.9894 84.295 19.2513 81.6674 19.2513 80.196C19.2513 76.4123 13.8885 71.4726 9.78753 71.4726C7.47417 71.4726 5.47628 72.4185 3.37322 74.5205Z" fill="black"/>
<path d="M85.8122 72.5236C78.0309 75.6766 81.0803 89.3398 89.5976 89.3398C94.1192 89.3398 95.9068 88.3939 97.5892 85.0307C99.9026 80.6164 99.482 77.9889 96.1171 74.5205C92.9625 71.4726 90.0183 70.8419 85.8122 72.5236Z" fill="black"/>
<path d="M25.7714 102.267C21.0396 107.312 23.5632 115.615 30.5033 117.297C36.0764 118.768 42.2804 112.252 40.9134 106.577C39.231 99.8502 30.3981 97.3277 25.7714 102.267Z" fill="black"/>
<path d="M61.5214 102.267C56.7896 107.312 59.3132 115.615 66.2533 117.297C71.8264 118.768 78.0304 112.252 76.6634 106.577C74.981 99.8502 66.1481 97.3277 61.5214 102.267Z" fill="black"/>
</mask>
<g mask="url(#mask0_2903_105)">
<rect x="-152.324" y="-232.686" width="939.805" height="757.442" fill="white"/>
</g>
</g>
<defs>
<clipPath id="clip0_2903_105">
<rect width="420.61" height="139.785" fill="white" transform="translate(0.318359)"/>
</clipPath>
</defs>
</svg>
