<svg width="355" height="138" viewBox="0 0 355 138" fill="none" xmlns="http://www.w3.org/2000/svg">
<mask id="mask0_2903_59" style="mask-type:alpha" maskUnits="userSpaceOnUse" x="0" y="0" width="355" height="138">
<g clip-path="url(#clip0_2903_59)">
<path d="M26.5475 1.91406H0.953125V27.528H26.5475V1.91406Z" fill="#04C7FD"/>
<path d="M25.9098 135.362V43.1153H1.68164V135.362H25.9098ZM186.945 136.274V113.668C183.393 113.668 180.387 113.485 178.201 113.121C175.651 112.756 173.738 111.845 172.463 110.568C171.187 109.292 170.368 107.469 169.912 105.099C169.548 102.82 169.366 99.8124 169.366 96.1663V63.8982H186.945V43.1153H169.366V7.10993H145.047V96.3486C145.047 103.914 145.684 110.295 146.959 115.4C148.234 120.413 150.42 124.515 153.426 127.614C156.432 130.713 160.44 132.901 165.267 134.268C170.186 135.636 176.379 136.274 183.757 136.274H186.945ZM326.12 135.362V0H301.801V135.362H326.12ZM121.638 52.1395C114.898 44.8472 105.425 41.2011 93.4024 41.2011C87.5731 41.2011 82.2903 42.3861 77.4629 44.7561C72.7265 47.126 68.6278 50.4076 65.4399 54.6006L64.0736 56.3325V54.7829V43.1153H40.1187V135.362H64.2558V86.2306V89.6033C64.2558 89.0564 64.2558 88.5095 64.2558 87.9625C64.529 79.303 66.624 72.9223 70.6316 68.8204C74.9125 64.4451 80.1043 62.2574 86.0247 62.2574C93.0381 62.2574 98.412 64.4451 101.964 68.6381C105.425 72.8312 107.247 78.7561 107.247 86.3218V86.5041V135.271H131.748V82.9491C131.84 69.8231 128.378 59.4317 121.638 52.1395ZM289.231 89.0564C289.231 82.4022 288.047 76.2038 285.77 70.37C283.402 64.6274 280.123 59.5228 276.024 55.1475C271.834 50.7722 266.825 47.3995 260.996 44.9384C255.166 42.4772 248.699 41.2923 241.686 41.2923C235.037 41.2923 228.752 42.5684 222.923 45.0295C217.093 47.5818 211.993 50.9545 207.712 55.2387C203.431 59.5228 199.97 64.6274 197.51 70.4612C194.96 76.295 193.776 82.5845 193.776 89.2387C193.776 95.8929 194.96 102.182 197.328 108.016C199.697 113.85 203.067 118.955 207.256 123.239C211.446 127.523 216.638 130.987 222.649 133.448C228.661 136 235.31 137.276 242.415 137.276C262.999 137.276 275.751 127.888 283.402 119.137L265.914 105.829C262.271 110.204 253.527 116.129 242.597 116.129C235.765 116.129 230.118 114.579 225.837 111.389C221.556 108.29 218.642 103.914 217.093 98.5363L216.82 97.7159H289.231V89.0564ZM217.002 80.5792C217.002 73.8338 224.744 62.0751 241.413 61.984C258.081 61.984 265.914 73.7427 265.914 80.488L217.002 80.5792Z" fill="#0068B5"/>
<path d="M353.813 123.329C353.358 122.235 352.72 121.323 351.9 120.503C351.081 119.682 350.17 119.044 349.077 118.589C347.984 118.133 346.8 117.859 345.616 117.859C344.34 117.859 343.247 118.133 342.154 118.589C341.061 119.044 340.151 119.682 339.331 120.503C338.511 121.323 337.874 122.235 337.418 123.329C336.963 124.422 336.689 125.607 336.689 126.792C336.689 128.069 336.963 129.162 337.418 130.256C337.874 131.35 338.511 132.262 339.331 133.082C340.151 133.902 341.061 134.54 342.154 134.996C343.247 135.452 344.432 135.725 345.616 135.725C346.891 135.725 347.984 135.452 349.077 134.996C350.17 134.54 351.081 133.902 351.9 133.082C352.72 132.262 353.358 131.35 353.813 130.256C354.268 129.162 354.542 127.977 354.542 126.792C354.542 125.607 354.268 124.422 353.813 123.329ZM352.356 129.709C351.991 130.621 351.445 131.441 350.807 132.079C350.17 132.717 349.35 133.264 348.439 133.629C347.528 133.993 346.618 134.176 345.525 134.176C344.523 134.176 343.521 133.993 342.61 133.629C341.699 133.264 340.879 132.717 340.242 132.079C339.604 131.441 339.058 130.621 338.693 129.709C338.329 128.798 338.147 127.886 338.147 126.792C338.147 125.79 338.329 124.787 338.693 123.875C339.058 122.964 339.604 122.144 340.242 121.505C340.879 120.867 341.699 120.321 342.61 119.956C343.521 119.591 344.432 119.409 345.525 119.409C346.526 119.409 347.528 119.591 348.439 119.956C349.35 120.321 350.17 120.867 350.807 121.505C351.445 122.144 351.991 122.964 352.356 123.875C352.72 124.787 352.902 125.699 352.902 126.792C352.993 127.886 352.72 128.798 352.356 129.709ZM347.255 127.522C347.984 127.43 348.53 127.157 348.986 126.701C349.441 126.245 349.714 125.607 349.714 124.696C349.714 123.693 349.441 122.964 348.804 122.417C348.257 121.87 347.255 121.597 346.071 121.597H342.063V131.897H343.976V127.704H345.342L347.893 131.897H349.897L347.255 127.522ZM346.253 126.063C345.98 126.063 345.707 126.063 345.342 126.063H343.976V123.146H345.342C345.616 123.146 345.889 123.146 346.253 123.146C346.526 123.146 346.8 123.237 347.073 123.329C347.346 123.42 347.528 123.602 347.619 123.784C347.711 123.967 347.802 124.24 347.802 124.605C347.802 124.969 347.711 125.243 347.619 125.425C347.437 125.607 347.255 125.79 347.073 125.881C346.8 125.972 346.526 126.063 346.253 126.063Z" fill="#0068B5"/>
</g>
</mask>
<g mask="url(#mask0_2903_59)">
<rect x="-77.8984" y="-131.184" width="485.127" height="391.22" fill="white"/>
</g>
<defs>
<clipPath id="clip0_2903_59">
<rect width="353.585" height="137.276" fill="white" transform="translate(0.955078)"/>
</clipPath>
</defs>
</svg>
