<svg width="1110" height="174" viewBox="0 0 1110 174" fill="none" xmlns="http://www.w3.org/2000/svg">
<mask id="mask0_2903_174" style="mask-type:alpha" maskUnits="userSpaceOnUse" x="0" y="0" width="1110" height="174">
<g clip-path="url(#clip0_2903_174)">
<mask id="mask1_2903_174" style="mask-type:luminance" maskUnits="userSpaceOnUse" x="0" y="-1" width="1109" height="175">
<path d="M1108.92 -0.00195312H0.90625V173.788H1108.92V-0.00195312Z" fill="white"/>
</mask>
<g mask="url(#mask1_2903_174)">
<path d="M215.949 87.291C219.33 113.827 222.468 138.74 225.726 163.628C226.112 166.61 225.495 167.662 222.156 167.829C202.05 168.828 202.062 168.907 194.794 150.597C191.768 142.979 188.819 135.33 185.597 127.788C184.887 126.548 184.626 125.108 184.854 123.703C185.083 122.299 185.788 121.011 186.855 120.051C196.365 109.66 205.628 98.9884 215.949 87.291Z" fill="#00A587"/>
<path d="M97.7742 109.529C100.654 124.136 103.494 137.865 105.995 151.655C106.767 155.924 110.241 161.347 107.269 164.233C104.706 166.714 99.017 163.204 94.644 163.363C83.0261 163.797 77.6186 158.427 75.7313 147.151C74.6235 140.531 74.1332 135.947 79.6796 130.82C86.154 124.099 92.1972 116.989 97.7742 109.529Z" fill="#00A587"/>
<path d="M130.58 136.171C130.58 127.967 130.452 119.764 130.642 111.564C130.714 108.344 129.804 107.258 126.326 107.144C102.602 106.371 78.8824 105.435 55.1683 104.333C51.4436 104.162 49.973 105.203 49.1818 108.826C45.5227 125.605 41.3696 142.285 37.7955 159.083C36.792 163.8 34.9625 165.539 29.9487 165.004C24.3856 164.436 18.7851 164.31 13.2013 164.624C8.99414 164.832 8.1836 163.105 8.24536 159.501C8.60817 134.306 9.1447 109.111 8.89768 83.9235C8.85211 76.1728 11.4827 68.6367 16.3586 62.5492C29.4817 44.6043 42.1223 26.3367 54.8362 8.11467C55.522 6.86692 56.6013 5.87219 57.9114 5.28036C59.2216 4.68853 60.6916 4.53162 62.1003 4.83327C109.505 9.82365 156.929 14.6583 204.371 19.3373C207.337 19.6873 210.171 20.7531 212.618 22.4402C240.848 40.4913 269.029 58.6071 297.401 76.4379C301.646 79.0964 301.763 80.6155 297.683 83.0196C296.805 83.4864 296.02 84.1066 295.368 84.8501C287.196 95.2372 277.613 94.7702 266.033 90.1672C252.038 84.6186 237.278 80.9384 222.928 76.2215C221.562 75.6767 220.08 75.4704 218.615 75.6208C217.149 75.7711 215.743 76.2734 214.521 77.0836C201.321 85.1502 188.06 93.1182 174.739 100.987C173.539 101.62 172.514 102.531 171.754 103.641C170.993 104.752 170.519 106.028 170.374 107.36C167.452 124.678 164.109 141.921 161.423 159.284C160.651 164.259 158.848 165.836 153.823 165.49C147.441 165.119 141.043 165.109 134.659 165.46C130.873 165.626 129.904 164.32 130.027 160.77C130.275 152.569 130.105 144.359 130.105 136.156L130.58 136.171Z" fill="#00A587"/>
<path d="M414.1 86.4861C423.652 72.3084 437.459 68.215 453.407 70.332C462.259 71.0511 470.498 75.0722 476.436 81.5723C482.374 88.0724 485.562 96.5598 485.349 105.297C485.96 123.353 485.402 141.449 485.67 159.522C485.737 164.156 483.113 163.87 479.975 163.914C476.537 163.945 473.792 164.116 473.886 159.157C474.18 143.785 474.033 128.412 473.957 113.063C473.901 109.909 473.653 106.762 473.217 103.637C470.391 81.4351 450.577 77.7239 435.722 82.6429C426.348 85.7174 420.438 95.0331 420.313 106.887C420.135 123.606 420.144 140.327 420.34 157.05C420.394 161.621 419.733 164.076 414.06 164.076C408.293 164.076 407.771 161.38 407.811 156.944C407.954 141.132 408.123 125.321 407.811 109.509C407.364 88.379 392.447 76.9026 372.601 82.0237C367.77 83.2331 363.463 85.941 360.317 89.7465C357.171 93.5522 355.354 98.2533 355.135 103.154C353.803 121.175 353.572 139.26 354.444 157.309C354.52 164.494 350.837 164.204 345.962 163.897C343.851 163.769 342.391 163.234 342.464 160.791C343.008 140.939 340.977 121.012 343.526 101.235C345.489 85.9897 353.823 74.9304 369.494 71.3684C386.242 67.5386 401.691 69.9411 412.717 84.8083C413.064 85.2607 413.489 85.735 414.1 86.4861Z" fill="#03000C"/>
<path d="M1023.08 86.0233C1029.02 79.0299 1036.94 73.9383 1045.83 71.4007C1054.72 68.8632 1064.18 68.9952 1073 71.7798C1095.61 77.7882 1107.08 96.8762 1105.3 124.151C1104.82 133.123 1101.61 141.744 1096.1 148.908C1090.59 156.071 1083.03 161.448 1074.38 164.348C1065.4 167.378 1055.7 167.769 1046.49 165.472C1037.28 163.176 1028.95 158.29 1022.52 151.412C1014.96 142.757 1010.88 131.68 1011.04 120.268C1010.84 84.148 1010.99 48.0231 1010.94 11.9027C1010.94 7.86194 1011.41 4.81381 1016.71 4.69523C1022.22 4.57225 1023.16 7.4271 1023.14 11.9553C1023.02 36.103 1023.08 60.2507 1023.08 86.0233ZM1023.08 118.239C1022.4 147.934 1047.46 161.668 1072.58 152.875C1088.13 147.434 1096.61 129.412 1093.32 110.711C1090.88 96.7795 1084.26 86.0541 1069.52 82.1628C1042.96 75.0871 1023.04 90.6791 1023.08 118.235V118.239Z" fill="#03000C"/>
<path d="M968.64 86.2545C968.64 60.3148 968.68 35.9783 968.595 11.6462C968.595 7.50444 969.175 4.61882 974.497 4.6847C978.888 4.75497 980.612 6.2439 980.594 10.6975C980.442 47.5426 980.839 84.3878 980.321 121.224C979.938 148.648 959.73 166.964 931.698 166.537C905.234 166.137 886.031 146.474 885.901 119.634C885.782 94.5994 897.619 76.8158 919.008 71.6068C937.439 67.1049 954.272 70.1487 968.64 86.2545ZM933.047 155.324C954.785 155.356 968.591 140.989 968.64 118.282C968.689 94.9639 955.066 80.5931 932.976 80.6502C911.282 80.7072 897.712 95.0474 897.655 118.022C897.583 140.694 911.421 155.289 933.047 155.32V155.324Z" fill="#03000C"/>
<path d="M748.243 88.0945C748.243 62.5326 748.314 37.7963 748.179 13.0601C748.158 8.72076 749.032 6.15141 754.197 6.31392C758.29 6.44128 759.897 7.93021 759.883 12.0236C759.745 49.5057 760.236 86.9964 759.535 124.461C759.053 150.278 738.752 168.28 712.221 168.157C706.164 168.32 700.136 167.297 694.484 165.149C688.834 163 683.672 159.769 679.3 155.642C674.928 151.516 671.432 146.576 669.015 141.109C666.599 135.642 665.31 129.758 665.223 123.797C664.254 99.7993 674.124 81.6864 693.237 74.9533C713.734 67.7328 732.548 70.4778 748.243 88.0945ZM712.765 156.94C734.24 156.839 748.474 141.801 748.229 119.524C747.952 96.3472 734.039 82.0641 711.934 82.2617C690.411 82.455 676.811 97.129 676.949 120.007C677.087 142.6 691.089 157.042 712.765 156.94Z" fill="#03000C"/>
<path d="M824.969 166.578C812.181 166.486 800.757 163.332 793.103 152.365C791.099 149.497 788.478 146.063 793.058 143.084C796.929 140.568 799.508 142.136 802.266 145.536C807.377 151.138 814.329 154.793 821.904 155.858C829.477 156.924 837.191 155.332 843.694 151.364C845.863 150.067 847.615 148.192 848.746 145.957C849.877 143.722 850.342 141.216 850.085 138.731C849.936 136.341 849.042 134.052 847.525 132.178C846.007 130.304 843.94 128.935 841.605 128.257C832.875 125.412 823.96 123.149 814.921 121.485C811.122 120.601 807.406 119.405 803.811 117.909C800.526 116.524 797.609 114.416 795.284 111.747C792.958 109.077 791.287 105.918 790.399 102.512C789.51 99.1068 789.429 95.546 790.159 92.1045C790.89 88.663 792.415 85.4327 794.616 82.6626C806.115 66.6975 846.255 63.8294 858.348 84.5424C859.915 87.2259 863.4 90.2213 858.852 93.1991C854.973 95.7422 852.157 95.0746 849.157 90.9285C840.855 79.3861 818.451 77.0583 807.426 86.128C805.411 87.4759 803.831 89.3625 802.87 91.5654C801.909 93.7684 801.609 96.1957 802.004 98.5612C802.399 100.927 803.473 103.132 805.1 104.916C806.727 106.701 808.839 107.99 811.185 108.633C818.537 111.132 826.313 112.441 833.905 114.255C839.296 115.411 844.5 117.295 849.367 119.855C853.247 121.767 856.512 124.698 858.801 128.326C861.088 131.952 862.311 136.133 862.33 140.402C862.35 144.671 861.168 148.863 858.913 152.51C856.659 156.157 853.42 159.119 849.559 161.066C842.038 165.104 833.526 167.012 824.969 166.578Z" fill="#03000C"/>
<path d="M643.968 133.82C643.968 141.95 643.744 150.071 644.057 158.209C644.227 162.601 642.888 164.134 638.255 163.999C634.028 163.871 632.006 163.085 632.068 158.35C632.327 143.22 632.287 128.084 632.135 112.953C631.893 89.8687 614.807 76.7495 591.962 81.9585C585.819 83.25 580.306 86.5656 576.337 91.3571C572.367 96.1487 570.178 102.129 570.131 108.311C569.452 124.562 569.653 140.812 569.765 157.063C569.796 161.631 569.162 163.999 563.516 164.064C557.529 164.134 557.391 161.213 557.534 156.935C558.118 139.806 556.315 122.603 558.512 105.522C561.494 82.3011 578.093 69.2435 603.273 69.8671C608.47 69.7693 613.635 70.6804 618.475 72.5483C623.314 74.4162 627.731 77.2042 631.473 80.753C635.217 84.3019 638.212 88.5417 640.289 93.2304C642.365 97.919 643.482 102.964 643.575 108.078C644.155 116.621 643.67 125.208 643.67 133.808L643.968 133.82Z" fill="#03000C"/>
<path d="M527.469 118.482C527.469 131.566 527.29 144.651 527.567 157.73C527.665 162.32 526.473 163.945 521.479 164.001C516.059 164.064 515.636 161.626 515.676 157.414C515.81 131.703 515.769 105.987 515.716 80.2714C515.716 76.1779 515.591 72.6161 521.519 72.4843C527.447 72.3525 527.585 75.6553 527.545 79.9112C527.393 92.7713 527.469 105.627 527.469 118.482Z" fill="#03000C"/>
<path d="M511.588 44.0327C511.625 41.4276 512.696 38.9403 514.573 37.1025C516.45 35.2648 518.983 34.2226 521.63 34.1988C523.001 34.1623 524.362 34.4108 525.628 34.9283C526.894 35.4457 528.033 36.2203 528.974 37.2014C529.914 38.1823 530.633 39.3477 531.083 40.621C531.534 41.8944 531.707 43.2471 531.589 44.5904C531.455 47.1592 530.304 49.5741 528.383 51.319C526.462 53.0638 523.925 53.9998 521.311 53.9268C518.698 53.854 516.218 52.778 514.401 50.929C512.583 49.0799 511.574 46.6048 511.588 44.0327Z" fill="#03000C"/>
</g>
</g>
</mask>
<g mask="url(#mask0_2903_174)">
<rect x="31.1191" y="-104.994" width="1420.53" height="669.734" fill="white"/>
</g>
<defs>
<clipPath id="clip0_2903_174">
<rect width="1108.25" height="173.79" fill="white" transform="translate(0.910156)"/>
</clipPath>
</defs>
</svg>
