<svg width="298" height="64" viewBox="0 0 298 64" fill="none" xmlns="http://www.w3.org/2000/svg">
<mask id="mask0_2903_123" style="mask-type:alpha" maskUnits="userSpaceOnUse" x="0" y="0" width="298" height="64">
<g clip-path="url(#clip0_2903_123)">
<path d="M0.722656 61.3737V2.11719H48.2174V25.8198H36.3437V13.9685H12.5963V25.8198H36.3437V37.6712H12.5963V61.3737H0.722656ZM36.3437 61.3737V37.6712H48.2174V61.3737H36.3437Z" fill="#110F1F"/>
<path d="M60.0898 61.3737V2.11719H95.7109V13.9685H71.9635V25.8198H95.7109V37.6712H71.9635V49.5225H95.7109V61.3737H60.0898Z" fill="#110F1F"/>
<path d="M107.582 61.3737V2.11719H143.203V13.9685H119.456V25.8198H143.203V37.6712H119.456V61.3737H107.582Z" fill="#110F1F"/>
<path d="M155.08 61.3737V2.11719H166.954V49.5225H190.701V61.3737H155.08Z" fill="#110F1F"/>
<path d="M202.576 61.3737V2.11719H238.197V13.9685H214.45V25.8198H238.197V37.6712H214.45V49.5225H238.197V61.3737H202.576Z" fill="#110F1F"/>
<path d="M250.068 25.8198V2.11719H261.942V25.8198H250.068ZM285.689 25.8198V2.11719H297.563V25.8198H285.689ZM261.942 37.6712V25.8198H285.689V37.6712H261.942ZM250.068 61.3737V37.6712H261.942V61.3737H250.068ZM285.689 61.3737V37.6712H297.563V61.3737H285.689Z" fill="#110F1F"/>
</g>
</mask>
<g mask="url(#mask0_2903_123)">
<rect x="-104.697" y="-175.373" width="648.549" height="523.008" fill="white"/>
</g>
<defs>
<clipPath id="clip0_2903_123">
<rect width="296.842" height="63.4893" fill="white" transform="translate(0.722656)"/>
</clipPath>
</defs>
</svg>
