<svg width="433" height="111" viewBox="0 0 433 111" fill="none" xmlns="http://www.w3.org/2000/svg">
<mask id="mask0_2903_65" style="mask-type:alpha" maskUnits="userSpaceOnUse" x="0" y="0" width="433" height="111">
<g clip-path="url(#clip0_2903_65)">
<mask id="mask1_2903_65" style="mask-type:luminance" maskUnits="userSpaceOnUse" x="0" y="-1" width="432" height="112">
<path d="M0 -0.00195312H431.189V110.567H0V-0.00195312Z" fill="white"/>
</mask>
<g mask="url(#mask1_2903_65)">
<path d="M80.6662 67.5434C77.1822 65.5239 73.2525 64.9417 69.3591 64.8144C66.0934 64.7052 61.2268 62.613 61.2268 56.6274C61.2455 54.4713 62.1066 52.408 63.6262 50.8783C65.1457 49.3485 67.2032 48.4736 69.3591 48.4405C73.2525 48.304 77.1822 47.7218 80.6662 45.7115C83.7945 43.9001 86.3911 41.2975 88.1954 38.1651C89.9997 35.0327 90.9481 31.4807 90.9454 27.8658C90.9427 24.2509 89.989 20.7004 88.18 17.5707C86.3711 14.4409 83.7706 11.8422 80.6396 10.0355C77.5086 8.22873 73.9574 7.27751 70.3425 7.27734C66.7276 7.27718 63.1763 8.22807 60.0452 10.0345C56.914 11.841 54.3133 14.4395 52.504 17.569C50.6948 20.6986 49.7408 24.249 49.7377 27.8639C49.7377 31.8573 51.1568 35.5324 52.9761 38.9436C54.4953 41.809 55.2685 47.1306 50.0379 50.1415C48.1474 51.1935 45.92 51.4626 43.8334 50.8912C41.7467 50.3198 39.9671 48.9534 38.8764 47.0851C36.8296 43.8103 34.3281 40.7174 30.8986 38.7435C27.7663 36.9367 24.2137 35.9861 20.5977 35.9872C16.9816 35.9883 13.4296 36.941 10.2984 38.7497C7.16714 40.5583 4.56706 43.1591 2.75936 46.2909C0.951659 49.4227 0 52.975 0 56.591C0 60.2071 0.951659 63.7594 2.75936 66.8912C4.56706 70.0229 7.16714 72.6238 10.2984 74.4324C13.4296 76.2411 16.9816 77.1938 20.5977 77.1949C24.2137 77.196 27.7663 76.2454 30.8986 74.4386C34.3553 72.4374 36.8296 69.3718 38.8764 66.097C40.5592 63.368 44.7528 59.9841 50.0379 63.0405C51.8943 64.1526 53.2408 65.948 53.7884 68.0416C54.3361 70.1351 54.0412 72.3599 52.967 74.2385C51.1477 77.6497 49.7377 81.3248 49.7377 85.3182C49.7377 90.7844 51.9091 96.0268 55.7743 99.8921C59.6394 103.757 64.8817 105.929 70.3479 105.929C73.9658 105.93 77.5203 104.979 80.6539 103.171C83.7875 101.363 86.3898 98.7612 88.1991 95.6283C90.9331 90.8953 91.6755 85.2702 90.2631 79.99C88.8506 74.7097 85.399 70.2065 80.6671 67.4706L80.6662 67.5434Z" fill="#008CFF"/>
<path d="M119.311 25.306H133.656V32.0739C135.569 29.7467 137.972 27.8706 140.694 26.5795C143.416 25.2885 146.39 24.6145 149.402 24.6056C151.446 24.529 153.489 24.7652 155.461 25.306V41.6799C155.461 41.6799 153.477 40.9795 148.702 40.9795C140.515 40.9795 135.057 46.4375 135.057 54.6244V88.0545H119.311V25.306ZM196.404 25.306H210.75V31.3735C215.648 27.0493 221.946 24.6451 228.479 24.6056C244.225 24.6056 257.87 38.2505 257.87 56.6803C257.87 75.11 244.225 88.7549 228.479 88.7549C222.463 88.7703 216.651 86.5718 212.151 82.5783V110.569H196.404V25.306ZM242.124 56.6803C242.124 46.4193 235.356 39.6514 226.496 39.6514C217.636 39.6514 210.75 46.392 210.75 56.6803C210.75 66.9685 217.627 73.6818 226.505 73.6818C235.383 73.6818 242.124 66.9503 242.124 56.6803ZM269.414 25.306H283.759V31.3735C288.658 27.0515 294.956 24.6476 301.489 24.6056C317.235 24.6056 330.88 38.2505 330.88 56.6803C330.88 75.11 317.235 88.7549 301.489 88.7549C295.473 88.7652 289.663 86.5673 285.16 82.5783V110.569H269.414V25.306ZM315.143 56.6803C315.143 46.4193 308.375 39.6514 299.505 39.6514C290.636 39.6514 283.759 46.392 283.759 56.6803C283.759 66.9685 290.645 73.6818 299.505 73.6818C308.366 73.6818 315.143 66.9503 315.143 56.6803ZM342.432 2.10054H358.179V88.0545H342.432V2.10054ZM369.722 56.6803C369.722 38.96 384.068 24.6056 401.096 24.6056C417.534 24.6056 431.179 37.5592 431.179 56.6803C431.113 58.7577 430.879 60.8264 430.479 62.866H386.751C388.152 68.9334 392.973 73.6818 401.096 73.6818C408.447 73.6818 411.367 70.307 411.367 70.307H428.395C425.239 78.4939 415.442 88.7276 401.106 88.7276C384.068 88.7549 369.722 74.4096 369.722 56.6803ZM416.115 51.9045C415.399 48.4432 413.512 45.3345 410.771 43.1026C408.03 40.8706 404.604 39.6519 401.069 39.6519C397.535 39.6519 394.108 40.8706 391.367 43.1026C388.627 45.3345 386.739 48.4432 386.023 51.9045H416.115ZM164.648 8.85933C164.649 6.49282 165.589 4.22344 167.263 2.55006C168.936 0.876684 171.205 -0.0637298 173.572 -0.0644531C175.337 -0.0644531 177.062 0.458918 178.53 1.43948C179.997 2.42003 181.141 3.81374 181.816 5.44435C182.492 7.07495 182.669 8.86923 182.324 10.6003C181.98 12.3313 181.13 13.9214 179.882 15.1694C178.634 16.4174 177.044 17.2673 175.313 17.6116C173.582 17.956 171.788 17.7793 170.157 17.1038C168.526 16.4284 167.133 15.2846 166.152 13.8171C165.171 12.3496 164.648 10.6243 164.648 8.85933ZM165.703 25.306H181.477V88.0727H165.731L165.703 25.306Z" fill="black"/>
</g>
</g>
</mask>
<g mask="url(#mask0_2903_65)">
<rect x="-237.648" y="-395.361" width="1462.08" height="1179.06" fill="white"/>
</g>
<defs>
<clipPath id="clip0_2903_65">
<rect width="432.089" height="110.979" fill="white"/>
</clipPath>
</defs>
</svg>
