<svg width="320" height="75" viewBox="0 0 320 75" fill="none" xmlns="http://www.w3.org/2000/svg">
<mask id="mask0_2903_132" style="mask-type:alpha" maskUnits="userSpaceOnUse" x="0" y="0" width="320" height="75">
<g clip-path="url(#clip0_2903_132)">
<path d="M47.8321 73.6408H11.1078C5.16296 73.6408 0.34375 68.8217 0.34375 62.8767V21.0864C0.34375 15.1416 5.16296 10.3223 11.1078 10.3223H63.6615L47.8321 73.6408Z" fill="#006DA8"/>
<path d="M48.1125 0H84.837C90.7817 0 95.6008 4.81929 95.6008 10.7642V52.5544C95.6008 58.4994 90.7817 63.3186 84.837 63.3186H32.2832L48.1125 0Z" fill="#9F73FF"/>
<path d="M48.1125 0H84.837C90.7817 0 95.6008 4.81929 95.6008 10.7642V52.5544C95.6008 58.4994 90.7817 63.3186 84.837 63.3186H32.2832L48.1125 0Z" fill="url(#paint0_linear_2903_132)"/>
<path d="M117.189 10.8125H124.937L136.379 48.1994L148.45 10.8125H155.297L166.739 48.1994L178.721 10.8125H186.198L170.883 56.7581H162.775L151.694 22.6142L140.162 56.7581L132.054 56.848L117.189 10.8125Z" fill="#2E2E2E"/>
<path d="M234.269 10.8101V56.7557H227.873L226.882 49.3684C223.038 54.6535 217.783 57.2961 211.117 57.2961C206.852 57.2961 203.038 56.3654 199.675 54.5035C196.372 52.6416 193.76 49.9389 191.838 46.3953C189.976 42.8517 189.045 38.6477 189.045 33.7828C189.045 29.1582 189.976 25.0742 191.838 21.5307C193.76 17.9872 196.402 15.2244 199.765 13.2425C203.129 11.2605 206.913 10.2695 211.117 10.2695C214.78 10.2695 217.933 10.9602 220.576 12.3416C223.218 13.723 225.321 15.6148 226.882 18.0172L227.873 10.8101H234.269ZM211.837 50.7196C214.78 50.7196 217.393 50.0288 219.675 48.6475C222.017 47.2061 223.819 45.2243 225.08 42.7016C226.342 40.1191 226.972 37.2062 226.972 33.963C226.972 30.6597 226.342 27.7168 225.08 25.1343C223.819 22.4917 222.017 20.4496 219.675 19.0082C217.393 17.5668 214.78 16.846 211.837 16.846C207.273 16.846 203.579 18.4376 200.757 21.6208C197.994 24.7439 196.612 28.7979 196.612 33.7828C196.612 38.7678 197.994 42.8517 200.757 46.035C203.579 49.1582 207.273 50.7196 211.837 50.7196Z" fill="#2E2E2E"/>
<path d="M267.663 10.8125V18.0196H263.97C259.585 18.0196 256.432 19.4911 254.51 22.434C252.648 25.3769 251.717 29.0105 251.717 33.3348V56.7581H244.33V10.8125H250.726L251.717 17.7493C253.039 15.6473 254.751 13.9656 256.853 12.7044C258.955 11.4431 261.868 10.8125 265.591 10.8125H267.663Z" fill="#2E2E2E"/>
<path d="M297.571 10.2695C301.835 10.2695 305.619 11.2005 308.922 13.0623C312.285 14.9242 314.898 17.6268 316.76 21.1703C318.682 24.7138 319.643 28.918 319.643 33.7828C319.643 38.4074 318.682 42.4914 316.76 46.035C314.898 49.5786 312.285 52.3412 308.922 54.323C305.559 56.3052 301.775 57.2961 297.571 57.2961C293.847 57.2961 290.664 56.6354 288.021 55.3143C285.379 53.9326 283.306 52.0707 281.805 49.7287V74.7734H274.418V10.8101H280.814L281.805 18.1974C285.649 12.9122 290.904 10.2695 297.571 10.2695ZM296.85 50.7196C301.414 50.7196 305.078 49.1582 307.841 46.035C310.664 42.8517 312.075 38.7678 312.075 33.7828C312.075 28.7979 310.664 24.7439 307.841 21.6208C305.078 18.4376 301.414 16.846 296.85 16.846C293.907 16.846 291.265 17.5668 288.922 19.0082C286.64 20.3896 284.868 22.3715 283.607 24.9541C282.346 27.4766 281.715 30.3594 281.715 33.6026C281.715 36.9059 282.346 39.8789 283.607 42.5215C284.868 45.1039 286.64 47.1162 288.922 48.5576C291.265 49.9991 293.907 50.7196 296.85 50.7196Z" fill="#2E2E2E"/>
</g>
</mask>
<g mask="url(#mask0_2903_132)">
<rect x="-183.539" y="-306.133" width="1131.33" height="912.336" fill="white"/>
</g>
<defs>
<linearGradient id="paint0_linear_2903_132" x1="53.8966" y1="51.8264" x2="105.924" y2="9.45017" gradientUnits="userSpaceOnUse">
<stop stop-color="#01A4FF"/>
<stop offset="0.791667" stop-color="#01FFC2"/>
</linearGradient>
<clipPath id="clip0_2903_132">
<rect width="319.297" height="74.8091" fill="white" transform="translate(0.34375)"/>
</clipPath>
</defs>
</svg>
