<svg width="385" height="101" viewBox="0 0 385 101" fill="none" xmlns="http://www.w3.org/2000/svg">
<mask id="mask0_2903_143" style="mask-type:alpha" maskUnits="userSpaceOnUse" x="0" y="0" width="385" height="102">
<g clip-path="url(#clip0_2903_143)">
<path d="M6.81402 0C5.00683 0 3.27366 0.717904 1.99578 1.99578C0.717906 3.27366 2.44294e-06 5.00683 2.44294e-06 6.81402V87.6111C-0.000755657 88.5064 0.174935 89.3931 0.517032 90.2204C0.859129 91.0478 1.36093 91.7997 1.99374 92.433C2.62656 93.0664 3.37799 93.5688 4.20508 93.9116C5.03217 94.2544 5.91871 94.4308 6.81402 94.4308C8.62122 94.4308 10.3544 93.7129 11.6323 92.4351C12.9101 91.1572 13.628 89.424 13.628 87.6168V6.81402C13.628 5.00683 12.9101 3.27366 11.6323 1.99578C10.3544 0.717904 8.62122 0 6.81402 0Z" fill="#F5F5F5"/>
<path d="M47.7515 15.4453C46.8567 15.4453 45.9706 15.6216 45.1439 15.964C44.3172 16.3064 43.566 16.8084 42.9333 17.4411C42.3005 18.0738 41.7986 18.825 41.4562 19.6517C41.1138 20.4784 40.9375 21.3645 40.9375 22.2593V71.5268C40.9375 73.334 41.6554 75.0672 42.9333 76.3451C44.2112 77.623 45.9443 78.3409 47.7515 78.3409C49.5587 78.3409 51.2919 77.623 52.5698 76.3451C53.8476 75.0672 54.5655 73.334 54.5655 71.5268V22.2593C54.5655 20.4521 53.8476 18.719 52.5698 17.4411C51.2919 16.1632 49.5587 15.4453 47.7515 15.4453Z" fill="#F5F5F5"/>
<path d="M27.2886 43.248C25.4812 43.248 23.7479 43.9659 22.4697 45.2437C21.1915 46.5215 20.4732 48.2547 20.4727 50.0621V78.1413C20.4732 79.9487 21.1915 81.6818 22.4697 82.9597C23.7479 84.2375 25.4812 84.9553 27.2886 84.9553C29.0956 84.9548 30.8285 84.2367 32.1063 82.959C33.384 81.6812 34.1021 79.9483 34.1026 78.1413V50.0621C34.1026 48.2549 33.3847 46.5217 32.1068 45.2438C30.829 43.966 29.0958 43.248 27.2886 43.248Z" fill="#F5F5F5"/>
<path d="M88.6949 0.00195312C87.8001 0.00195312 86.914 0.178203 86.0873 0.52064C85.2606 0.863076 84.5094 1.36499 83.8766 1.99773C83.2439 2.63047 82.742 3.38165 82.3995 4.20836C82.0571 5.03508 81.8809 5.92114 81.8809 6.81598V87.613C81.8809 89.4202 82.5988 91.1534 83.8766 92.4312C85.1545 93.7091 86.8877 94.427 88.6949 94.427C90.5021 94.427 92.2352 93.7091 93.5131 92.4312C94.791 91.1534 95.5089 89.4202 95.5089 87.613V6.81598C95.5089 5.00878 94.791 3.27561 93.5131 1.99773C92.2352 0.719857 90.5021 0.00195313 88.6949 0.00195312Z" fill="#F5F5F5"/>
<path d="M68.2203 43.248C66.4131 43.248 64.6799 43.966 63.402 45.2438C62.1242 46.5217 61.4062 48.2549 61.4062 50.0621V78.1413C61.4062 79.9485 62.1242 81.6817 63.402 82.9595C64.6799 84.2374 66.4131 84.9553 68.2203 84.9553C70.0275 84.9553 71.7606 84.2374 73.0385 82.9595C74.3164 81.6817 75.0343 79.9485 75.0343 78.1413V50.0621C75.0343 48.2549 74.3164 46.5217 73.0385 45.2438C71.7606 43.966 70.0275 43.248 68.2203 43.248Z" fill="#F5F5F5"/>
<path d="M196.738 60.1586L182.362 15.4434H170.563L156.187 60.1586L142.405 15.4434H126.74L149.94 84.9452H161.839L176.314 40.33L190.888 84.9452H202.687L225.689 15.4434H210.322L196.738 60.1586Z" fill="#F5F5F5"/>
<path d="M236.464 14.0547C231.804 14.0547 227.938 17.9204 227.938 22.4804C227.921 23.6109 228.13 24.7335 228.55 25.7829C228.971 26.8323 229.597 27.7875 230.39 28.5929C231.184 29.3984 232.129 30.038 233.172 30.4746C234.215 30.9112 235.334 31.1361 236.465 31.1361C237.596 31.1361 238.715 30.9112 239.758 30.4746C240.801 30.038 241.747 29.3984 242.54 28.5929C243.334 27.7875 243.959 26.8323 244.38 25.7829C244.801 24.7335 245.009 23.6109 244.992 22.4804C244.992 17.9204 241.124 14.0547 236.464 14.0547Z" fill="#F5F5F5"/>
<path d="M263.072 50.242C263.072 47.961 265.451 46.8705 268.622 46.8705C273.084 46.8705 275.761 49.0534 275.959 51.5305H290.039C288.849 40.7239 279.431 35.2715 268.92 35.2715C256.923 35.2715 249.588 42.2105 249.588 51.2343C249.588 69.3762 276.952 62.2391 276.952 70.2744C276.952 72.5553 274.573 73.9439 270.413 73.9439C265.753 73.9439 262.283 71.763 261.985 68.4915H248.596C249.588 79.4963 258.404 85.9411 271.098 85.9411C282.104 85.9411 290.522 79.1001 290.522 70.1705C290.534 49.8458 263.072 57.7772 263.072 50.242Z" fill="#F5F5F5"/>
<path d="M325.46 35.2715C318.717 35.2715 313.463 38.0467 310.091 43.1029V36.2619H296.111V101.006H310.091V78.1019C313.463 83.1581 318.717 85.9353 325.46 85.9353C338.051 85.9353 348.066 74.5324 348.066 60.5486C348.066 46.5647 338.051 35.2715 325.46 35.2715ZM322.287 72.5496C315.446 72.5496 310.091 67.3934 310.091 60.5524C310.091 53.8211 315.446 48.5572 322.287 48.5572C329.029 48.5572 334.384 53.9096 334.384 60.5524C334.384 67.2953 329.029 72.5496 322.287 72.5496Z" fill="#F5F5F5"/>
<path d="M379.985 35.2715C374.533 35.2715 370.269 37.6505 367.394 41.8105V36.2619H353.414V84.9429H367.394V60.9505C367.394 51.9267 372.846 47.8629 379.589 47.8629C381.274 47.8629 382.959 48.1591 384.645 48.5572V35.8638C383.059 35.5677 381.472 35.2715 379.985 35.2715Z" fill="#F5F5F5"/>
<path d="M243.501 36.2617H229.521V84.9427H243.501V36.2617Z" fill="#F5F5F5"/>
</g>
</mask>
<g mask="url(#mask0_2903_143)">
<rect x="-84.6191" y="-140.785" width="520.62" height="419.842" fill="white"/>
</g>
<defs>
<clipPath id="clip0_2903_143">
<rect width="384.647" height="101.004" fill="white"/>
</clipPath>
</defs>
</svg>
