<svg width="1728" height="229" viewBox="0 0 1728 229" fill="none" xmlns="http://www.w3.org/2000/svg">
<g filter="url(#filter0_d_2232_4190)">
<path d="M-6 6C191.357 68.5 648.813 92.5 861 92.5C1073.19 92.5 1530.64 68.5 1728 6" stroke="#502201" stroke-width="10" stroke-linecap="round"/>
<path d="M209.97 143.641C198.386 142.144 189.146 136.839 182.248 127.726C175.35 118.612 172.942 107.863 175.025 95.4767C177.214 82.4595 182.834 72.4247 191.883 65.3723C201.012 58.3301 211.844 55.619 224.38 57.239C235.963 58.736 245.138 64.1938 251.904 73.6125C258.762 82.9625 261.136 93.9094 259.027 106.453C256.904 119.076 251.132 128.809 241.713 135.652C232.373 142.506 221.792 145.169 209.97 143.641ZM217.651 135.566C221.936 136.119 225.52 135.051 228.404 132.361C231.289 129.67 233.176 125.682 234.065 120.397C235.206 113.612 235.177 106.071 233.978 97.7752C232.792 89.4001 230.469 82.0064 227.008 75.5943C223.626 69.1923 219.674 65.6991 215.151 65.1147C210.946 64.5713 207.402 65.6447 204.517 68.335C201.712 71.0356 199.845 75.1471 198.917 80.6695C197.656 88.1642 197.625 96.0597 198.824 104.356C200.036 112.573 202.327 119.68 205.695 125.678C209.144 131.685 213.129 134.981 217.651 135.566Z" fill="#5481B2"/>
<path d="M182.248 127.726L190.376 121.583L190.376 121.583L182.248 127.726ZM191.883 65.3723L185.881 57.6157L185.86 57.6317L185.839 57.6477L191.883 65.3723ZM251.904 73.6125L243.635 79.5656L243.663 79.6037L243.69 79.6416L251.904 73.6125ZM241.713 135.652L235.954 127.713L235.934 127.728L235.914 127.743L241.713 135.652ZM228.404 132.361L235.161 139.477L235.161 139.477L228.404 132.361ZM233.978 97.7752L224.019 99.5042L224.021 99.5181L224.023 99.5319L233.978 97.7752ZM227.008 75.5943L218.059 80.4482L218.079 80.4858L218.099 80.5231L227.008 75.5943ZM204.517 68.335L197.761 61.2184L197.7 61.2755L197.64 61.3334L204.517 68.335ZM198.824 104.356L188.869 106.113L188.871 106.127L188.873 106.141L198.824 104.356ZM205.695 125.678L196.863 130.746L196.885 130.784L196.906 130.822L205.695 125.678ZM211.629 133.78C202.635 132.617 195.72 128.643 190.376 121.583L174.119 133.869C182.571 145.035 194.138 151.671 208.312 153.503L211.629 133.78ZM190.376 121.583C185.2 114.744 183.267 106.724 184.943 96.7583L165.108 94.195C162.617 109.001 165.499 122.481 174.119 133.869L190.376 121.583ZM184.943 96.7583C186.785 85.8047 191.29 78.2692 197.927 73.0968L185.839 57.6477C174.378 66.5802 167.644 79.1142 165.108 94.195L184.943 96.7583ZM197.886 73.1288C204.551 67.9867 212.537 65.7844 222.721 67.1005L226.038 47.3775C211.151 45.4536 197.472 48.6735 185.881 57.6157L197.886 73.1288ZM222.721 67.1005C231.588 68.2464 238.394 72.2693 243.635 79.5656L260.172 67.6593C251.882 56.1183 240.339 49.2256 226.038 47.3775L222.721 67.1005ZM243.69 79.6416C248.896 86.739 250.818 95.0091 249.109 105.172L268.944 107.735C271.454 92.8096 268.628 79.186 260.117 67.5834L243.69 79.6416ZM249.109 105.172C247.373 115.494 242.884 122.679 235.954 127.713L247.472 143.591C259.381 134.939 266.434 122.658 268.944 107.735L249.109 105.172ZM235.914 127.743C228.852 132.925 220.978 134.988 211.629 133.78L208.312 153.503C222.606 155.35 235.894 152.087 247.512 143.562L235.914 127.743ZM215.993 145.427C222.914 146.321 229.714 144.558 235.161 139.477L221.648 125.244C221.326 125.544 220.958 125.917 219.31 125.704L215.993 145.427ZM235.161 139.477C240.259 134.722 242.861 128.342 243.982 121.678L224.147 119.115C223.49 123.023 222.318 124.619 221.648 125.244L235.161 139.477ZM243.982 121.678C245.327 113.68 245.245 105.095 243.933 96.0185L224.023 99.5319C225.109 107.048 225.084 113.543 224.147 119.115L243.982 121.678ZM243.937 96.0461C242.616 86.7141 239.988 78.2081 235.917 70.6654L218.099 80.5231C220.95 85.8048 222.969 92.086 224.019 99.5042L243.937 96.0461ZM235.957 70.7403C232.026 63.2981 226.007 56.4418 216.81 55.2532L213.493 74.9762C213.531 74.9811 213.616 74.9952 213.774 75.0715C213.943 75.1529 214.242 75.3282 214.656 75.6942C215.523 76.4605 216.716 77.9056 218.059 80.4482L235.957 70.7403ZM216.81 55.2532C209.899 54.36 203.161 56.182 197.761 61.2184L211.274 75.4516C211.643 75.1074 211.994 74.7825 213.493 74.9762L216.81 55.2532ZM197.64 61.3334C192.632 66.1545 190.129 72.6686 188.999 79.3878L208.834 81.9512C209.562 77.6255 210.793 75.9166 211.395 75.3366L197.64 61.3334ZM188.999 79.3878C187.55 88.0022 187.542 96.9277 188.869 106.113L208.779 102.599C207.709 95.1918 207.762 88.3263 208.834 81.9512L188.999 79.3878ZM188.873 106.141C190.223 115.293 192.825 123.557 196.863 130.746L214.528 120.609C211.828 115.804 209.849 109.853 208.775 102.571L188.873 106.141ZM196.906 130.822C201.017 137.983 207.101 144.278 215.993 145.427L219.31 125.704C219.157 125.684 217.271 125.387 214.484 120.533L196.906 130.822Z" fill="white"/>
<path d="M341.675 159.111C330.685 158.066 322.198 154.367 316.216 148.015C310.313 141.67 308.02 133.178 309.336 122.539L314.243 82.8818C314.489 80.8969 313.933 78.876 312.576 76.8191C311.229 74.6828 310.614 73.1383 310.732 72.1856L310.791 71.7092C310.977 70.2007 312.026 69.5373 313.938 69.719L340.219 72.2178C342.131 72.3995 342.993 73.2446 342.806 74.7531L342.747 75.2295C342.63 76.1822 341.572 77.5677 339.574 79.386C337.586 81.1249 336.469 82.9868 336.224 84.9716L331.317 124.629C329.323 140.746 334.777 149.418 347.678 150.645C349.669 150.834 351.665 150.662 353.665 150.13C355.674 149.517 357.698 148.465 359.736 146.972C361.854 145.486 363.676 143.129 365.204 139.9C366.731 136.672 367.78 132.755 368.35 128.15L373.257 88.4926C373.502 86.5078 372.907 84.4831 371.47 82.4186C370.123 80.2823 369.508 78.7378 369.626 77.785L369.685 77.3087C369.872 75.8002 370.921 75.1368 372.832 75.3185L388.004 76.761C389.915 76.9427 390.778 77.7878 390.591 79.2963L390.532 79.7727C390.414 80.7254 389.316 82.1071 387.239 83.9179C385.251 85.6567 384.135 87.5186 383.889 89.5035L378.953 129.399C377.646 139.959 373.613 147.809 366.853 152.95C360.182 158.019 351.79 160.073 341.675 159.111Z" fill="#5481B2"/>
<path d="M316.216 148.015L308.765 154.891L308.785 154.913L308.805 154.934L316.216 148.015ZM312.576 76.8191L304.035 82.2797L304.088 82.3631L304.142 82.4454L312.576 76.8191ZM339.574 79.386L346.083 86.7898L346.16 86.7221L346.236 86.6529L339.574 79.386ZM353.665 150.13L356.01 159.754L356.186 159.708L356.36 159.655L353.665 150.13ZM359.736 146.972L354.105 138.879L354.017 138.941L353.93 139.004L359.736 146.972ZM365.204 139.9L356.148 135.864L365.204 139.9ZM371.47 82.4186L362.93 87.8792L363.045 88.0631L363.17 88.2415L371.47 82.4186ZM387.239 83.9179L380.744 76.502L380.737 76.508L380.73 76.514L387.239 83.9179ZM366.853 152.95L372.805 160.808L372.808 160.805L366.853 152.95ZM342.903 149.187C333.682 148.31 327.626 145.343 323.627 141.096L308.805 154.934C316.77 163.392 327.688 167.822 340.447 169.035L342.903 149.187ZM323.667 141.138C320.132 137.339 318.246 131.936 319.291 123.486L299.381 121.593C297.794 134.42 300.494 146.001 308.765 154.891L323.667 141.138ZM319.291 123.486L324.198 83.8283L304.288 81.9353L299.381 121.593L319.291 123.486ZM324.198 83.8283C324.797 78.9881 323.311 74.6806 321.01 71.1928L304.142 82.4454C304.361 82.7777 304.364 82.8789 304.329 82.7515C304.311 82.6861 304.287 82.5746 304.276 82.4238C304.264 82.2718 304.267 82.1056 304.288 81.9353L324.198 83.8283ZM321.117 71.3585C320.879 70.9822 320.71 70.6891 320.595 70.4727C320.477 70.2511 320.439 70.1558 320.446 70.172C320.447 70.1753 320.541 70.4047 320.623 70.8185C320.701 71.211 320.823 72.0333 320.687 73.1321L300.777 71.2391C300.413 74.1763 301.243 76.6386 301.763 77.945C302.37 79.471 303.192 80.9422 304.035 82.2797L321.117 71.3585ZM320.687 73.1321L320.746 72.6557L300.836 70.7627L300.777 71.2391L320.687 73.1321ZM320.746 72.6557C320.564 74.128 319.652 76.7299 316.934 78.4489C314.702 79.8601 312.8 79.6519 312.71 79.6434L315.166 59.7947C313.165 59.6044 309.782 59.6371 306.501 61.7117C302.734 64.094 301.204 67.7819 300.836 70.7627L320.746 72.6557ZM312.71 79.6434L338.991 82.1421L341.447 62.2935L315.166 59.7947L312.71 79.6434ZM338.991 82.1421C338.901 82.1336 336.992 81.9793 335.158 80.1815C332.923 77.9917 332.669 75.279 332.851 73.8066L352.761 75.6996C353.13 72.7188 352.538 68.8293 349.442 65.7943C346.745 63.1514 343.449 62.4837 341.447 62.2935L338.991 82.1421ZM332.851 73.8066L332.792 74.283L352.703 76.176L352.761 75.6996L332.851 73.8066ZM332.792 74.283C332.945 73.049 333.329 72.1762 333.535 71.7679C333.751 71.3371 333.929 71.107 333.937 71.0976C333.954 71.0746 333.893 71.1569 333.707 71.3513C333.527 71.5406 333.267 71.7955 332.912 72.1192L346.236 86.6529C347.477 85.5239 348.74 84.2506 349.795 82.8688C350.674 81.7175 352.309 79.3544 352.703 76.176L332.792 74.283ZM333.065 71.9822C329.762 74.8722 326.905 78.8806 326.269 84.0251L346.179 85.9181C346.15 86.1563 346.094 86.3817 346.023 86.5829C345.953 86.7821 345.877 86.9271 345.824 87.015C345.724 87.1827 345.737 87.0921 346.083 86.7898L333.065 71.9822ZM326.269 84.0251L321.362 123.683L341.272 125.576L346.179 85.9181L326.269 84.0251ZM321.362 123.683C320.234 132.797 320.941 141.638 325.365 148.672C330.077 156.165 337.794 159.746 346.45 160.569L348.906 140.721C344.661 140.317 343.2 138.949 342.459 137.77C341.428 136.132 340.406 132.578 341.272 125.576L321.362 123.683ZM346.45 160.569C349.665 160.875 352.871 160.591 356.01 159.754L351.319 140.505C350.458 140.734 349.673 140.793 348.906 140.721L346.45 160.569ZM356.36 159.655C359.68 158.643 362.742 156.99 365.542 154.939L353.93 139.004C352.654 139.939 351.668 140.392 350.969 140.605L356.36 159.655ZM365.367 155.064C369.425 152.217 372.25 148.185 374.26 143.937L356.148 135.864C355.103 138.073 354.282 138.755 354.105 138.879L365.367 155.064ZM374.26 143.937C376.369 139.478 377.642 134.457 378.305 129.097L358.395 127.204C357.918 131.053 357.094 133.865 356.148 135.864L374.26 143.937ZM378.305 129.097L383.212 89.4391L363.302 87.5461L358.395 127.204L378.305 129.097ZM383.212 89.4391C383.83 84.4466 382.185 80.0646 379.771 76.5957L363.17 88.2415C363.41 88.5867 363.407 88.6814 363.361 88.5249C363.337 88.4437 363.306 88.3095 363.29 88.1299C363.274 87.9488 363.277 87.7503 363.302 87.5461L383.212 89.4391ZM380.011 76.958C379.774 76.5817 379.605 76.2886 379.49 76.0721C379.371 75.8506 379.334 75.7553 379.34 75.7714C379.342 75.7748 379.435 76.0042 379.517 76.418C379.595 76.8105 379.717 77.6328 379.581 78.7315L359.671 76.8385C359.308 79.7758 360.137 82.238 360.657 83.5445C361.265 85.0705 362.086 86.5417 362.93 87.8792L380.011 76.958ZM379.581 78.7315L379.64 78.2552L359.73 76.3622L359.671 76.8385L379.581 78.7315ZM379.64 78.2552C379.458 79.7275 378.547 82.3294 375.828 84.0484C373.597 85.4596 371.694 85.2514 371.604 85.2428L374.06 65.3942C372.059 65.2039 368.676 65.2366 365.396 67.3112C361.628 69.6935 360.099 73.3813 359.73 76.3622L379.64 78.2552ZM371.604 85.2428L386.776 86.6853L389.232 66.8367L374.06 65.3942L371.604 85.2428ZM386.776 86.6853C386.686 86.6768 384.777 86.5225 382.942 84.7247C380.708 82.5349 380.454 79.8222 380.636 78.3498L400.546 80.2428C400.915 77.262 400.323 73.3725 397.226 70.3375C394.529 67.6946 391.233 67.0269 389.232 66.8367L386.776 86.6853ZM380.636 78.3498L380.577 78.8262L400.487 80.7192L400.546 80.2428L380.636 78.3498ZM380.577 78.8262C380.738 77.5244 381.156 76.6065 381.378 76.1807C381.612 75.7311 381.805 75.4913 381.814 75.4803C381.834 75.4547 381.771 75.5365 381.577 75.7318C381.388 75.9218 381.116 76.1775 380.744 76.502L393.734 91.3337C395.018 90.215 396.329 88.9482 397.427 87.5668C398.327 86.4332 400.079 84.0172 400.487 80.7192L380.577 78.8262ZM380.73 76.514C377.427 79.4041 374.57 83.4124 373.934 88.557L393.844 90.45C393.815 90.6881 393.759 90.9135 393.688 91.1147C393.618 91.3139 393.542 91.459 393.489 91.5468C393.389 91.7145 393.402 91.6239 393.748 91.3217L380.73 76.514ZM373.934 88.557L368.997 128.453L388.908 130.346L393.844 90.45L373.934 88.557ZM368.997 128.453C367.931 137.068 364.877 142.068 360.898 145.094L372.808 160.805C382.348 153.55 387.361 142.85 388.908 130.346L368.997 128.453ZM360.901 145.092C356.745 148.25 351.088 149.965 342.903 149.187L340.447 169.035C352.492 170.181 363.619 167.788 372.805 160.808L360.901 145.092Z" fill="white"/>
<path d="M501.46 158.144C502.416 159.976 503.629 161.626 505.1 163.093C506.658 164.486 507.84 165.613 508.644 166.471C509.456 167.251 509.817 168.118 509.729 169.074L509.685 169.552C509.545 171.066 508.518 171.755 506.603 171.619L477.396 169.548C475.481 169.412 474.593 168.587 474.733 167.074L474.777 166.596C474.85 165.799 475.414 164.917 476.467 163.949C477.527 162.902 478.298 161.954 478.777 161.106C479.337 160.264 479.317 158.739 478.718 156.532L470.285 136.931L459.251 136.389L457.531 155.03C457.347 157.021 458.041 159.075 459.613 161.191C461.272 163.233 462.057 164.732 461.969 165.688L461.925 166.166C461.785 167.679 460.758 168.368 458.843 168.232L432.509 166.365C430.594 166.23 429.706 165.405 429.845 163.891L429.89 163.413C429.978 162.457 430.908 161.08 432.68 159.281C434.46 157.403 435.442 155.468 435.626 153.476L441.05 94.6862C441.234 92.6947 440.616 90.6864 439.197 88.6613C437.785 86.5566 437.123 85.0263 437.211 84.0704L437.255 83.5924C437.394 82.0788 438.422 81.3899 440.337 81.5257L472.536 83.8087C483.708 84.6009 492.313 87.5363 498.35 92.6149C504.388 97.6936 507.042 104.617 506.313 113.386C505.894 117.926 504.221 122.137 501.292 126.019C498.364 129.901 494.359 132.824 489.278 134.789L501.46 158.144ZM460.883 118.704C460.574 122.05 460.952 124.482 462.017 126.001C463.168 127.446 465.021 128.258 467.575 128.439L471.166 128.694C474.358 128.92 477.069 127.83 479.299 125.422C481.609 123.02 483.003 119.23 483.481 114.052C484.047 107.918 482.914 102.786 480.082 98.6564C477.33 94.5323 473.999 92.3316 470.089 92.0544L467.934 91.9016C466.577 91.8054 465.405 92.3237 464.417 93.4564C463.516 94.5151 462.981 95.9605 462.812 97.7927L460.883 118.704Z" fill="#5481B2"/>
<path d="M501.46 158.144L510.369 153.395L510.369 153.395L501.46 158.144ZM505.1 163.093L497.94 170.222L498.127 170.409L498.324 170.585L505.1 163.093ZM508.644 166.471L501.254 173.364L501.43 173.552L501.616 173.73L508.644 166.471ZM476.467 163.949L483.173 171.223L483.31 171.097L483.442 170.967L476.467 163.949ZM478.777 161.106L470.46 155.717L470.257 156.023L470.077 156.342L478.777 161.106ZM478.718 156.532L488.391 153.737L488.21 153.07L487.937 152.437L478.718 156.532ZM470.285 136.931L479.505 132.836L477.106 127.26L470.987 126.96L470.285 136.931ZM459.251 136.389L459.953 126.418L450.175 125.938L449.276 135.682L459.251 136.389ZM459.613 161.191L451.518 167.238L451.643 167.407L451.775 167.57L459.613 161.191ZM432.68 159.281L439.755 166.199L439.826 166.127L439.896 166.054L432.68 159.281ZM439.197 88.6613L430.834 94.3296L430.889 94.4118L430.946 94.4928L439.197 88.6613ZM498.35 92.6149L491.796 100.299L491.796 100.299L498.35 92.6149ZM506.313 113.386L516.288 114.093L516.293 114.048L516.296 114.002L506.313 113.386ZM489.278 134.789L485.825 125.492L475.188 129.606L480.369 139.539L489.278 134.789ZM462.017 126.001L453.765 131.832L453.937 132.077L454.123 132.31L462.017 126.001ZM479.299 125.422L472.137 118.594L472.07 118.663L472.004 118.734L479.299 125.422ZM480.082 98.6564L471.705 104.304L471.739 104.355L471.774 104.406L480.082 98.6564ZM464.417 93.4564L456.917 86.9974L456.875 87.045L456.834 87.0931L464.417 93.4564ZM492.552 162.894C493.968 165.61 495.773 168.06 497.94 170.222L512.261 155.964C511.486 155.191 510.863 154.342 510.369 153.395L492.552 162.894ZM498.324 170.585C499.805 171.909 500.74 172.814 501.254 173.364L516.034 159.579C514.94 158.411 513.512 157.063 511.876 155.601L498.324 170.585ZM501.616 173.73C501.248 173.377 500.686 172.718 500.261 171.7C499.818 170.637 499.652 169.478 499.754 168.367L519.704 169.781C520.12 165.276 518.186 161.626 515.672 159.212L501.616 173.73ZM499.754 168.367L499.71 168.845L519.66 170.259L519.704 169.781L499.754 168.367ZM499.71 168.845C499.846 167.368 500.676 164.743 503.339 162.958C505.524 161.492 507.431 161.655 507.522 161.661L505.684 181.576C507.689 181.719 511.068 181.605 514.281 179.45C517.97 176.976 519.384 173.25 519.66 170.259L499.71 168.845ZM507.522 161.661L478.315 159.59L476.477 179.506L505.684 181.576L507.522 161.661ZM478.315 159.59C478.405 159.597 480.317 159.705 482.206 161.459C484.506 163.596 484.844 166.304 484.708 167.781L464.758 166.367C464.482 169.358 465.194 173.234 468.382 176.196C471.158 178.775 474.472 179.363 476.477 179.506L478.315 159.59ZM484.708 167.781L484.752 167.303L464.802 165.889L464.758 166.367L484.708 167.781ZM484.752 167.303C484.603 168.914 484.014 170.036 483.673 170.57C483.337 171.096 483.083 171.306 483.173 171.223L469.76 156.676C468.146 158.159 465.229 161.263 464.802 165.889L484.752 167.303ZM483.442 170.967C484.864 169.563 486.354 167.857 487.478 165.871L470.077 156.342C470.179 156.161 470.217 156.135 470.108 156.269C470.004 156.397 469.81 156.617 469.491 156.932L483.442 170.967ZM487.094 166.496C488.959 163.689 489.222 160.785 489.198 158.992C489.174 157.092 488.81 155.279 488.391 153.737L469.044 159.327C469.225 159.992 469.171 160.046 469.166 159.67C469.162 159.402 469.155 157.681 470.46 155.717L487.094 166.496ZM487.937 152.437L479.505 132.836L461.065 141.025L469.498 160.627L487.937 152.437ZM470.987 126.96L459.953 126.418L458.549 146.359L469.583 146.901L470.987 126.96ZM449.276 135.682L447.556 154.322L467.506 155.737L469.226 137.096L449.276 135.682ZM447.556 154.322C447.083 159.443 448.994 163.841 451.518 167.238L467.708 155.144C467.4 154.728 467.373 154.579 467.414 154.701C467.436 154.767 467.473 154.898 467.497 155.086C467.521 155.277 467.528 155.498 467.506 155.737L447.556 154.322ZM451.775 167.57C452.396 168.333 452.57 168.658 452.546 168.612C452.526 168.575 452.373 168.282 452.228 167.773C452.089 167.283 451.873 166.296 451.994 164.981L471.944 166.395C472.253 163.045 471.022 160.37 470.347 159.082C469.537 157.536 468.489 156.09 467.45 154.812L451.775 167.57ZM451.994 164.981L451.95 165.459L471.9 166.873L471.944 166.395L451.994 164.981ZM451.95 165.459C452.086 163.981 452.916 161.356 455.578 159.571C457.764 158.106 459.671 158.268 459.761 158.275L457.924 178.19C459.929 178.332 463.308 178.218 466.521 176.064C470.21 173.59 471.624 169.864 471.9 166.873L451.95 165.459ZM459.761 158.275L433.428 156.408L431.59 176.323L457.924 178.19L459.761 158.275ZM433.428 156.408C433.518 156.414 435.43 156.522 437.318 158.277C439.619 160.414 439.957 163.121 439.82 164.599L419.87 163.184C419.594 166.175 420.306 170.052 423.495 173.013C426.271 175.592 429.585 176.181 431.59 176.323L433.428 156.408ZM439.82 164.599L439.864 164.121L419.915 162.706L419.87 163.184L439.82 164.599ZM439.864 164.121C439.762 165.23 439.462 166.034 439.286 166.437C439.103 166.857 438.945 167.09 438.927 167.118C438.907 167.146 439.11 166.854 439.755 166.199L425.606 152.363C424.478 153.508 423.33 154.803 422.38 156.209C421.555 157.431 420.19 159.724 419.915 162.706L439.864 164.121ZM439.896 166.054C442.804 162.985 445.156 159.006 445.601 154.184L425.651 152.769C425.667 152.598 425.699 152.444 425.737 152.313C425.776 152.184 425.814 152.101 425.831 152.066C425.863 152.003 425.797 152.158 425.465 152.509L439.896 166.054ZM445.601 154.184L451.025 95.3934L431.076 93.9789L425.651 152.769L445.601 154.184ZM451.025 95.3934C451.474 90.537 449.855 86.2636 447.448 82.8299L430.946 94.4928C431.175 94.8199 431.181 94.921 431.142 94.7945C431.122 94.7295 431.095 94.6185 431.079 94.468C431.062 94.3162 431.06 94.1499 431.076 93.9789L451.025 95.3934ZM447.56 82.9931C447.311 82.6223 447.133 82.3331 447.011 82.1194C446.887 81.9006 446.846 81.8061 446.853 81.8222C446.854 81.8255 446.955 82.0528 447.05 82.4647C447.14 82.8555 447.287 83.6752 447.186 84.7776L427.236 83.3631C426.964 86.3103 427.869 88.7535 428.429 90.0479C429.083 91.5598 429.949 93.0119 430.834 94.3296L447.56 82.9931ZM447.186 84.7776L447.23 84.2996L427.28 82.8851L427.236 83.3631L447.186 84.7776ZM447.23 84.2996C447.093 85.7769 446.264 88.4018 443.601 90.1868C441.416 91.6523 439.508 91.4898 439.418 91.4834L441.256 71.568C439.251 71.4259 435.872 71.5399 432.659 73.6943C428.969 76.1682 427.556 79.8943 427.28 82.8851L447.23 84.2996ZM439.418 91.4834L471.617 93.7664L473.455 73.851L441.256 71.568L439.418 91.4834ZM471.617 93.7664C481.525 94.4689 487.865 96.9929 491.796 100.299L504.905 84.9305C496.761 78.0797 485.892 74.7328 473.455 73.851L471.617 93.7664ZM491.796 100.299C495.136 103.109 496.827 106.798 496.33 112.769L516.296 114.002C517.258 102.436 513.639 92.2779 504.905 84.9305L491.796 100.299ZM496.338 112.678C496.102 115.239 495.184 117.672 493.331 120.128L509.253 131.911C513.258 126.603 515.687 120.613 516.288 114.093L496.338 112.678ZM493.331 120.128C491.696 122.295 489.342 124.132 485.825 125.492L492.731 144.086C499.376 141.516 505.032 137.507 509.253 131.911L493.331 120.128ZM480.369 139.539L492.552 162.894L510.369 153.395L498.187 130.04L480.369 139.539ZM450.908 117.997C450.536 122.024 450.665 127.41 453.765 131.832L470.268 120.169C470.819 120.955 470.864 121.497 470.835 121.308C470.823 121.233 470.8 121.043 470.796 120.714C470.792 120.386 470.807 119.956 470.858 119.411L450.908 117.997ZM454.123 132.31C457.532 136.586 462.405 138.096 466.656 138.397L468.494 118.482C468.072 118.452 468.131 118.397 468.466 118.544C468.854 118.714 469.417 119.073 469.91 119.691L454.123 132.31ZM466.656 138.397L470.247 138.652L472.085 118.736L468.494 118.482L466.656 138.397ZM470.247 138.652C476.564 139.1 482.288 136.758 486.594 132.11L472.004 118.734C471.892 118.856 471.837 118.892 471.849 118.883C471.855 118.88 471.872 118.867 471.902 118.851C471.932 118.835 471.969 118.817 472.012 118.8C472.054 118.783 472.095 118.769 472.134 118.759C472.172 118.748 472.201 118.743 472.217 118.741C472.233 118.738 472.233 118.739 472.213 118.74C472.193 118.741 472.151 118.741 472.085 118.736L470.247 138.652ZM486.461 132.25C491.077 127.451 492.881 120.984 493.456 114.759L473.506 113.345C473.325 115.304 473 116.647 472.68 117.517C472.367 118.367 472.116 118.615 472.137 118.594L486.461 132.25ZM493.456 114.759C494.186 106.846 492.775 99.3012 488.39 92.9072L471.774 104.406C473.053 106.271 473.908 108.989 473.506 113.345L493.456 114.759ZM488.459 93.0086C484.54 87.1363 478.771 82.6472 471.007 82.0967L469.17 102.012C469.226 102.016 470.12 101.928 471.705 104.304L488.459 93.0086ZM471.007 82.0967L468.853 81.9439L467.015 101.859L469.17 102.012L471.007 82.0967ZM468.853 81.9439C463.987 81.5989 459.788 83.7051 456.917 86.9974L471.918 99.9153C471.589 100.292 470.947 100.884 469.938 101.33C468.897 101.79 467.862 101.919 467.015 101.859L468.853 81.9439ZM456.834 87.0931C454.177 90.2161 453.134 93.8675 452.837 97.0855L472.787 98.5C472.828 98.0535 472.856 98.8141 472 99.8197L456.834 87.0931ZM452.837 97.0855L450.908 117.997L470.858 119.411L472.787 98.5L452.837 97.0855Z" fill="white"/>
<path d="M648.666 180.853C638.195 180.419 629.643 177.822 623.011 173.063C616.378 168.304 613.213 163.129 613.515 157.537C613.821 151.866 616.852 149.149 622.607 149.388C624.925 149.484 626.92 150.368 628.592 152.038C630.269 153.629 631.646 155.568 632.724 157.854C633.807 160.061 634.967 162.311 636.205 164.604C637.448 166.817 639.227 168.732 641.543 170.349C643.859 171.967 646.655 172.843 649.932 172.979C653.449 173.125 656.254 172.361 658.348 170.687C660.521 169.015 661.692 166.622 661.86 163.507C662.028 160.391 661.289 157.758 659.643 155.608C658.081 153.382 655.931 151.651 653.194 150.417C650.541 149.106 647.56 147.941 644.25 146.923C640.945 145.825 637.646 144.608 634.353 143.27C631.065 141.853 628.07 140.207 625.367 138.334C622.749 136.384 620.651 133.694 619.074 130.266C617.501 126.758 616.841 122.648 617.096 117.935C617.51 110.266 620.804 104.158 626.978 99.6102C633.152 95.0626 641.154 92.9929 650.986 93.4009C660.657 93.8022 668.692 96.3374 675.089 101.006C681.57 105.599 684.62 110.689 684.238 116.278C684.091 118.994 683.175 121.117 681.49 122.649C679.89 124.103 677.611 124.769 674.653 124.647C672.015 124.537 669.818 123.685 668.062 122.091C666.31 120.417 664.932 118.479 663.93 116.275C663.007 114.076 662.045 111.874 661.042 109.671C660.124 107.391 658.746 105.452 656.91 103.855C655.158 102.181 652.923 101.287 650.205 101.175C646.609 101.025 643.797 101.909 641.771 103.827C639.749 105.664 638.654 108.141 638.486 111.256C638.3 114.691 638.982 117.642 640.531 120.108C642.164 122.498 644.305 124.388 646.954 125.779C649.683 127.173 652.697 128.459 655.998 129.637C659.304 130.735 662.563 131.951 665.775 133.285C669.067 134.623 672.025 136.227 674.648 138.097C677.355 139.891 679.461 142.42 680.967 145.685C682.553 148.953 683.223 152.864 682.977 157.417C682.567 165.006 679.044 170.905 672.408 175.113C665.852 179.325 657.938 181.238 648.666 180.853Z" fill="#5481B2"/>
<path d="M623.011 173.063L617.107 181.205L623.011 173.063ZM628.592 152.038L621.472 159.148L621.562 159.237L621.654 159.324L628.592 152.038ZM632.724 157.854L623.663 162.204L623.695 162.273L623.729 162.341L632.724 157.854ZM636.205 164.604L627.385 169.431L627.423 169.503L627.463 169.573L636.205 164.604ZM641.543 170.349L635.741 178.564L635.741 178.564L641.543 170.349ZM658.348 170.687L652.306 162.796L652.228 162.855L652.152 162.916L658.348 170.687ZM659.643 155.608L651.425 161.412L651.542 161.579L651.667 161.742L659.643 155.608ZM653.194 150.417L648.667 159.386L648.824 159.463L648.982 159.534L653.194 150.417ZM644.25 146.923L640.986 156.411L641.091 156.446L641.197 156.478L644.25 146.923ZM634.353 143.27L630.292 152.454L630.388 152.495L630.485 152.534L634.353 143.27ZM625.367 138.334L619.322 146.372L619.456 146.472L619.593 146.567L625.367 138.334ZM619.074 130.266L609.933 134.445L609.953 134.489L609.973 134.532L619.074 130.266ZM626.978 99.6102L632.851 107.628L626.978 99.6102ZM675.089 101.006L669.12 109.101L669.176 109.142L669.232 109.182L675.089 101.006ZM684.238 116.278L674.255 115.72L674.25 115.792L674.246 115.863L684.238 116.278ZM681.49 122.649L674.807 115.295L681.49 122.649ZM668.062 122.091L661.099 129.354L661.19 129.441L661.283 129.526L668.062 122.091ZM663.93 116.275L654.694 120.234L654.751 120.37L654.812 120.504L663.93 116.275ZM661.042 109.671L651.753 113.499L651.834 113.701L651.924 113.899L661.042 109.671ZM656.91 103.855L649.947 111.118L650.113 111.276L650.286 111.426L656.91 103.855ZM641.771 103.827L648.454 111.181L648.53 111.112L648.605 111.041L641.771 103.827ZM640.531 120.108L632.036 125.495L632.138 125.656L632.245 125.813L640.531 120.108ZM646.954 125.779L642.212 134.637L642.26 134.663L642.309 134.688L646.954 125.779ZM655.998 129.637L652.529 139.053L652.632 139.09L652.735 139.124L655.998 129.637ZM665.775 133.285L661.836 142.52L661.871 142.535L661.907 142.55L665.775 133.285ZM674.648 138.097L668.767 146.255L668.904 146.353L669.045 146.446L674.648 138.097ZM680.967 145.685L671.87 149.959L671.911 150.047L671.953 150.134L680.967 145.685ZM672.408 175.113L667.12 166.695L667.095 166.711L667.07 166.727L672.408 175.113ZM649.205 170.868C640.139 170.491 633.602 168.285 628.915 164.922L617.107 181.205C625.685 187.359 636.251 190.346 648.127 190.839L649.205 170.868ZM628.915 164.922C623.648 161.143 623.462 158.769 623.507 157.952L603.524 157.123C602.964 167.49 609.109 175.466 617.107 181.205L628.915 164.922ZM623.507 157.952C623.539 157.348 623.625 157.234 623.548 157.428C623.451 157.671 623.188 158.165 622.649 158.647C622.114 159.127 621.615 159.321 621.409 159.378C621.252 159.423 621.42 159.346 622.068 159.373L623.146 139.402C618.764 139.221 613.576 140.09 609.386 143.845C605.17 147.625 603.762 152.712 603.524 157.123L623.507 157.952ZM622.068 159.373C622.071 159.373 622.028 159.372 621.951 159.354C621.874 159.337 621.784 159.308 621.692 159.267C621.49 159.178 621.419 159.094 621.472 159.148L635.712 144.928C632.34 141.559 628.018 139.605 623.146 139.402L622.068 159.373ZM621.654 159.324C622.368 160.002 623.056 160.918 623.663 162.204L641.786 153.504C640.237 150.217 638.17 147.256 635.531 144.752L621.654 159.324ZM623.729 162.341C624.871 164.669 626.09 167.033 627.385 169.431L645.026 159.776C643.845 157.588 642.743 155.452 641.72 153.367L623.729 162.341ZM627.463 169.573C629.507 173.215 632.351 176.196 635.741 178.564L647.344 162.135C646.102 161.268 645.388 160.419 644.948 159.634L627.463 169.573ZM635.741 178.564C639.829 181.418 644.522 182.763 649.393 182.965L650.472 162.994C648.788 162.924 647.889 162.516 647.344 162.135L635.741 178.564ZM649.393 182.965C654.546 183.179 659.996 182.095 664.543 178.457L652.152 162.916C652.283 162.812 652.335 162.826 652.153 162.876C651.936 162.935 651.414 163.033 650.472 162.994L649.393 182.965ZM664.39 178.577C669.264 174.829 671.55 169.498 671.851 163.921L651.868 163.092C651.844 163.538 651.771 163.556 651.876 163.341C651.926 163.239 651.998 163.123 652.091 163.01C652.182 162.899 652.263 162.829 652.306 162.796L664.39 178.577ZM671.851 163.921C672.127 158.807 670.899 153.759 667.618 149.475L651.667 161.742C651.679 161.758 651.929 161.975 651.868 163.092L671.851 163.921ZM667.86 149.805C665.184 145.991 661.584 143.184 657.405 141.3L648.982 159.534C650.278 160.119 650.977 160.773 651.425 161.412L667.86 149.805ZM657.72 141.449C654.522 139.868 651.037 138.517 647.303 137.369L641.197 156.478C644.082 157.366 646.56 158.344 648.667 159.386L657.72 141.449ZM647.513 137.436C644.416 136.407 641.319 135.264 638.222 134.006L630.485 152.534C633.972 153.951 637.473 155.244 640.986 156.411L647.513 137.436ZM638.414 134.086C635.676 132.906 633.262 131.57 631.141 130.1L619.593 146.567C622.878 148.844 626.454 150.799 630.292 152.454L638.414 134.086ZM631.412 130.295C630.304 129.47 629.172 128.167 628.174 126L609.973 134.532C612.13 139.222 615.194 143.298 619.322 146.372L631.412 130.295ZM628.214 126.087C627.413 124.301 626.9 121.826 627.087 118.349L607.104 117.52C606.783 123.469 607.588 129.216 609.933 134.445L628.214 126.087ZM627.087 118.349C627.34 113.664 629.142 110.36 632.851 107.628L621.104 91.5928C612.466 97.9553 607.68 106.868 607.104 117.52L627.087 118.349ZM632.851 107.628C636.685 104.804 642.23 103.045 650.446 103.386L651.525 83.4154C640.079 82.9404 629.618 85.3213 621.104 91.5928L632.851 107.628ZM650.446 103.386C658.582 103.724 664.612 105.811 669.12 109.101L681.057 92.9115C672.771 86.8638 662.733 83.8805 651.525 83.4154L650.446 103.386ZM669.232 109.182C674.219 112.715 674.309 114.926 674.255 115.72L694.22 116.835C694.93 106.452 688.921 98.4824 680.945 92.8309L669.232 109.182ZM674.246 115.863C674.226 116.247 674.169 116.26 674.259 116.05C674.304 115.946 674.375 115.812 674.478 115.667C674.582 115.521 674.696 115.395 674.807 115.295L688.174 130.003C692.223 126.322 693.97 121.484 694.229 116.692L674.246 115.863ZM674.807 115.295C675.017 115.103 675.237 114.951 675.443 114.839C675.646 114.727 675.803 114.673 675.881 114.65C676.021 114.609 675.842 114.688 675.192 114.661L674.114 134.632C678.701 134.823 683.95 133.842 688.174 130.003L674.807 115.295ZM675.192 114.661C674.84 114.647 674.721 114.593 674.748 114.603C674.757 114.607 674.78 114.617 674.807 114.633C674.834 114.65 674.846 114.661 674.841 114.657L661.283 129.526C664.934 132.84 669.417 134.437 674.114 134.632L675.192 114.661ZM675.025 114.828C674.176 114.017 673.531 113.107 673.048 112.047L654.812 120.504C656.334 123.85 658.444 126.818 661.099 129.354L675.025 114.828ZM673.166 112.317C672.205 110.025 671.203 107.734 670.16 105.442L651.924 113.899C652.886 116.014 653.81 118.126 654.694 120.234L673.166 112.317ZM670.332 105.842C668.838 102.133 666.553 98.9083 663.535 96.283L650.286 111.426C650.94 111.996 651.41 112.649 651.753 113.499L670.332 105.842ZM663.873 96.5917C660.185 93.0681 655.574 91.3895 650.745 91.1891L649.666 111.16C649.856 111.168 649.977 111.187 650.042 111.2C650.106 111.213 650.121 111.222 650.103 111.214C650.083 111.206 650.049 111.19 650.01 111.165C649.972 111.14 649.95 111.121 649.947 111.118L663.873 96.5917ZM650.745 91.1891C645.279 90.9623 639.5 92.2938 634.937 96.6126L648.605 111.041C648.535 111.107 648.454 111.168 648.376 111.213C648.299 111.257 648.264 111.265 648.296 111.255C648.369 111.232 648.775 111.123 649.666 111.16L650.745 91.1891ZM635.087 96.4729C630.792 100.376 628.782 105.506 628.494 110.842L648.477 111.671C648.506 111.14 648.595 110.965 648.578 111.005C648.571 111.021 648.551 111.06 648.517 111.107C648.501 111.128 648.487 111.146 648.474 111.16C648.462 111.174 648.454 111.181 648.454 111.181L635.087 96.4729ZM628.494 110.842C628.218 115.959 629.223 121.016 632.036 125.495L649.025 114.722C648.74 114.268 648.382 113.424 648.477 111.671L628.494 110.842ZM632.245 125.813C634.814 129.571 638.188 132.525 642.212 134.637L651.696 116.921C650.422 116.252 649.515 115.425 648.817 114.403L632.245 125.813ZM642.309 134.688C645.467 136.302 648.881 137.752 652.529 139.053L659.468 120.221C656.514 119.167 653.898 118.045 651.598 116.87L642.309 134.688ZM652.735 139.124C655.812 140.146 658.845 141.278 661.836 142.52L669.714 124.05C666.28 122.624 662.795 121.323 659.262 120.15L652.735 139.124ZM661.907 142.55C664.558 143.627 666.829 144.873 668.767 146.255L680.528 129.939C677.221 127.581 673.577 125.619 669.643 124.021L661.907 142.55ZM669.045 146.446C670.072 147.127 671.044 148.169 671.87 149.959L690.064 141.411C687.878 136.671 684.638 132.655 680.251 129.748L669.045 146.446ZM671.953 150.134C672.647 151.564 673.163 153.72 672.986 157.003L692.969 157.832C693.283 152.008 692.46 146.343 689.982 141.236L671.953 150.134ZM672.986 157.003C672.758 161.227 671.077 164.186 667.12 166.695L677.696 183.531C687.012 177.624 692.377 168.786 692.969 157.832L672.986 157.003ZM667.07 166.727C662.592 169.604 656.826 171.184 649.205 170.868L648.127 190.839C659.05 191.292 669.113 189.045 677.746 183.499L667.07 166.727Z" fill="white"/>
<path d="M734.547 183.121C732.628 183.082 731.688 182.302 731.729 180.783L731.741 180.303C731.767 179.343 732.605 177.92 734.256 176.034C735.909 174.067 736.762 172.084 736.816 170.085L738.391 111.066C738.444 109.067 737.696 107.091 736.148 105.139C734.602 103.107 733.841 101.611 733.867 100.651L733.88 100.172C733.92 98.6521 734.9 97.9121 736.82 97.9514L766.694 98.5639C778.291 98.8017 787.507 101.311 794.342 106.092C801.177 110.873 804.465 118.102 804.207 127.779C803.966 136.815 800.653 143.989 794.269 149.299C787.888 154.529 779.498 157.038 769.1 156.824L759.142 156.62L758.771 170.535C758.718 172.535 759.544 174.552 761.25 176.587C763.039 178.544 763.92 180.003 763.895 180.962L763.882 181.442C763.841 182.962 762.861 183.702 760.942 183.662L734.547 183.121ZM764.885 148.336L769.324 148.427C773.084 148.504 776.005 147.004 778.087 143.926C780.25 140.85 781.393 136.993 781.517 132.354C781.716 124.917 780.237 118.845 777.082 114.14C774.008 109.356 770.472 106.923 766.473 106.841L764.793 106.807C761.914 106.748 760.423 108.637 760.32 112.476L759.52 142.465C759.418 146.304 761.206 148.261 764.885 148.336Z" fill="#5481B2"/>
<path d="M734.256 176.034L741.766 182.591L741.832 182.515L741.897 182.439L734.256 176.034ZM736.148 105.139L728.174 111.224L728.235 111.303L728.296 111.381L736.148 105.139ZM794.342 106.092L788.574 114.296L788.574 114.296L794.342 106.092ZM794.269 149.299L800.582 157.016L800.61 156.992L800.638 156.969L794.269 149.299ZM759.142 156.62L759.409 146.624L749.411 146.419L749.144 156.415L759.142 156.62ZM761.25 176.587L753.569 183.037L753.705 183.2L753.848 183.356L761.25 176.587ZM778.087 143.926L769.917 138.211L769.865 138.284L769.814 138.359L778.087 143.926ZM777.082 114.14L768.657 119.58L768.709 119.662L768.764 119.743L777.082 114.14ZM734.814 173.125C734.904 173.127 736.819 173.139 738.818 174.797C741.252 176.816 741.766 179.505 741.726 180.988L721.731 180.578C721.651 183.58 722.614 187.418 725.988 190.217C728.926 192.655 732.271 193.076 734.28 193.118L734.814 173.125ZM741.726 180.988L741.739 180.508L721.744 180.098L721.731 180.578L741.726 180.988ZM741.739 180.508C741.71 181.622 741.463 182.44 741.313 182.852C741.158 183.28 741.016 183.522 740.999 183.55C740.982 183.58 741.165 183.277 741.766 182.591L726.746 169.477C725.696 170.677 724.635 172.029 723.779 173.482C723.036 174.744 721.823 177.105 721.744 180.098L741.739 180.508ZM741.897 182.439C744.598 179.225 746.684 175.131 746.814 170.29L726.818 169.88C726.822 169.709 726.844 169.552 726.874 169.42C726.904 169.289 726.937 169.204 726.952 169.169C726.98 169.104 726.924 169.262 726.616 169.629L741.897 182.439ZM746.814 170.29L748.388 111.271L728.393 110.861L726.818 169.88L746.814 170.29ZM748.388 111.271C748.518 106.396 746.625 102.207 743.999 98.8969L728.296 111.381C728.547 111.696 728.56 111.797 728.513 111.673C728.488 111.609 728.454 111.499 728.428 111.35C728.401 111.199 728.388 111.033 728.393 110.861L748.388 111.271ZM744.122 99.0544C743.849 98.6964 743.653 98.4164 743.517 98.2089C743.378 97.9965 743.332 97.9042 743.34 97.9199C743.342 97.9231 743.457 98.1452 743.578 98.5521C743.694 98.938 743.894 99.7497 743.865 100.856L723.869 100.446C723.79 103.405 724.853 105.801 725.496 107.066C726.247 108.544 727.206 109.951 728.174 111.224L744.122 99.0544ZM743.865 100.856L743.877 100.377L723.882 99.9666L723.869 100.446L743.865 100.856ZM743.877 100.377C743.838 101.86 743.181 104.524 740.642 106.442C738.557 108.016 736.643 107.95 736.553 107.948L737.087 87.955C735.077 87.9138 731.713 88.1977 728.648 90.512C725.129 93.1697 723.962 96.9641 723.882 99.9666L743.877 100.377ZM736.553 107.948L766.427 108.56L766.96 88.5675L737.087 87.955L736.553 107.948ZM766.427 108.56C776.788 108.773 783.865 111.002 788.574 114.296L800.11 97.8883C791.149 91.6203 779.794 88.8306 766.96 88.5675L766.427 108.56ZM788.574 114.296C792.213 116.841 794.394 120.629 794.209 127.574L814.205 127.984C814.536 115.575 810.141 104.905 800.11 97.8883L788.574 114.296ZM794.209 127.574C794.037 134.021 791.835 138.357 787.901 141.629L800.638 156.969C809.472 149.621 813.895 139.61 814.205 127.984L794.209 127.574ZM787.957 141.582C783.879 144.925 778.025 147.005 769.367 146.828L768.834 166.821C780.972 167.07 791.897 164.134 800.582 157.016L787.957 141.582ZM769.367 146.828L759.409 146.624L758.876 166.617L768.834 166.821L769.367 146.828ZM749.144 156.415L748.773 170.33L768.769 170.74L769.14 156.825L749.144 156.415ZM748.773 170.33C748.636 175.471 750.829 179.77 753.569 183.037L768.932 170.137C768.597 169.738 768.561 169.59 768.61 169.709C768.636 169.774 768.682 169.903 768.718 170.09C768.754 170.28 768.775 170.501 768.769 170.74L748.773 170.33ZM753.848 183.356C754.516 184.088 754.711 184.403 754.684 184.358C754.662 184.322 754.49 184.037 754.313 183.536C754.142 183.053 753.862 182.078 753.897 180.757L773.893 181.167C773.982 177.805 772.579 175.193 771.822 173.94C770.913 172.436 769.773 171.044 768.653 169.819L753.848 183.356ZM753.897 180.757L753.884 181.237L773.88 181.647L773.893 181.167L753.897 180.757ZM753.884 181.237C753.924 179.754 754.58 177.089 757.12 175.172C759.205 173.598 761.118 173.664 761.208 173.666L760.675 193.659C762.685 193.7 766.048 193.416 769.113 191.102C772.633 188.444 773.8 184.65 773.88 181.647L753.884 181.237ZM761.208 173.666L734.814 173.125L734.28 193.118L760.675 193.659L761.208 173.666ZM764.619 158.333L769.058 158.424L769.591 138.431L765.152 138.34L764.619 158.333ZM769.058 158.424C776.163 158.57 782.329 155.451 786.36 149.494L769.814 138.359C769.695 138.536 769.629 138.592 769.64 138.582C769.645 138.578 769.663 138.562 769.695 138.54C769.726 138.518 769.765 138.494 769.807 138.472C769.85 138.451 769.888 138.435 769.919 138.424C769.949 138.413 769.965 138.41 769.96 138.411C769.951 138.413 769.839 138.436 769.591 138.431L769.058 158.424ZM786.258 149.642C789.804 144.598 791.351 138.7 791.515 132.559L771.519 132.149C771.436 135.285 770.696 137.101 769.917 138.211L786.258 149.642ZM791.515 132.559C791.752 123.69 790.012 115.414 785.4 108.537L768.764 119.743C770.463 122.277 771.68 126.144 771.519 132.149L791.515 132.559ZM785.507 108.7C781.465 102.41 775.329 97.0207 766.739 96.8446L766.206 116.837C766.212 116.838 766.206 116.838 766.191 116.835C766.185 116.834 766.179 116.833 766.174 116.832C766.171 116.831 766.169 116.83 766.168 116.83C766.166 116.829 766.165 116.829 766.166 116.829C766.166 116.829 766.17 116.831 766.178 116.834C766.187 116.838 766.201 116.844 766.221 116.854C766.261 116.874 766.327 116.911 766.42 116.975C766.813 117.246 767.612 117.955 768.657 119.58L785.507 108.7ZM766.739 96.8446L765.06 96.8101L764.526 116.803L766.206 116.837L766.739 96.8446ZM765.06 96.8101C761.181 96.7306 756.779 98.0856 753.677 102.018C750.995 105.417 750.399 109.39 750.322 112.271L770.318 112.681C770.344 111.723 770.545 112.832 769.354 114.341C768.683 115.191 767.767 115.903 766.711 116.346C765.713 116.764 764.907 116.811 764.526 116.803L765.06 96.8101ZM750.322 112.271L749.522 142.26L769.518 142.67L770.318 112.681L750.322 112.271ZM749.522 142.26C749.433 145.617 750.114 150.005 753.382 153.581C756.724 157.238 761.127 158.261 764.619 158.333L765.152 138.34C764.964 138.336 766.634 138.343 768.187 140.043C769.667 141.662 769.505 143.153 769.518 142.67L749.522 142.26Z" fill="white"/>
<path d="M888.022 186.133C876.343 186.295 866.271 182.355 857.804 174.312C849.337 166.268 844.99 155.968 844.764 143.41C844.525 130.212 848.212 119.48 855.823 111.214C863.515 102.946 873.681 98.7245 886.319 98.549C897.998 98.3868 908.034 102.488 916.426 110.852C924.897 119.135 929.248 129.636 929.478 142.354C929.709 155.151 925.817 165.606 917.802 173.718C909.868 181.829 899.941 185.967 888.022 186.133ZM894.099 177.048C898.419 176.988 901.751 175.421 904.096 172.349C906.44 169.276 907.564 165.06 907.468 159.701C907.343 152.822 905.928 145.361 903.222 137.318C900.515 129.195 896.868 122.205 892.282 116.348C887.775 110.49 883.242 107.592 878.683 107.656C874.443 107.715 871.151 109.281 868.806 112.353C866.541 115.425 865.459 119.76 865.561 125.36C865.698 132.958 867.119 140.779 869.825 148.822C872.53 156.786 876.091 163.497 880.511 168.956C885.01 174.414 889.539 177.111 894.099 177.048Z" fill="#5481B2"/>
<path d="M857.804 174.312L864.676 167.076L864.676 167.076L857.804 174.312ZM855.823 111.214L848.488 104.387L848.471 104.405L848.453 104.424L855.823 111.214ZM916.426 110.852L909.381 117.919L909.415 117.953L909.449 117.987L916.426 110.852ZM917.802 173.718L910.673 166.676L910.656 166.694L910.639 166.711L917.802 173.718ZM904.096 172.349L912.056 178.435L912.056 178.435L904.096 172.349ZM903.222 137.318L893.736 140.443L893.741 140.456L893.745 140.47L903.222 137.318ZM892.282 116.348L884.364 122.423L884.391 122.458L884.418 122.492L892.282 116.348ZM868.806 112.353L860.846 106.267L860.796 106.332L860.748 106.398L868.806 112.353ZM869.825 148.822L860.348 151.975L860.352 151.988L860.357 152.002L869.825 148.822ZM880.511 168.956L872.748 175.227L872.776 175.262L872.804 175.296L880.511 168.956ZM887.842 176.135C878.774 176.261 871.236 173.307 864.676 167.076L850.932 181.547C861.305 191.402 873.912 196.33 888.203 196.131L887.842 176.135ZM864.676 167.076C858.323 161.041 854.945 153.375 854.763 143.271L834.765 143.549C835.036 158.561 840.352 171.496 850.932 181.547L864.676 167.076ZM854.763 143.271C854.562 132.165 857.611 124.066 863.194 118.003L848.453 104.424C838.812 114.894 834.488 128.259 834.765 143.549L854.763 143.271ZM863.159 118.041C868.775 112.004 876.232 108.69 886.5 108.547L886.139 88.5506C871.129 88.759 858.255 93.8883 848.488 104.387L863.159 118.041ZM886.5 108.547C895.44 108.423 902.88 111.44 909.381 117.919L923.472 103.785C913.188 93.5358 900.557 88.3504 886.139 88.5506L886.5 108.547ZM909.449 117.987C915.879 124.274 919.292 132.189 919.479 142.492L939.477 142.215C939.203 127.082 933.915 113.996 923.403 103.717L909.449 117.987ZM919.479 142.492C919.668 152.958 916.569 160.708 910.673 166.676L924.932 180.761C935.065 170.504 939.75 157.345 939.477 142.215L919.479 142.492ZM910.639 166.711C904.64 172.844 897.267 176.004 887.842 176.135L888.203 196.131C902.615 195.931 915.096 190.815 924.966 180.726L910.639 166.711ZM894.28 187.046C901.257 186.949 907.627 184.238 912.056 178.435L896.136 166.262C895.874 166.605 895.58 167.026 893.918 167.049L894.28 187.046ZM912.056 178.435C916.2 173.004 917.589 166.318 917.467 159.562L897.469 159.84C897.54 163.801 896.681 165.548 896.136 166.262L912.056 178.435ZM917.467 159.562C917.32 151.453 915.66 142.965 912.7 134.165L893.745 140.47C896.196 147.757 897.366 154.191 897.469 159.84L917.467 159.562ZM912.709 134.192C909.692 125.141 905.541 117.093 900.146 110.204L884.418 122.492C888.196 127.316 891.338 133.248 893.736 140.443L912.709 134.192ZM900.199 110.272C894.96 103.462 887.775 97.5287 878.502 97.6574L878.863 117.654C878.902 117.654 878.988 117.656 879.158 117.709C879.339 117.765 879.666 117.896 880.141 118.2C881.135 118.835 882.575 120.097 884.364 122.423L900.199 110.272ZM878.502 97.6574C871.534 97.7542 865.236 100.514 860.846 106.267L876.766 118.44C877.066 118.047 877.352 117.675 878.863 117.654L878.502 97.6574ZM860.748 106.398C856.705 111.882 855.438 118.686 855.562 125.498L875.56 125.221C875.48 120.835 876.378 118.969 876.864 118.309L860.748 106.398ZM855.562 125.498C855.719 134.232 857.352 143.07 860.348 151.975L879.303 145.67C876.887 138.489 875.676 131.684 875.56 125.221L855.562 125.498ZM860.357 152.002C863.369 160.871 867.45 168.683 872.748 175.227L888.274 162.684C884.733 158.31 881.69 152.7 879.293 145.643L860.357 152.002ZM872.804 175.296C878.167 181.802 885.315 187.171 894.28 187.046L893.918 167.049C893.764 167.052 891.853 167.025 888.217 162.615L872.804 175.296Z" fill="white"/>
<path d="M1052.76 95.262C1054.68 95.1864 1055.68 95.9077 1055.75 97.4257L1055.78 97.905C1055.83 98.8638 1054.98 100.378 1053.25 102.448C1051.59 104.435 1050.81 106.427 1050.91 108.424L1054.31 174.817C1054.5 178.572 1052.76 180.522 1049.08 180.667L1042.25 180.936C1040.01 181.024 1037.87 179.787 1035.81 177.226L990.095 122.106L992.532 169.684C992.635 171.681 993.656 173.642 995.597 175.567C997.618 177.489 998.653 178.93 998.702 179.888L998.727 180.368C998.805 181.886 997.844 182.684 995.846 182.763L980.498 183.367C978.579 183.443 977.581 182.721 977.503 181.203L977.479 180.724C977.43 179.765 978.153 178.256 979.65 176.195C981.146 174.135 981.843 172.106 981.741 170.109L978.732 111.386C978.63 109.388 977.728 107.422 976.027 105.488C974.326 103.554 973.451 102.107 973.401 101.148L973.377 100.669C973.299 99.1509 974.219 98.3541 976.138 98.2786L994.004 97.5752C996.482 97.4776 998.706 98.671 1000.68 101.155L1042.42 153.79L1040.12 108.849C1040.02 106.851 1039.04 104.929 1037.18 103.08C1035.32 101.152 1034.36 99.7088 1034.31 98.7501L1034.29 98.2707C1034.21 96.7527 1035.13 95.9559 1037.05 95.8804L1052.76 95.262Z" fill="#5481B2"/>
<path d="M1053.25 102.448L1045.55 95.9756L1045.54 95.9825L1045.54 95.9894L1053.25 102.448ZM1035.81 177.226L1043.59 171.034L1043.54 170.969L1043.49 170.904L1035.81 177.226ZM990.095 122.106L997.768 115.784L978.572 92.6397L980.102 122.5L990.095 122.106ZM995.597 175.567L988.59 182.619L988.666 182.694L988.743 182.767L995.597 175.567ZM979.65 176.195L987.772 182.127L979.65 176.195ZM976.027 105.488L983.51 98.9421L983.51 98.9421L976.027 105.488ZM1000.68 101.155L992.86 107.303L992.861 107.305L1000.68 101.155ZM1042.42 153.79L1034.61 159.939L1054 184.393L1052.41 153.396L1042.42 153.79ZM1037.18 103.08L1030.02 109.973L1030.09 110.047L1030.16 110.119L1037.18 103.08ZM1053.27 105.249C1053.18 105.252 1051.27 105.355 1049.15 103.821C1046.56 101.952 1045.84 99.3007 1045.76 97.8191L1065.75 97.0323C1065.59 94.0326 1064.33 90.262 1060.75 87.6719C1057.63 85.4163 1054.26 85.196 1052.25 85.2751L1053.27 105.249ZM1045.76 97.8191L1045.79 98.2984L1065.77 97.5116L1065.75 97.0323L1045.76 97.8191ZM1045.79 98.2984C1045.72 96.9884 1045.97 96.0241 1046.12 95.5729C1046.27 95.0966 1046.42 94.8336 1046.43 94.8215C1046.44 94.7934 1046.39 94.8828 1046.23 95.1021C1046.08 95.3154 1045.86 95.6048 1045.55 95.9756L1060.95 108.92C1062.02 107.641 1063.09 106.212 1063.94 104.698C1064.63 103.456 1065.94 100.83 1065.77 97.5116L1045.79 98.2984ZM1045.54 95.9894C1042.78 99.2914 1040.65 103.64 1040.92 108.817L1060.9 108.031C1060.91 108.27 1060.9 108.501 1060.86 108.709C1060.83 108.916 1060.78 109.07 1060.74 109.164C1060.67 109.343 1060.67 109.251 1060.96 108.906L1045.54 95.9894ZM1040.92 108.817L1044.32 175.21L1064.3 174.423L1060.9 108.031L1040.92 108.817ZM1044.32 175.21C1044.34 175.602 1044.16 174.054 1045.65 172.391C1047.17 170.687 1048.82 170.67 1048.57 170.68L1049.6 190.654C1053.03 190.518 1057.38 189.454 1060.65 185.8C1063.88 182.187 1064.48 177.787 1064.3 174.423L1044.32 175.21ZM1048.57 170.68L1041.74 170.949L1042.76 190.923L1049.6 190.654L1048.57 170.68ZM1041.74 170.949C1042.18 170.932 1042.61 170.981 1043.02 171.088C1043.42 171.192 1043.71 171.33 1043.88 171.431C1044.2 171.614 1044.07 171.631 1043.59 171.034L1028.03 183.419C1031.13 187.279 1036.05 191.187 1042.76 190.923L1041.74 170.949ZM1043.49 170.904L997.768 115.784L982.421 128.429L1028.14 183.549L1043.49 170.904ZM980.102 122.5L982.54 170.077L1002.52 169.29L1000.09 121.713L980.102 122.5ZM982.54 170.077C982.811 175.362 985.509 179.563 988.59 182.619L1002.6 168.516C1002.21 168.127 1002.17 167.984 1002.24 168.122C1002.28 168.197 1002.34 168.342 1002.4 168.553C1002.47 168.767 1002.51 169.017 1002.52 169.29L982.54 170.077ZM988.743 182.767C989.522 183.508 989.786 183.855 989.784 183.854C989.776 183.842 989.587 183.582 989.369 183.101C989.164 182.647 988.781 181.66 988.71 180.282L1008.69 179.495C1008.52 176.056 1006.83 173.488 1005.99 172.324C1004.96 170.882 1003.69 169.549 1002.45 168.367L988.743 182.767ZM988.71 180.282L988.735 180.761L1008.72 179.974L1008.69 179.495L988.71 180.282ZM988.735 180.761C988.698 180.058 988.759 178.968 989.234 177.72C989.733 176.412 990.563 175.263 991.611 174.392C992.607 173.564 993.575 173.17 994.2 172.984C994.813 172.803 995.233 172.78 995.334 172.776L996.357 192.75C998.338 192.672 1001.64 192.214 1004.52 189.818C1007.9 187.008 1008.88 183.121 1008.72 179.974L988.735 180.761ZM995.334 172.776L979.986 173.38L981.009 193.354L996.357 192.75L995.334 172.776ZM979.986 173.38C980.076 173.377 981.988 173.274 984.111 174.808C986.698 176.677 987.42 179.328 987.495 180.81L967.511 181.597C967.665 184.596 968.925 188.367 972.509 190.957C975.631 193.213 979.001 193.433 981.009 193.354L979.986 173.38ZM987.495 180.81L987.471 180.33L967.486 181.117L967.511 181.597L987.495 180.81ZM987.471 180.33C987.528 181.436 987.347 182.251 987.241 182.639C987.129 183.048 987.02 183.272 987.018 183.276C987.011 183.291 987.055 183.198 987.188 182.983C987.319 182.773 987.508 182.49 987.772 182.127L971.527 170.264C970.59 171.554 969.666 172.978 968.951 174.47C968.339 175.747 967.335 178.162 967.486 181.117L987.471 180.33ZM987.772 182.127C990.217 178.76 991.981 174.552 991.733 169.715L971.748 170.502C971.74 170.331 971.749 170.174 971.769 170.04C971.789 169.908 971.815 169.821 971.827 169.785C971.85 169.718 971.807 169.879 971.527 170.264L987.772 182.127ZM991.733 169.715L988.724 110.992L968.74 111.779L971.748 170.502L991.733 169.715ZM988.724 110.992C988.476 106.156 986.289 102.103 983.51 98.9421L968.544 112.034C968.861 112.395 968.921 112.552 968.891 112.488C968.875 112.453 968.84 112.368 968.807 112.238C968.774 112.106 968.748 111.95 968.74 111.779L988.724 110.992ZM983.51 98.9421C983.21 98.6013 982.992 98.3337 982.841 98.1349C982.686 97.9314 982.632 97.8421 982.642 97.8573C982.643 97.8604 982.775 98.075 982.929 98.4736C983.074 98.8516 983.337 99.6492 983.394 100.755L963.409 101.542C963.561 104.498 964.807 106.824 965.548 108.047C966.412 109.476 967.479 110.823 968.544 112.034L983.51 98.9421ZM983.394 100.755L983.369 100.276L963.385 101.062L963.409 101.542L983.394 100.755ZM983.369 100.276C983.445 101.757 982.997 104.454 980.612 106.519C978.654 108.214 976.74 108.262 976.65 108.266L975.626 88.2917C973.618 88.3708 970.284 88.8551 967.405 91.3468C964.1 94.2082 963.231 98.0627 963.385 101.062L983.369 100.276ZM976.65 108.266L994.516 107.562L993.492 87.5883L975.626 88.2917L976.65 108.266ZM994.516 107.562C994.265 107.572 993.968 107.55 993.651 107.476C993.335 107.402 993.072 107.294 992.877 107.189C992.496 106.985 992.525 106.88 992.86 107.303L1008.49 95.0071C1005.12 90.7509 1000.05 87.3302 993.492 87.5883L994.516 107.562ZM992.861 107.305L1034.61 159.939L1050.23 147.64L1008.49 95.0056L992.861 107.305ZM1052.41 153.396L1050.11 108.455L1030.13 109.242L1032.43 154.183L1052.41 153.396ZM1050.11 108.455C1049.85 103.278 1047.29 99.1138 1044.2 96.042L1030.16 110.119C1030.48 110.44 1030.49 110.531 1030.4 110.358C1030.35 110.267 1030.29 110.118 1030.23 109.915C1030.18 109.71 1030.14 109.482 1030.13 109.242L1050.11 108.455ZM1044.34 96.1874C1044.01 95.8442 1043.77 95.575 1043.6 95.3758C1043.43 95.1713 1043.38 95.0855 1043.39 95.1095C1043.4 95.1194 1043.56 95.3592 1043.75 95.8017C1043.92 96.2212 1044.24 97.1149 1044.31 98.3567L1024.32 99.1435C1024.49 102.342 1025.95 104.794 1026.74 105.994C1027.69 107.433 1028.86 108.776 1030.02 109.973L1044.34 96.1874ZM1044.31 98.3567L1044.28 97.8773L1024.3 98.6641L1024.32 99.1435L1044.31 98.3567ZM1044.28 97.8773C1044.36 99.3589 1043.91 102.056 1041.53 104.121C1039.57 105.816 1037.65 105.864 1037.56 105.867L1036.54 85.8935C1034.53 85.9726 1031.2 86.4569 1028.32 88.9486C1025.01 91.81 1024.14 95.6645 1024.3 98.6641L1044.28 97.8773ZM1037.56 105.867L1053.27 105.249L1052.25 85.2751L1036.54 85.8935L1037.56 105.867Z" fill="white"/>
<path d="M1148.15 177.021C1137.69 177.644 1128.85 175.927 1121.64 171.869C1114.42 167.812 1110.6 162.992 1110.17 157.408C1109.73 151.745 1112.38 148.742 1118.13 148.4C1120.45 148.262 1122.55 148.938 1124.43 150.429C1126.3 151.84 1127.92 153.626 1129.29 155.788C1130.66 157.87 1132.11 159.988 1133.64 162.14C1135.16 164.213 1137.18 165.935 1139.69 167.308C1142.21 168.681 1145.1 169.27 1148.38 169.075C1151.89 168.865 1154.58 167.824 1156.44 165.95C1158.38 164.072 1159.23 161.577 1158.99 158.467C1158.74 155.356 1157.66 152.816 1155.75 150.847C1153.9 148.793 1151.54 147.291 1148.66 146.341C1145.85 145.307 1142.74 144.45 1139.31 143.773C1135.89 143.016 1132.45 142.139 1129 141.142C1125.55 140.066 1122.36 138.733 1119.42 137.145C1116.57 135.472 1114.13 133.013 1112.11 129.768C1110.09 126.443 1108.9 122.427 1108.53 117.721C1107.94 110.064 1110.41 103.667 1115.95 98.5294C1121.49 93.3918 1129.17 90.5304 1138.99 89.9453C1148.65 89.3698 1156.97 91.078 1163.94 95.0701C1170.98 98.9776 1174.68 103.725 1175.03 109.313C1175.24 112.025 1174.61 114.226 1173.14 115.917C1171.74 117.522 1169.56 118.413 1166.6 118.589C1163.97 118.746 1161.67 118.122 1159.72 116.716C1157.76 115.23 1156.14 113.444 1154.85 111.357C1153.65 109.265 1152.4 107.176 1151.12 105.089C1149.91 102.917 1148.28 101.131 1146.25 99.7296C1144.29 98.2437 1141.95 97.5817 1139.24 97.7434C1135.64 97.9575 1132.96 99.1186 1131.2 101.227C1129.43 103.255 1128.67 105.825 1128.91 108.935C1129.18 112.365 1130.24 115.226 1132.1 117.519C1134.04 119.728 1136.42 121.389 1139.23 122.504C1142.12 123.613 1145.29 124.587 1148.72 125.424C1152.15 126.181 1155.55 127.061 1158.91 128.062C1162.36 129.059 1165.51 130.353 1168.36 131.946C1171.29 133.455 1173.71 135.754 1175.64 138.845C1177.64 141.931 1178.82 145.747 1179.17 150.293C1179.76 157.87 1177.03 164.083 1170.99 168.93C1165.03 173.772 1157.41 176.469 1148.15 177.021Z" fill="#5481B2"/>
<path d="M1121.64 171.869L1116.84 180.549L1121.64 171.869ZM1124.43 150.429L1118.28 158.206L1118.38 158.286L1118.49 158.363L1124.43 150.429ZM1129.29 155.788L1120.86 161.02L1120.9 161.085L1120.94 161.15L1129.29 155.788ZM1133.64 162.14L1125.51 167.823L1125.55 167.889L1125.6 167.955L1133.64 162.14ZM1139.69 167.308L1135.01 176.049L1135.01 176.049L1139.69 167.308ZM1156.44 165.95L1149.4 158.723L1149.33 158.79L1149.26 158.858L1156.44 165.95ZM1155.75 150.847L1148.34 157.437L1148.48 157.592L1148.63 157.741L1155.75 150.847ZM1148.66 146.341L1145.34 155.703L1145.5 155.764L1145.67 155.819L1148.66 146.341ZM1139.31 143.773L1137.31 153.523L1137.42 153.547L1137.53 153.568L1139.31 143.773ZM1129 141.142L1126.17 150.671L1126.27 150.702L1126.37 150.731L1129 141.142ZM1119.42 137.145L1114.47 145.736L1114.62 145.822L1114.77 145.902L1119.42 137.145ZM1112.11 129.768L1103.58 134.838L1103.6 134.88L1103.63 134.921L1112.11 129.768ZM1115.95 98.5294L1122.84 105.899L1115.95 98.5294ZM1163.94 95.0701L1159.07 103.709L1159.13 103.744L1159.19 103.778L1163.94 95.0701ZM1175.03 109.313L1165.04 109.765L1165.04 109.837L1165.05 109.908L1175.03 109.313ZM1173.14 115.917L1165.53 109.287L1173.14 115.917ZM1159.72 116.716L1153.75 124.629L1153.85 124.707L1153.96 124.781L1159.72 116.716ZM1154.85 111.357L1146.19 116.218L1146.27 116.347L1146.35 116.474L1154.85 111.357ZM1151.12 105.089L1142.39 109.827L1142.5 110.019L1142.61 110.206L1151.12 105.089ZM1146.25 99.7295L1140.28 107.643L1140.47 107.784L1140.66 107.916L1146.25 99.7295ZM1131.2 101.227L1138.81 107.856L1138.87 107.78L1138.94 107.702L1131.2 101.227ZM1132.1 117.519L1124.37 123.724L1124.49 123.874L1124.62 124.019L1132.1 117.519ZM1139.23 122.504L1135.68 131.778L1135.73 131.798L1135.78 131.818L1139.23 122.504ZM1148.72 125.424L1146.51 135.124L1146.62 135.15L1146.72 135.174L1148.72 125.424ZM1158.91 128.062L1156.21 137.629L1156.25 137.64L1156.29 137.651L1158.91 128.062ZM1168.36 131.946L1163.59 140.64L1163.74 140.723L1163.89 140.802L1168.36 131.946ZM1175.64 138.845L1167.16 144.006L1167.21 144.089L1167.26 144.171L1175.64 138.845ZM1170.99 168.93L1164.63 161.103L1164.61 161.121L1164.58 161.14L1170.99 168.93ZM1147.38 167.051C1138.32 167.59 1131.53 166.057 1126.43 163.19L1116.84 180.549C1126.17 185.796 1137.06 187.698 1148.92 186.991L1147.38 167.051ZM1126.43 163.19C1120.71 159.968 1120.21 157.629 1120.15 156.814L1100.18 158.003C1100.99 168.354 1108.14 175.656 1116.84 180.549L1126.43 163.19ZM1120.15 156.814C1120.1 156.211 1120.17 156.089 1120.12 156.289C1120.06 156.541 1119.86 157.057 1119.39 157.59C1118.92 158.121 1118.45 158.363 1118.25 158.442C1118.1 158.502 1118.26 158.409 1118.9 158.37L1117.36 138.43C1112.98 138.691 1107.94 140.076 1104.27 144.227C1100.57 148.405 1099.84 153.599 1100.18 158.003L1120.15 156.814ZM1118.9 158.37C1118.91 158.37 1118.86 158.372 1118.79 158.363C1118.71 158.353 1118.61 158.334 1118.52 158.303C1118.3 158.234 1118.22 158.158 1118.28 158.206L1130.57 142.652C1126.78 139.646 1122.23 138.14 1117.36 138.43L1118.9 158.37ZM1118.49 158.363C1119.29 158.964 1120.09 159.804 1120.86 161.02L1137.73 150.556C1135.76 147.448 1133.32 144.715 1130.37 142.495L1118.49 158.363ZM1120.94 161.15C1122.38 163.347 1123.9 165.571 1125.51 167.823L1141.77 156.458C1140.31 154.404 1138.93 152.394 1137.64 150.426L1120.94 161.15ZM1125.6 167.955C1128.11 171.366 1131.33 174.04 1135.01 176.049L1144.38 158.567C1143.03 157.831 1142.21 157.059 1141.67 156.325L1125.6 167.955ZM1135.01 176.049C1139.44 178.472 1144.28 179.335 1149.15 179.045L1147.6 159.105C1145.92 159.205 1144.97 158.89 1144.38 158.567L1135.01 176.049ZM1149.15 179.045C1154.3 178.738 1159.57 177.113 1163.61 173.042L1149.26 158.858C1149.38 158.741 1149.43 158.75 1149.26 158.818C1149.05 158.899 1148.54 159.049 1147.6 159.105L1149.15 179.045ZM1163.47 173.177C1167.83 168.964 1169.4 163.441 1168.97 157.872L1149 159.061C1149.04 159.507 1148.97 159.532 1149.04 159.308C1149.08 159.202 1149.14 159.079 1149.21 158.958C1149.29 158.838 1149.36 158.76 1149.4 158.723L1163.47 173.177ZM1168.97 157.872C1168.57 152.766 1166.69 147.877 1162.87 143.953L1148.63 157.741C1148.64 157.755 1148.92 157.946 1149 159.061L1168.97 157.872ZM1163.15 144.257C1159.99 140.738 1156.05 138.314 1151.65 136.863L1145.67 155.819C1147.03 156.269 1147.81 156.849 1148.34 157.437L1163.15 144.257ZM1151.98 136.979C1148.6 135.732 1144.96 134.742 1141.1 133.977L1137.53 153.568C1140.52 154.159 1143.11 154.881 1145.34 155.703L1151.98 136.979ZM1141.31 134.023C1138.1 133.313 1134.87 132.49 1131.63 131.553L1126.37 150.731C1130.02 151.787 1133.67 152.718 1137.31 153.523L1141.31 134.023ZM1131.83 131.613C1128.96 130.717 1126.38 129.634 1124.08 128.387L1114.77 145.902C1118.33 147.833 1122.14 149.414 1126.17 150.671L1131.83 131.613ZM1124.38 128.554C1123.17 127.846 1121.87 126.666 1120.6 124.615L1103.63 134.921C1106.39 139.36 1109.97 143.099 1114.47 145.736L1124.38 128.554ZM1120.65 124.697C1119.62 123.004 1118.78 120.599 1118.52 117.127L1098.55 118.316C1099.01 124.256 1100.56 129.881 1103.58 134.838L1120.65 124.697ZM1118.52 117.127C1118.15 112.449 1119.51 108.986 1122.84 105.899L1109.06 91.1596C1101.31 98.3477 1097.73 107.68 1098.55 118.316L1118.52 117.127ZM1122.84 105.899C1126.28 102.709 1131.56 100.404 1139.76 99.9154L1138.22 79.9753C1126.78 80.6564 1116.7 84.0743 1109.06 91.1596L1122.84 105.899ZM1139.76 99.9154C1147.89 99.4313 1154.16 100.896 1159.07 103.709L1168.81 86.4306C1159.78 81.2597 1149.42 79.3083 1138.22 79.9753L1139.76 99.9154ZM1159.19 103.778C1164.61 106.785 1164.99 108.971 1165.04 109.765L1185.02 108.861C1184.37 98.4793 1177.35 91.1706 1168.69 86.3619L1159.19 103.778ZM1165.05 109.908C1165.08 110.291 1165.02 110.31 1165.09 110.093C1165.12 109.985 1165.17 109.845 1165.25 109.69C1165.34 109.535 1165.43 109.398 1165.53 109.287L1180.74 122.546C1184.28 118.484 1185.38 113.503 1185.01 108.719L1165.05 109.908ZM1165.53 109.287C1165.72 109.076 1165.91 108.903 1166.1 108.77C1166.29 108.639 1166.44 108.569 1166.51 108.539C1166.65 108.484 1166.48 108.581 1165.83 108.619L1167.38 128.559C1171.96 128.287 1177.05 126.784 1180.74 122.546L1165.53 109.287ZM1165.83 108.619C1165.48 108.64 1165.35 108.599 1165.38 108.606C1165.39 108.609 1165.42 108.617 1165.44 108.63C1165.47 108.644 1165.49 108.654 1165.48 108.651L1153.96 124.781C1158.02 127.704 1162.68 128.839 1167.38 128.559L1165.83 108.619ZM1165.69 108.802C1164.74 108.082 1163.98 107.244 1163.36 106.239L1146.35 116.474C1148.3 119.643 1150.78 122.378 1153.75 124.629L1165.69 108.802ZM1163.51 106.496C1162.26 104.317 1160.96 102.142 1159.62 99.9714L1142.61 110.206C1143.84 112.209 1145.04 114.213 1146.19 116.218L1163.51 106.496ZM1159.85 100.351C1157.87 96.8181 1155.18 93.8465 1151.84 91.5435L1140.66 107.916C1141.38 108.415 1141.94 109.016 1142.39 109.827L1159.85 100.351ZM1152.22 91.8159C1148.09 88.6883 1143.29 87.486 1138.46 87.7733L1140.01 107.714C1140.2 107.702 1140.32 107.709 1140.39 107.715C1140.45 107.722 1140.47 107.729 1140.45 107.723C1140.43 107.717 1140.39 107.705 1140.35 107.684C1140.31 107.663 1140.29 107.646 1140.28 107.643L1152.22 91.8159ZM1138.46 87.7733C1133 88.0986 1127.43 90.0028 1123.47 94.7511L1138.94 107.702C1138.88 107.775 1138.8 107.843 1138.73 107.896C1138.66 107.948 1138.63 107.959 1138.66 107.946C1138.73 107.916 1139.12 107.767 1140.01 107.714L1138.46 87.7733ZM1123.6 94.5973C1119.84 98.9058 1118.52 104.203 1118.93 109.53L1138.89 108.341C1138.85 107.811 1138.92 107.628 1138.91 107.669C1138.9 107.686 1138.89 107.727 1138.86 107.776C1138.85 107.799 1138.83 107.819 1138.82 107.834C1138.81 107.849 1138.81 107.856 1138.81 107.856L1123.6 94.5973ZM1118.93 109.53C1119.33 114.639 1120.99 119.56 1124.37 123.724L1139.84 111.315C1139.5 110.893 1139.03 110.091 1138.89 108.341L1118.93 109.53ZM1124.62 124.019C1127.66 127.492 1131.4 130.085 1135.68 131.778L1142.78 113.229C1141.43 112.693 1140.42 111.964 1139.59 111.02L1124.62 124.019ZM1135.78 131.818C1139.13 133.103 1142.71 134.199 1146.51 135.124L1150.94 115.724C1147.86 114.975 1145.12 114.124 1142.68 113.189L1135.78 131.818ZM1146.72 135.174C1149.91 135.879 1153.08 136.697 1156.21 137.629L1161.62 118.495C1158.02 117.424 1154.39 116.484 1150.72 115.674L1146.72 135.174ZM1156.29 137.651C1159.06 138.454 1161.48 139.463 1163.59 140.64L1173.14 123.253C1169.54 121.244 1165.66 119.663 1161.54 118.473L1156.29 137.651ZM1163.89 140.802C1165 141.374 1166.1 142.311 1167.16 144.006L1184.11 133.684C1181.32 129.197 1177.57 125.536 1172.83 123.091L1163.89 140.802ZM1167.26 144.171C1168.14 145.521 1168.93 147.61 1169.19 150.888L1189.15 149.699C1188.7 143.883 1187.14 138.341 1184.01 133.519L1167.26 144.171ZM1169.19 150.888C1169.52 155.105 1168.23 158.213 1164.63 161.103L1177.35 176.757C1185.83 169.952 1190 160.636 1189.15 149.699L1169.19 150.888ZM1164.58 161.14C1160.51 164.448 1154.99 166.597 1147.38 167.051L1148.92 186.991C1159.83 186.341 1169.54 183.097 1177.39 176.72L1164.58 161.14Z" fill="white"/>
<path d="M1268.64 168.956C1257 169.896 1246.61 166.643 1237.46 159.197C1228.32 151.751 1223.09 141.782 1221.78 129.291C1220.4 116.163 1223.15 105.229 1230.03 96.4895C1236.99 87.7434 1246.77 82.8619 1259.37 81.845C1271.02 80.9052 1281.39 84.3207 1290.49 92.0914C1299.66 99.776 1304.91 109.944 1306.23 122.594C1307.57 135.324 1304.59 145.995 1297.29 154.608C1290.08 163.214 1280.53 167.997 1268.64 168.956ZM1273.92 159.503C1278.23 159.156 1281.42 157.374 1283.5 154.157C1285.57 150.941 1286.33 146.667 1285.77 141.336C1285.05 134.494 1282.99 127.158 1279.6 119.328C1276.19 111.419 1271.95 104.701 1266.86 99.1733C1261.86 93.6397 1257.08 91.0564 1252.54 91.4232C1248.31 91.7644 1245.16 93.5432 1243.09 96.7596C1241.09 99.9696 1240.39 104.359 1240.97 109.929C1241.77 117.487 1243.86 125.181 1247.26 133.011C1250.65 140.761 1254.78 147.208 1259.66 152.35C1264.63 157.486 1269.38 159.87 1273.92 159.503Z" fill="#5481B2"/>
<path d="M1237.46 159.197L1243.7 151.533L1243.7 151.533L1237.46 159.197ZM1230.03 96.4895L1222.12 90.1794L1222.1 90.1992L1222.09 90.219L1230.03 96.4895ZM1290.49 92.0914L1284.07 99.5991L1284.1 99.6305L1284.14 99.6616L1290.49 92.0914ZM1297.29 154.608L1289.57 148.07L1289.55 148.088L1289.54 148.107L1297.29 154.608ZM1283.5 154.157L1291.97 159.688L1291.97 159.688L1283.5 154.157ZM1279.6 119.328L1270.4 123.073L1270.4 123.086L1270.41 123.099L1279.6 119.328ZM1266.86 99.1733L1259.49 105.752L1259.52 105.784L1259.55 105.816L1266.86 99.1733ZM1243.09 96.7596L1234.62 91.2286L1234.57 91.2967L1234.53 91.3657L1243.09 96.7596ZM1247.26 133.011L1238.07 136.782L1238.08 136.795L1238.08 136.808L1247.26 133.011ZM1259.66 152.35L1252.46 159.113L1252.49 159.145L1252.52 159.178L1259.66 152.35ZM1267.6 159.011C1258.56 159.74 1250.78 157.302 1243.7 151.533L1231.23 166.86C1242.44 175.984 1255.44 180.051 1269.69 178.901L1267.6 159.011ZM1243.7 151.533C1236.83 145.946 1232.8 138.537 1231.74 128.486L1211.81 130.095C1213.38 145.027 1219.8 157.556 1231.23 166.86L1243.7 151.533ZM1231.74 128.486C1230.58 117.44 1232.93 109.17 1237.97 102.76L1222.09 90.219C1213.37 101.289 1210.21 114.886 1211.81 130.095L1231.74 128.486ZM1237.94 102.8C1243.03 96.4134 1250.18 92.6164 1260.42 91.7902L1258.33 71.8997C1243.37 73.1074 1230.96 79.0734 1222.12 90.1794L1237.94 102.8ZM1260.42 91.7902C1269.33 91.0709 1277.02 93.5794 1284.07 99.5991L1296.91 84.5836C1285.76 75.062 1272.7 70.7396 1258.33 71.8997L1260.42 91.7902ZM1284.14 99.6616C1291.1 105.495 1295.19 113.15 1296.27 123.398L1316.2 121.789C1314.62 106.737 1308.21 94.0571 1296.83 84.5211L1284.14 99.6616ZM1296.27 123.398C1297.36 133.809 1294.94 141.734 1289.57 148.07L1305.02 161.146C1314.24 150.257 1317.78 136.839 1316.2 121.789L1296.27 123.398ZM1289.54 148.107C1284.08 154.614 1277 158.252 1267.6 159.011L1269.69 178.901C1284.06 177.742 1296.07 171.815 1305.05 161.109L1289.54 148.107ZM1274.97 169.448C1281.92 168.887 1288.05 165.762 1291.97 159.688L1275.02 148.626C1274.79 148.985 1274.54 149.424 1272.88 149.558L1274.97 169.448ZM1291.97 159.688C1295.63 154.003 1296.44 147.252 1295.73 140.532L1275.8 142.141C1276.21 146.082 1275.51 147.879 1275.02 148.626L1291.97 159.688ZM1295.73 140.532C1294.89 132.466 1292.5 124.123 1288.78 115.557L1270.41 123.099C1273.49 130.193 1275.21 136.522 1275.8 142.141L1295.73 140.532ZM1288.79 115.584C1285 106.77 1280.16 99.032 1274.18 92.5304L1259.55 105.816C1263.73 110.369 1267.38 116.067 1270.4 123.073L1288.79 115.584ZM1274.24 92.595C1268.42 86.1622 1260.74 80.7318 1251.49 81.478L1253.58 101.369C1253.62 101.365 1253.71 101.362 1253.88 101.403C1254.07 101.447 1254.41 101.556 1254.91 101.827C1255.95 102.394 1257.5 103.554 1259.49 105.752L1274.24 92.595ZM1251.49 81.478C1244.55 82.0386 1238.5 85.2071 1234.62 91.2286L1251.56 102.291C1251.82 101.879 1252.08 101.49 1253.58 101.369L1251.49 81.478ZM1234.53 91.3657C1230.97 97.0962 1230.29 103.957 1231.01 110.733L1250.94 109.124C1250.48 104.762 1251.22 102.843 1251.65 102.154L1234.53 91.3657ZM1231.01 110.733C1231.92 119.421 1234.31 128.113 1238.07 136.782L1256.44 129.24C1253.41 122.249 1251.62 115.553 1250.94 109.124L1231.01 110.733ZM1238.08 136.808C1241.86 145.44 1246.6 152.948 1252.46 159.113L1266.87 145.587C1262.96 141.467 1259.43 136.082 1256.43 129.214L1238.08 136.808ZM1252.52 159.178C1258.43 165.3 1266.03 170.17 1274.97 169.448L1272.88 149.558C1272.73 149.57 1270.82 149.671 1266.81 145.522L1252.52 159.178Z" fill="white"/>
<path d="M1427.8 139.688C1429.16 141.31 1430.73 142.708 1432.51 143.883C1434.35 144.969 1435.77 145.861 1436.76 146.559C1437.73 147.177 1438.29 147.961 1438.42 148.912L1438.49 149.387C1438.7 150.892 1437.85 151.748 1435.94 151.955L1406.83 155.107C1404.93 155.314 1403.87 154.665 1403.65 153.16L1403.59 152.684C1403.47 151.892 1403.82 150.93 1404.63 149.796C1405.43 148.584 1405.97 147.521 1406.24 146.606C1406.6 145.683 1406.23 144.195 1405.13 142.142L1392.34 124.466L1381.4 125.892L1384.01 144.429C1384.29 146.409 1385.45 148.295 1387.47 150.086C1389.57 151.789 1390.69 153.116 1390.82 154.067L1390.89 154.542C1391.1 156.047 1390.25 156.903 1388.34 157.11L1362.1 159.952C1360.19 160.159 1359.13 159.509 1358.91 158.004L1358.85 157.529C1358.71 156.578 1359.31 155.066 1360.63 152.993C1361.94 150.84 1362.46 148.774 1362.18 146.793L1353.94 88.3309C1353.66 86.3505 1352.59 84.4958 1350.73 82.7668C1348.86 80.9586 1347.86 79.5792 1347.73 78.6286L1347.66 78.1533C1347.45 76.6482 1348.3 75.7923 1350.21 75.5856L1382.3 72.1104C1393.43 70.9046 1402.55 72.2502 1409.64 76.1472C1416.73 80.0442 1420.92 86.3453 1422.23 95.0506C1422.87 99.5659 1422.2 103.981 1420.22 108.297C1418.25 112.613 1415 116.182 1410.47 119.005L1427.8 139.688ZM1378.92 108.306C1379.39 111.633 1380.32 113.945 1381.72 115.242C1383.18 116.451 1385.18 116.917 1387.73 116.642L1391.31 116.254C1394.49 115.91 1396.89 114.362 1398.52 111.612C1400.24 108.853 1400.73 104.899 1400 99.7499C1399.14 93.6502 1396.85 88.8318 1393.12 85.2946C1389.47 81.7489 1385.7 80.187 1381.8 80.609L1379.65 80.8416C1378.3 80.988 1377.27 81.7027 1376.56 82.9857C1375.93 84.1809 1375.73 85.6895 1375.99 87.5115L1378.92 108.306Z" fill="#5481B2"/>
<path d="M1427.8 139.688L1435.43 133.463L1435.43 133.463L1427.8 139.688ZM1432.51 143.883L1427.13 152.125L1427.36 152.274L1427.59 152.412L1432.51 143.883ZM1436.76 146.559L1431.1 154.61L1431.32 154.763L1431.54 154.904L1436.76 146.559ZM1404.63 149.796L1412.88 155.722L1412.99 155.574L1413.09 155.423L1404.63 149.796ZM1406.24 146.606L1396.85 142.81L1396.72 143.145L1396.61 143.489L1406.24 146.606ZM1405.13 142.142L1413.97 137.694L1413.64 137.074L1413.22 136.503L1405.13 142.142ZM1392.34 124.466L1400.44 118.827L1396.8 113.799L1390.73 114.59L1392.34 124.466ZM1381.4 125.892L1379.79 116.016L1370.09 117.28L1371.46 126.969L1381.4 125.892ZM1387.47 150.086L1380.93 157.436L1381.09 157.579L1381.26 157.715L1387.47 150.086ZM1360.63 152.993L1369.16 158.505L1369.21 158.422L1369.27 158.338L1360.63 152.993ZM1350.73 82.7668L1343.84 89.7933L1343.92 89.8639L1343.99 89.9331L1350.73 82.7668ZM1409.64 76.1472L1404.98 84.8249L1404.98 84.8249L1409.64 76.1472ZM1422.23 95.0506L1432.17 93.974L1432.17 93.929L1432.16 93.884L1422.23 95.0506ZM1410.47 119.005L1404.94 110.524L1395.46 116.433L1402.83 125.229L1410.47 119.005ZM1381.72 115.242L1374.97 122.408L1375.2 122.617L1375.43 122.812L1381.72 115.242ZM1398.52 111.612L1389.93 106.203L1389.88 106.283L1389.83 106.364L1398.52 111.612ZM1393.12 85.2946L1386.21 92.3035L1386.26 92.3473L1386.3 92.3905L1393.12 85.2946ZM1376.56 82.9857L1367.72 77.9981L1367.69 78.052L1367.66 78.1062L1376.56 82.9857ZM1420.16 145.912C1422.17 148.318 1424.51 150.395 1427.13 152.125L1437.88 135.641C1436.94 135.022 1436.14 134.302 1435.43 133.463L1420.16 145.912ZM1427.59 152.412C1429.35 153.444 1430.47 154.164 1431.1 154.61L1442.41 138.508C1441.07 137.559 1439.36 136.494 1437.42 135.354L1427.59 152.412ZM1431.54 154.904C1431.1 154.624 1430.4 154.079 1429.75 153.159C1429.07 152.197 1428.64 151.093 1428.48 149.989L1448.36 147.835C1447.73 143.356 1445 140.128 1441.97 138.213L1431.54 154.904ZM1428.48 149.989L1428.55 150.464L1448.43 148.311L1448.36 147.835L1428.48 149.989ZM1428.55 150.464C1428.34 148.995 1428.55 146.28 1430.75 144.063C1432.55 142.242 1434.46 142.063 1434.55 142.053L1437.34 161.857C1439.34 161.641 1442.62 160.93 1445.28 158.254C1448.32 155.18 1448.85 151.285 1448.43 148.311L1428.55 150.464ZM1434.55 142.053L1405.44 145.205L1408.23 165.009L1437.34 161.857L1434.55 142.053ZM1405.44 145.205C1405.53 145.195 1407.43 144.962 1409.68 146.343C1412.43 148.026 1413.39 150.614 1413.6 152.083L1393.71 154.236C1394.13 157.21 1395.72 160.876 1399.53 163.207C1402.85 165.238 1406.23 165.226 1408.23 165.009L1405.44 145.205ZM1413.6 152.083L1413.53 151.608L1393.64 153.761L1393.71 154.236L1413.6 152.083ZM1413.53 151.608C1413.75 153.21 1413.44 154.411 1413.22 154.994C1413.02 155.568 1412.82 155.819 1412.88 155.722L1396.38 143.871C1395.14 145.608 1393 149.161 1393.64 153.761L1413.53 151.608ZM1413.09 155.423C1414.16 153.798 1415.23 151.866 1415.87 149.724L1396.61 143.489C1396.67 143.294 1396.7 143.262 1396.63 143.412C1396.56 143.555 1396.42 143.805 1396.18 144.17L1413.09 155.423ZM1415.64 150.403C1416.82 147.327 1416.41 144.44 1415.97 142.691C1415.51 140.836 1414.73 139.128 1413.97 137.694L1396.29 146.591C1396.62 147.209 1396.58 147.271 1396.49 146.905C1396.42 146.643 1396.02 144.962 1396.85 142.81L1415.64 150.403ZM1413.22 136.503L1400.44 118.827L1384.25 130.105L1397.03 147.782L1413.22 136.503ZM1390.73 114.59L1379.79 116.016L1383.01 135.769L1393.95 134.342L1390.73 114.59ZM1371.46 126.969L1374.07 145.506L1393.95 143.352L1391.34 124.816L1371.46 126.969ZM1374.07 145.506C1374.79 150.597 1377.68 154.561 1380.93 157.436L1394.02 142.736C1393.62 142.385 1393.56 142.244 1393.62 142.355C1393.66 142.416 1393.73 142.537 1393.8 142.718C1393.86 142.9 1393.92 143.115 1393.95 143.352L1374.07 145.506ZM1381.26 157.715C1382.05 158.351 1382.29 158.638 1382.26 158.597C1382.23 158.564 1382.01 158.305 1381.75 157.833C1381.5 157.379 1381.06 156.451 1380.88 155.143L1400.76 152.99C1400.29 149.659 1398.47 147.26 1397.51 146.12C1396.36 144.752 1395 143.524 1393.69 142.457L1381.26 157.715ZM1380.88 155.143L1380.95 155.619L1400.83 153.465L1400.76 152.99L1380.88 155.143ZM1380.95 155.619C1380.74 154.15 1380.95 151.435 1383.15 149.217C1384.95 147.397 1386.86 147.217 1386.95 147.208L1389.74 167.012C1391.74 166.795 1395.02 166.085 1397.68 163.408C1400.72 160.335 1401.25 156.44 1400.83 153.465L1380.95 155.619ZM1386.95 147.208L1360.7 150.05L1363.49 169.854L1389.74 167.012L1386.95 147.208ZM1360.7 150.05C1360.79 150.04 1362.69 149.807 1364.95 151.188C1367.69 152.87 1368.65 155.459 1368.86 156.928L1348.97 159.081C1349.39 162.055 1350.98 165.721 1354.79 168.052C1358.11 170.082 1361.49 170.071 1363.49 169.854L1360.7 150.05ZM1368.86 156.928L1368.79 156.452L1348.91 158.606L1348.97 159.081L1368.86 156.928ZM1368.79 156.452C1368.95 157.556 1368.84 158.395 1368.76 158.821C1368.67 159.263 1368.57 159.52 1368.56 159.55C1368.55 159.582 1368.68 159.259 1369.16 158.505L1352.1 147.481C1351.26 148.8 1350.43 150.27 1349.82 151.814C1349.3 153.155 1348.49 155.64 1348.91 158.606L1368.79 156.452ZM1369.27 158.338C1371.41 154.82 1372.8 150.512 1372.12 145.717L1352.24 147.87C1352.21 147.7 1352.21 147.543 1352.22 147.408C1352.23 147.275 1352.24 147.187 1352.25 147.15C1352.27 147.083 1352.24 147.246 1352 147.648L1369.27 158.338ZM1372.12 145.717L1363.88 87.2543L1344 89.4075L1352.24 147.87L1372.12 145.717ZM1363.88 87.2543C1363.2 82.425 1360.63 78.5322 1357.48 75.6005L1343.99 89.9331C1344.29 90.2124 1344.32 90.3102 1344.25 90.1933C1344.22 90.1333 1344.17 90.0296 1344.11 89.8852C1344.06 89.7397 1344.02 89.5775 1344 89.4075L1363.88 87.2543ZM1357.63 75.7403C1357.3 75.4218 1357.06 75.1705 1356.89 74.983C1356.71 74.7911 1356.65 74.7059 1356.66 74.7204C1356.67 74.7234 1356.82 74.9279 1357 75.314C1357.18 75.6802 1357.52 76.4558 1357.67 77.5521L1337.79 79.7052C1338.2 82.6359 1339.65 84.8651 1340.5 86.0319C1341.49 87.3946 1342.67 88.6613 1343.84 89.7933L1357.63 75.7403ZM1357.67 77.5521L1357.6 77.0767L1337.72 79.2299L1337.79 79.7052L1357.67 77.5521ZM1357.6 77.0767C1357.81 78.5458 1357.6 81.2602 1355.4 83.4781C1353.6 85.2988 1351.69 85.478 1351.6 85.4877L1348.81 65.6834C1346.81 65.8998 1343.53 66.6104 1340.87 69.287C1337.83 72.3608 1337.3 76.2557 1337.72 79.2299L1357.6 77.0767ZM1351.6 85.4877L1383.69 82.0125L1380.9 62.2082L1348.81 65.6834L1351.6 85.4877ZM1383.69 82.0125C1393.57 80.9433 1400.37 82.2878 1404.98 84.8249L1414.29 67.4694C1404.73 62.2126 1393.3 60.8659 1380.9 62.2082L1383.69 82.0125ZM1404.98 84.8249C1408.91 86.9811 1411.41 90.2893 1412.3 96.2171L1432.16 93.884C1430.44 82.4012 1424.55 73.1072 1414.29 67.4694L1404.98 84.8249ZM1412.29 96.1271C1412.65 98.674 1412.31 101.216 1411.06 103.946L1429.39 112.648C1432.09 106.747 1433.09 100.458 1432.17 93.974L1412.29 96.1271ZM1411.06 103.946C1409.96 106.356 1408.07 108.57 1404.94 110.524L1416 127.485C1421.92 123.794 1426.54 118.87 1429.39 112.648L1411.06 103.946ZM1402.83 125.229L1420.16 145.912L1435.43 133.463L1418.11 112.78L1402.83 125.229ZM1368.98 109.383C1369.54 113.388 1370.91 118.632 1374.97 122.408L1388.46 108.075C1389.18 108.746 1389.35 109.269 1389.28 109.089C1389.25 109.018 1389.18 108.836 1389.1 108.514C1389.02 108.195 1388.94 107.771 1388.86 107.229L1368.98 109.383ZM1375.43 122.812C1379.76 126.39 1384.89 127.003 1389.12 126.544L1386.33 106.74C1385.91 106.785 1385.96 106.721 1386.32 106.805C1386.74 106.903 1387.37 107.154 1388 107.671L1375.43 122.812ZM1389.12 126.544L1392.7 126.156L1389.91 106.352L1386.33 106.74L1389.12 126.544ZM1392.7 126.156C1399 125.475 1404.07 122.17 1407.22 116.86L1389.83 106.364C1389.75 106.503 1389.7 106.548 1389.71 106.537C1389.72 106.533 1389.73 106.518 1389.76 106.496C1389.78 106.475 1389.82 106.451 1389.85 106.427C1389.89 106.403 1389.93 106.382 1389.96 106.365C1390 106.348 1390.03 106.338 1390.04 106.333C1390.06 106.327 1390.06 106.329 1390.04 106.333C1390.02 106.337 1389.98 106.345 1389.91 106.352L1392.7 126.156ZM1407.12 117.021C1410.54 111.508 1410.82 104.863 1409.94 98.6734L1390.06 100.827C1390.34 102.775 1390.33 104.146 1390.21 105.053C1390.1 105.941 1389.91 106.228 1389.93 106.203L1407.12 117.021ZM1409.94 98.6734C1408.84 90.8048 1405.71 83.6752 1399.94 78.1988L1386.3 92.3905C1387.99 93.9883 1389.45 96.4957 1390.06 100.827L1409.94 98.6734ZM1400.03 78.2858C1394.83 73.2369 1388.14 69.869 1380.41 70.7069L1383.2 90.5112C1383.25 90.5051 1384.11 90.2609 1386.21 92.3035L1400.03 78.2858ZM1380.41 70.7069L1378.26 70.9394L1381.05 90.7437L1383.2 90.5112L1380.41 70.7069ZM1378.26 70.9394C1373.41 71.4646 1369.78 74.2689 1367.72 77.9981L1385.41 87.9733C1385.17 88.4005 1384.68 89.0926 1383.79 89.7076C1382.88 90.3419 1381.89 90.6524 1381.05 90.7437L1378.26 70.9394ZM1367.66 78.1062C1365.78 81.6319 1365.6 85.3881 1366.05 88.588L1385.93 86.4349C1385.87 85.9909 1386.07 86.7299 1385.47 87.8652L1367.66 78.1062ZM1366.05 88.588L1368.98 109.383L1388.86 107.229L1385.93 86.4349L1366.05 88.588Z" fill="white"/>
<path d="M1522.3 142.106C1511.93 143.627 1502.92 142.686 1495.27 139.284C1487.62 135.881 1483.28 131.43 1482.23 125.929C1481.16 120.35 1483.48 117.142 1489.18 116.306C1491.47 115.97 1493.64 116.46 1495.68 117.776C1497.71 119.014 1499.53 120.646 1501.13 122.672C1502.73 124.619 1504.4 126.595 1506.17 128.598C1507.92 130.522 1510.13 132.056 1512.79 133.201C1515.44 134.346 1518.4 134.681 1521.64 134.205C1525.13 133.694 1527.69 132.429 1529.34 130.41C1531.07 128.379 1531.64 125.832 1531.05 122.767C1530.47 119.702 1529.11 117.276 1526.98 115.488C1524.91 113.61 1522.39 112.325 1519.41 111.631C1516.49 110.847 1513.29 110.266 1509.8 109.889C1506.3 109.434 1502.77 108.861 1499.22 108.169C1495.66 107.4 1492.32 106.353 1489.22 105.031C1486.19 103.618 1483.48 101.389 1481.11 98.3443C1478.73 95.2206 1477.09 91.3407 1476.21 86.7043C1474.77 79.1605 1476.52 72.6016 1481.48 67.0278C1486.44 61.4539 1493.79 57.953 1503.52 56.5253C1513.1 55.1207 1521.59 56.0977 1528.98 59.4563C1536.44 62.7246 1540.65 67.1149 1541.62 72.6273C1542.13 75.299 1541.75 77.5368 1540.46 79.3406C1539.25 81.0542 1537.17 82.1258 1534.24 82.5553C1531.63 82.9383 1529.27 82.5168 1527.17 81.2907C1525.05 79.9861 1523.23 78.3542 1521.72 76.395C1520.28 74.4242 1518.81 72.4592 1517.3 70.5C1515.85 68.4506 1514.03 66.8187 1511.85 65.6042C1509.72 64.2996 1507.32 63.8446 1504.63 64.2392C1501.07 64.7616 1498.52 66.1443 1497 68.3875C1495.46 70.552 1494.98 73.1666 1495.57 76.2313C1496.21 79.6103 1497.59 82.3567 1499.7 84.4704C1501.88 86.4938 1504.43 87.9369 1507.36 88.7996C1510.37 89.6506 1513.64 90.3431 1517.16 90.8771C1520.66 91.3326 1524.15 91.9117 1527.62 92.6145C1531.17 93.3057 1534.45 94.3184 1537.47 95.6525C1540.56 96.8964 1543.23 98.9682 1545.5 101.868C1547.84 104.756 1549.44 108.439 1550.29 112.918C1551.71 120.383 1549.68 126.781 1544.19 132.11C1538.78 137.428 1531.48 140.76 1522.3 142.106Z" fill="#5481B2"/>
<path d="M1495.27 139.284L1491.44 148.307L1495.27 139.284ZM1495.68 117.776L1490.41 126.02L1490.52 126.091L1490.63 126.158L1495.68 117.776ZM1501.13 122.672L1493.3 128.589L1493.35 128.65L1493.39 128.71L1501.13 122.672ZM1506.17 128.598L1498.69 134.936L1498.74 134.998L1498.8 135.059L1506.17 128.598ZM1512.79 133.201L1509.08 142.276L1509.08 142.276L1512.79 133.201ZM1529.34 130.41L1521.52 123.849L1521.46 123.921L1521.4 123.995L1529.34 130.41ZM1526.98 115.488L1520.32 122.664L1520.48 122.806L1520.64 122.941L1526.98 115.488ZM1519.41 111.631L1517.13 121.203L1517.3 121.25L1517.48 121.29L1519.41 111.631ZM1509.8 109.889L1508.89 119.733L1509 119.747L1509.11 119.759L1509.8 109.889ZM1499.22 108.169L1497.45 117.865L1497.55 117.888L1497.66 117.908L1499.22 108.169ZM1489.22 105.031L1485.23 113.98L1485.39 114.052L1485.54 114.119L1489.22 105.031ZM1481.11 98.3443L1473.16 104.11L1473.19 104.149L1473.22 104.187L1481.11 98.3443ZM1481.48 67.0278L1489.17 73.7438L1481.48 67.0278ZM1528.98 59.4563L1525.08 68.4459L1525.14 68.4751L1525.21 68.5035L1528.98 59.4563ZM1541.62 72.6273L1531.7 73.9378L1531.72 74.0081L1531.73 74.0782L1541.62 72.6273ZM1540.46 79.3406L1532.14 73.4209L1540.46 79.3406ZM1527.17 81.2907L1522.09 89.6551L1522.2 89.7228L1522.31 89.7878L1527.17 81.2907ZM1521.72 76.395L1513.61 81.9636L1513.7 82.0854L1513.8 82.2046L1521.72 76.395ZM1517.3 70.5L1509.11 75.9525L1509.24 76.1338L1509.38 76.3097L1517.3 70.5ZM1511.85 65.6042L1506.77 73.9686L1506.97 74.0919L1507.17 74.2063L1511.85 65.6042ZM1497 68.3875L1505.32 74.3072L1505.38 74.2258L1505.43 74.1433L1497 68.3875ZM1499.7 84.4704L1492.67 91.292L1492.81 91.4301L1492.95 91.5631L1499.7 84.4704ZM1507.36 88.7996L1504.85 98.3051L1504.9 98.321L1504.95 98.3363L1507.36 88.7996ZM1517.16 90.8771L1516.02 100.69L1516.13 100.706L1516.24 100.721L1517.16 90.8771ZM1527.62 92.6145L1525.98 102.338L1526.02 102.346L1526.06 102.353L1527.62 92.6145ZM1537.47 95.6525L1533.67 104.688L1533.83 104.757L1533.99 104.822L1537.47 95.6525ZM1545.5 101.868L1537.61 107.718L1537.67 107.796L1537.73 107.873L1545.5 101.868ZM1544.19 132.11L1536.98 124.895L1536.96 124.915L1536.94 124.935L1544.19 132.11ZM1520.42 132.283C1511.44 133.6 1504.5 132.665 1499.1 130.26L1491.44 148.307C1501.33 152.707 1512.41 153.653 1524.17 151.929L1520.42 132.283ZM1499.1 130.26C1493.03 127.559 1492.27 125.281 1492.12 124.478L1472.33 127.38C1474.28 137.578 1482.22 144.204 1491.44 148.307L1499.1 130.26ZM1492.12 124.478C1492.01 123.884 1492.06 123.757 1492.04 123.96C1492 124.215 1491.86 124.745 1491.45 125.314C1491.04 125.881 1490.6 126.162 1490.41 126.256C1490.26 126.329 1490.41 126.223 1491.05 126.129L1487.3 106.484C1482.96 107.12 1478.09 108.93 1474.88 113.364C1471.66 117.827 1471.5 123.041 1472.33 127.38L1492.12 124.478ZM1491.05 126.129C1491.06 126.129 1491.01 126.135 1490.93 126.132C1490.85 126.129 1490.76 126.118 1490.66 126.096C1490.44 126.046 1490.35 125.978 1490.41 126.02L1500.95 109.532C1496.83 106.877 1492.13 105.776 1487.3 106.484L1491.05 126.129ZM1490.63 126.158C1491.5 126.686 1492.39 127.449 1493.3 128.589L1508.97 116.754C1506.66 113.842 1503.92 111.341 1500.73 109.393L1490.63 126.158ZM1493.39 128.71C1495.07 130.765 1496.84 132.84 1498.69 134.936L1513.65 122.259C1511.97 120.349 1510.38 118.473 1508.87 116.633L1493.39 128.71ZM1498.8 135.059C1501.68 138.226 1505.18 140.6 1509.08 142.276L1516.5 124.127C1515.07 123.513 1514.16 122.818 1513.54 122.136L1498.8 135.059ZM1509.08 142.276C1513.77 144.297 1518.69 144.735 1523.52 144.027L1519.77 124.382C1518.1 124.626 1517.12 124.396 1516.5 124.127L1509.08 142.276ZM1523.52 144.027C1528.62 143.279 1533.7 141.212 1537.28 136.825L1521.4 123.995C1521.5 123.868 1521.55 123.873 1521.39 123.955C1521.19 124.053 1520.7 124.245 1519.77 124.382L1523.52 144.027ZM1537.16 136.971C1541.04 132.417 1542 126.802 1540.95 121.316L1521.16 124.218C1521.24 124.657 1521.18 124.688 1521.23 124.46C1521.25 124.351 1521.3 124.224 1521.36 124.097C1521.42 123.972 1521.48 123.888 1521.52 123.849L1537.16 136.971ZM1540.95 121.316C1539.99 116.285 1537.57 111.598 1533.32 108.036L1520.64 122.941C1520.65 122.954 1520.95 123.12 1521.16 124.218L1540.95 121.316ZM1533.64 108.313C1530.1 105.095 1525.89 103.031 1521.34 101.972L1517.48 121.29C1518.89 121.618 1519.73 122.126 1520.32 122.664L1533.64 108.313ZM1521.69 102.058C1518.17 101.113 1514.43 100.445 1510.49 100.02L1509.11 119.759C1512.15 120.088 1514.81 120.58 1517.13 121.203L1521.69 102.058ZM1510.72 100.046C1507.43 99.6192 1504.12 99.0812 1500.78 98.4309L1497.66 117.908C1501.42 118.64 1505.16 119.249 1508.89 119.733L1510.72 100.046ZM1500.99 98.4736C1498.02 97.8326 1495.33 96.9803 1492.9 95.9425L1485.54 114.119C1489.31 115.727 1493.29 116.967 1497.45 117.865L1500.99 98.4736ZM1493.21 96.0819C1491.93 95.4839 1490.51 94.426 1489.01 92.5012L1473.22 104.187C1476.46 108.353 1480.44 111.753 1485.23 113.98L1493.21 96.0819ZM1489.07 92.5785C1487.85 90.9882 1486.75 88.6737 1486.1 85.2534L1466.31 88.1553C1467.43 94.0076 1469.6 99.4531 1473.16 104.11L1489.07 92.5785ZM1486.1 85.2534C1485.22 80.6444 1486.19 77.0931 1489.17 73.7438L1473.79 60.3118C1466.86 68.1102 1464.31 77.6766 1466.31 88.1553L1486.1 85.2534ZM1489.17 73.7438C1492.25 70.2829 1497.26 67.5412 1505.4 66.348L1501.65 46.7026C1490.31 48.3649 1480.63 52.6248 1473.79 60.3118L1489.17 73.7438ZM1505.4 66.348C1513.45 65.1665 1519.87 66.0792 1525.08 68.4459L1532.88 50.4666C1523.3 46.1162 1512.75 45.0749 1501.65 46.7026L1505.4 66.348ZM1525.21 68.5035C1530.95 71.0181 1531.57 73.1545 1531.7 73.9378L1551.54 71.3167C1549.74 61.0754 1541.93 54.4311 1532.75 50.409L1525.21 68.5035ZM1531.73 74.0782C1531.8 74.4557 1531.75 74.4788 1531.79 74.2585C1531.81 74.1489 1531.84 74.0052 1531.91 73.8445C1531.98 73.6833 1532.06 73.5395 1532.14 73.4209L1548.79 85.2603C1551.87 80.9253 1552.42 75.89 1551.52 71.1763L1531.73 74.0782ZM1532.14 73.4209C1532.3 73.1955 1532.48 73.0068 1532.66 72.8586C1532.83 72.7127 1532.97 72.6307 1533.04 72.5938C1533.17 72.528 1533.01 72.6382 1532.37 72.7325L1536.12 92.378C1540.66 91.7118 1545.57 89.7826 1548.79 85.2603L1532.14 73.4209ZM1532.37 72.7325C1532.02 72.7838 1531.89 72.7532 1531.92 72.7583C1531.93 72.7601 1531.95 72.7657 1531.98 72.7769C1532.01 72.7881 1532.03 72.7969 1532.02 72.7937L1522.31 89.7878C1526.69 92.3367 1531.47 93.0601 1536.12 92.378L1532.37 72.7325ZM1532.24 72.9264C1531.22 72.2941 1530.37 71.5281 1529.64 70.5853L1513.8 82.2046C1516.09 85.1802 1518.88 87.6781 1522.09 89.6551L1532.24 72.9264ZM1529.82 70.8264C1528.32 68.7732 1526.79 66.7278 1525.22 64.6903L1509.38 76.3097C1510.83 78.1905 1512.24 80.0751 1513.61 81.9636L1529.82 70.8264ZM1525.48 65.0475C1523.12 61.7133 1520.11 58.9981 1516.52 57.0021L1507.17 74.2063C1507.95 74.6393 1508.57 75.1879 1509.11 75.9525L1525.48 65.0475ZM1516.92 57.2398C1512.46 54.4936 1507.54 53.7152 1502.75 54.4165L1506.5 74.0619C1506.69 74.0344 1506.81 74.0303 1506.88 74.0311C1506.95 74.0319 1506.96 74.0373 1506.94 74.0336C1506.92 74.0296 1506.89 74.0201 1506.84 74.003C1506.8 73.986 1506.77 73.9708 1506.77 73.9686L1516.92 57.2398ZM1502.75 54.4165C1497.34 55.2102 1492 57.5794 1488.56 62.6316L1505.43 74.1433C1505.38 74.2207 1505.32 74.2943 1505.25 74.3529C1505.19 74.4101 1505.15 74.4246 1505.18 74.409C1505.25 74.3728 1505.62 74.1914 1506.5 74.0619L1502.75 54.4165ZM1488.68 62.4678C1485.41 67.0655 1484.67 72.4337 1485.67 77.6823L1505.46 74.7803C1505.36 74.2582 1505.41 74.0708 1505.4 74.1127C1505.4 74.13 1505.39 74.1716 1505.36 74.2234C1505.35 74.2473 1505.34 74.2677 1505.33 74.2836C1505.33 74.2995 1505.32 74.3074 1505.32 74.3072L1488.68 62.4678ZM1485.67 77.6823C1486.63 82.716 1488.83 87.4535 1492.67 91.292L1506.73 77.6487C1506.34 77.2598 1505.79 76.5047 1505.46 74.7803L1485.67 77.6823ZM1492.95 91.5631C1496.37 94.7453 1500.39 96.9948 1504.85 98.3051L1509.88 79.294C1508.47 78.8791 1507.38 78.2424 1506.45 77.3777L1492.95 91.5631ZM1504.95 98.3363C1508.44 99.3212 1512.13 100.1 1516.02 100.69L1518.29 81.0646C1515.14 80.5867 1512.31 79.98 1509.77 79.2628L1504.95 98.3363ZM1516.24 100.721C1519.5 101.145 1522.75 101.684 1525.98 102.338L1529.26 82.8913C1525.55 82.1398 1521.82 81.5207 1518.07 81.0338L1516.24 100.721ZM1526.06 102.353C1528.91 102.91 1531.44 103.702 1533.67 104.688L1541.28 86.6174C1537.47 84.9352 1533.42 83.7018 1529.18 82.876L1526.06 102.353ZM1533.99 104.822C1535.16 105.294 1536.37 106.129 1537.61 107.718L1553.38 96.017C1550.1 91.8078 1545.96 88.499 1540.96 86.4831L1533.99 104.822ZM1537.73 107.873C1538.75 109.136 1539.78 111.14 1540.4 114.369L1560.18 111.467C1559.09 105.738 1556.92 100.375 1553.26 95.8625L1537.73 107.873ZM1540.4 114.369C1541.19 118.524 1540.25 121.718 1536.98 124.895L1551.4 139.325C1559.11 131.844 1562.24 122.243 1560.18 111.467L1540.4 114.369ZM1536.94 124.935C1533.24 128.568 1527.97 131.177 1520.42 132.283L1524.17 151.929C1534.99 150.342 1544.31 146.287 1551.44 139.284L1536.94 124.935Z" fill="white"/>
</g>
<defs>
<filter id="filter0_d_2232_4190" x="-11.0013" y="0.998535" width="1744" height="190.724" filterUnits="userSpaceOnUse" color-interpolation-filters="sRGB">
<feFlood flood-opacity="0" result="BackgroundImageFix"/>
<feColorMatrix in="SourceAlpha" type="matrix" values="0 0 0 0 0 0 0 0 0 0 0 0 0 0 0 0 0 0 127 0" result="hardAlpha"/>
<feOffset dy="5"/>
<feComposite in2="hardAlpha" operator="out"/>
<feColorMatrix type="matrix" values="0 0 0 0 0 0 0 0 0 0 0 0 0 0 0 0 0 0 0.25 0"/>
<feBlend mode="normal" in2="BackgroundImageFix" result="effect1_dropShadow_2232_4190"/>
<feBlend mode="normal" in="SourceGraphic" in2="effect1_dropShadow_2232_4190" result="shape"/>
</filter>
</defs>
</svg>
