<svg width="1728" height="224" viewBox="0 0 1728 224" fill="none" xmlns="http://www.w3.org/2000/svg">
<g filter="url(#filter0_d_2232_4204)">
<path d="M-20 19.3257C178.95 91.2007 640.1 118.801 854 118.801C1067.9 118.801 1529.05 91.2007 1728 19.3257" stroke="#502201" stroke-width="11.5" stroke-linecap="round"/>
<path d="M1614.05 143.25C1613.07 148.267 1606.52 149.601 1603.65 145.367L1548.66 64.151C1546.36 60.7542 1548.26 56.1108 1552.28 55.2928L1626.14 40.2625C1630.16 39.4446 1633.72 42.9783 1632.93 47.0037L1614.05 143.25Z" fill="#D96058"/>
<path d="M1476.64 166.711C1475.36 171.66 1468.73 172.593 1466.13 168.193L1416.17 83.7911C1414.08 80.261 1416.25 75.7411 1420.32 75.1685L1494.96 64.6469C1499.02 64.0743 1502.36 67.8174 1501.32 71.7875L1476.64 166.711Z" fill="#50985E"/>
<path d="M1339.63 183.36C1338.16 188.256 1331.51 188.94 1329.07 184.445L1282.33 98.2214C1280.37 94.6152 1282.71 90.1803 1286.79 89.761L1361.78 82.0574C1365.86 81.6382 1369.05 85.5043 1367.87 89.4328L1339.63 183.36Z" fill="#D7758B"/>
<path d="M1202.75 195.525C1201.14 200.378 1194.48 200.875 1192.17 196.314L1147.85 108.815C1146 105.155 1148.46 100.788 1152.56 100.483L1227.73 94.8824C1231.82 94.5776 1234.9 98.5317 1233.61 102.426L1202.75 195.525Z" fill="#F9C543"/>
<path d="M1065.81 204.113C1064.08 208.925 1057.4 209.257 1055.2 204.64L1013.06 116.076C1011.3 112.372 1013.87 108.067 1017.97 107.863L1093.25 104.116C1097.35 103.912 1100.34 107.941 1098.95 111.802L1065.81 204.113Z" fill="#D96058"/>
<path d="M928.476 209.211C926.613 213.973 919.928 214.117 917.861 209.44L878.229 119.724C876.572 115.972 879.264 111.741 883.365 111.652L958.726 110.027C962.827 109.939 965.699 114.05 964.205 117.871L928.476 209.211Z" fill="#50985E"/>
<path d="M788.606 209.407C786.54 214.084 779.854 213.94 777.991 209.178L742.262 117.837C740.768 114.017 743.64 109.906 747.741 109.994L823.102 111.619C827.203 111.707 829.896 115.939 828.238 119.691L788.606 209.407Z" fill="#D7758B"/>
<path d="M651.294 204.564C649.099 209.182 642.42 208.852 640.69 204.041L607.511 111.744C606.123 107.883 609.108 103.853 613.205 104.055L688.492 107.772C692.589 107.974 695.163 112.278 693.402 115.983L651.294 204.564Z" fill="#F9C543"/>
<path d="M514.311 196.198C512.001 200.76 505.332 200.263 503.723 195.409L472.866 102.31C471.575 98.4165 474.66 94.4625 478.751 94.7672L553.921 100.368C558.012 100.673 560.477 105.04 558.624 108.7L514.311 196.198Z" fill="#D96058"/>
<path d="M377.456 184.292C375.022 188.788 368.369 188.109 366.894 183.213L338.605 89.3016C337.422 85.3738 340.614 81.5059 344.695 81.9228L419.683 89.5852C423.764 90.0021 426.108 94.4358 424.155 98.0431L377.456 184.292Z" fill="#50985E"/>
<path d="M240.434 167.988C237.833 172.39 231.211 171.462 229.92 166.514L205.166 71.6098C204.131 67.6405 207.466 63.8948 211.528 64.4643L286.177 74.9286C290.239 75.498 292.416 80.0163 290.329 83.548L240.434 167.988Z" fill="#D7758B"/>
<path d="M102.88 145.066C100.013 149.3 93.46 147.967 92.4759 142.949L73.5989 46.703C72.8093 42.6776 76.3681 39.1439 80.3879 39.9618L154.253 54.9921C158.272 55.8101 160.167 60.4535 157.867 63.8503L102.88 145.066Z" fill="#F9C543"/>
</g>
<defs>
<filter id="filter0_d_2232_4204" x="-25.7516" y="13.5742" width="1759.5" height="205.042" filterUnits="userSpaceOnUse" color-interpolation-filters="sRGB">
<feFlood flood-opacity="0" result="BackgroundImageFix"/>
<feColorMatrix in="SourceAlpha" type="matrix" values="0 0 0 0 0 0 0 0 0 0 0 0 0 0 0 0 0 0 127 0" result="hardAlpha"/>
<feOffset dy="5.75"/>
<feComposite in2="hardAlpha" operator="out"/>
<feColorMatrix type="matrix" values="0 0 0 0 0 0 0 0 0 0 0 0 0 0 0 0 0 0 0.25 0"/>
<feBlend mode="normal" in2="BackgroundImageFix" result="effect1_dropShadow_2232_4204"/>
<feBlend mode="normal" in="SourceGraphic" in2="effect1_dropShadow_2232_4204" result="shape"/>
</filter>
</defs>
</svg>
