<?xml version="1.0" encoding="UTF-8"?>
<svg xmlns="http://www.w3.org/2000/svg" fill="none" viewBox="0 0 475 122" width="800" height="205.47368421053"><g clip-path="url(#clip0_6084_5388)"><path fill="#008CFF" d="M88.677 74.251c-3.83-2.22-8.15-2.86-12.43-3-3.59-.12-8.94-2.42-8.94-9a9.08 9.08 0 0 1 8.94-9c4.28-.15 8.6-.79 12.43-3a22.65 22.65 0 1 0-34-19.62c0 4.39 1.56 8.43 3.56 12.18 1.67 3.15 2.52 9-3.23 12.31a9.09 9.09 0 0 1-12.27-3.36c-2.25-3.6-5-7-8.77-9.17a22.65 22.65 0 1 0 0 39.24c3.8-2.2 6.52-5.57 8.77-9.17 1.85-3 6.46-6.72 12.27-3.36a9.09 9.09 0 0 1 3.22 12.31c-2 3.75-3.55 7.79-3.55 12.18a22.658 22.658 0 0 0 22.657 22.658 22.653 22.653 0 0 0 19.624-11.324 22.662 22.662 0 0 0-8.28-30.954v.08z"/><path fill="#000" d="M131.16 27.82h15.77v7.44a22.494 22.494 0 0 1 17.31-8.21 22.06 22.06 0 0 1 6.66.77v18s-2.18-.77-7.43-.77c-9 0-15 6-15 15V96.8h-17.31V27.82zm84.75 0h15.77v6.67a29.72 29.72 0 0 1 19.49-7.44c17.31 0 32.31 15 32.31 35.26 0 20.26-15 35.26-32.31 35.26a26.94 26.94 0 0 1-17.95-6.79v30.77h-17.31V27.82zm50.26 34.49c0-11.28-7.44-18.72-17.18-18.72-9.74 0-17.31 7.41-17.31 18.72C231.68 73.62 239.24 81 249 81c9.76 0 17.17-7.4 17.17-18.69zm30-34.49h15.77v6.67a29.75 29.75 0 0 1 19.49-7.44c17.31 0 32.31 15 32.31 35.26 0 20.26-15 35.26-32.31 35.26a27 27 0 0 1-17.95-6.79v30.77h-17.31V27.82zm50.27 34.49c0-11.28-7.44-18.72-17.19-18.72S311.94 51 311.94 62.31c0 11.31 7.57 18.69 17.31 18.69 9.74 0 17.19-7.4 17.19-18.69zm30-60h17.31V96.8h-17.31V2.31zm30 60c0-19.48 15.77-35.26 34.49-35.26C459 27.05 474 41.29 474 62.31a42.222 42.222 0 0 1-.77 6.8h-48.07C426.7 75.78 432 81 440.93 81c8.08 0 11.29-3.71 11.29-3.71h18.72c-3.47 9-14.24 20.25-30 20.25-18.73.03-34.5-15.74-34.5-35.23zm51-5.25a16.89 16.89 0 0 0-33.08 0h33.08zM181 9.74a9.813 9.813 0 0 1 9.81-9.81A9.81 9.81 0 1 1 181 9.74zm1.16 18.08h17.34v69h-17.31l-.03-69z"/></g><defs><clipPath id="clip0_6084_5388"><path fill="#fff" d="M0 0h474.01v121.55H0z"/></clipPath></defs></svg>
