<svg id="Layer_1" data-name="Layer 1" xmlns="http://www.w3.org/2000/svg" viewBox="0 0 2000 525.18"><defs><style>.cls-1{fill:#191521;}</style></defs><path class="cls-1" d="M35.43,0h0A35.43,35.43,0,0,0,0,35.43V455.54A35.43,35.43,0,0,0,35.43,491h0a35.43,35.43,0,0,0,35.43-35.43V35.43A35.43,35.43,0,0,0,35.43,0Z"/><path class="cls-1" d="M248.3,80.31a35.43,35.43,0,0,0-35.43,35.43V371.91a35.43,35.43,0,0,0,70.86,0V115.74A35.43,35.43,0,0,0,248.3,80.31Z"/><path class="cls-1" d="M141.87,224.87h0a35.44,35.44,0,0,0-35.44,35.43v146a35.44,35.44,0,0,0,35.44,35.43h0a35.44,35.44,0,0,0,35.43-35.43v-146A35.43,35.43,0,0,0,141.87,224.87Z"/><path class="cls-1" d="M461.17,0a35.43,35.43,0,0,0-35.43,35.43V455.54a35.43,35.43,0,0,0,70.86,0V35.43A35.43,35.43,0,0,0,461.17,0Z"/><path class="cls-1" d="M354.74,224.87a35.43,35.43,0,0,0-35.43,35.43v146a35.43,35.43,0,0,0,70.86,0v-146A35.43,35.43,0,0,0,354.74,224.87Z"/><polygon class="cls-1" points="1022.95 312.78 948.2 80.28 886.85 80.28 812.1 312.78 740.44 80.28 658.99 80.28 779.62 441.66 841.49 441.66 916.75 209.68 992.53 441.66 1053.88 441.66 1173.48 80.28 1093.58 80.28 1022.95 312.78"/><path class="cls-1" d="M1229.52,73.07c-24.23,0-44.33,20.1-44.33,43.81a44.34,44.34,0,1,0,88.67,0C1273.86,93.17,1253.75,73.07,1229.52,73.07Z"/><path class="cls-1" d="M1367.87,261.23c0-11.86,12.37-17.53,28.86-17.53,23.2,0,37.12,11.35,38.15,24.23h73.21c-6.19-56.19-55.16-84.54-109.81-84.54-62.38,0-100.52,36.08-100.52,83,0,94.33,142.28,57.22,142.28,99,0,11.86-12.37,19.08-34,19.08-24.23,0-42.27-11.34-43.82-28.35H1292.6c5.16,57.22,51,90.73,117,90.73,57.23,0,101-35.57,101-82C1510.66,259.17,1367.87,300.41,1367.87,261.23Z"/><path class="cls-1" d="M1692.26,183.39c-35.06,0-62.38,14.43-79.91,40.72V188.54h-72.69V525.18h72.69V406.09c17.53,26.29,44.85,40.73,79.91,40.73,65.47,0,117.54-59.29,117.54-132S1757.73,183.39,1692.26,183.39Zm-16.5,193.83c-35.57,0-63.41-26.81-63.41-62.38,0-35,27.84-62.37,63.41-62.37,35.06,0,62.9,27.83,62.9,62.37C1738.66,349.9,1710.82,377.22,1675.76,377.22Z"/><path class="cls-1" d="M1975.77,183.39c-28.35,0-50.52,12.37-65.47,34V188.54h-72.69V441.66h72.69V316.91c0-46.92,28.35-68.05,63.41-68.05,8.76,0,17.52,1.54,26.29,3.61v-66C1991.75,184.93,1983.5,183.39,1975.77,183.39Z"/><rect class="cls-1" x="1193.44" y="188.54" width="72.69" height="253.12"/></svg>